<svg width="49" height="48" viewBox="0 0 49 48" fill="none" xmlns="http://www.w3.org/2000/svg">
<g clip-path="url(#clip0_5568_33141)">
<path d="M24.3366 46.2878C19.3145 40.7588 12.5039 37.1774 5.10227 36.1735C4.25981 36.0803 3.48173 35.6783 2.91822 35.0452C2.35471 34.412 2.0457 33.5925 2.05084 32.745V5.14495C2.05081 4.64973 2.15806 4.16037 2.36521 3.71056C2.57237 3.26074 2.87451 2.86114 3.25084 2.53924C3.62055 2.2232 4.05328 1.98943 4.52027 1.85347C4.98726 1.71751 5.47784 1.68247 5.95942 1.75067C13.037 2.92532 19.5116 6.45253 24.3366 11.7621V46.2878Z" stroke="#5E72E4" stroke-width="3.4275" stroke-linecap="round" stroke-linejoin="round"/>
<path d="M24.3359 46.2878C29.358 40.7588 36.1686 37.1774 43.5702 36.1735C44.4127 36.0803 45.1908 35.6783 45.7543 35.0452C46.3178 34.412 46.6268 33.5925 46.6217 32.745V5.14495C46.6217 4.64973 46.5144 4.16037 46.3073 3.71056C46.1001 3.26074 45.798 2.86114 45.4217 2.53924C45.0519 2.2232 44.6192 1.98943 44.1522 1.85347C43.6852 1.71751 43.1947 1.68247 42.7131 1.75067C35.6355 2.92532 29.1609 6.45253 24.3359 11.7621V46.2878Z" stroke="#5E72E4" stroke-width="3.4275" stroke-linecap="round" stroke-linejoin="round"/>
</g>
<defs>
<clipPath id="clip0_5568_33141">
<rect width="48" height="48" fill="white" transform="translate(0.333984)"/>
</clipPath>
</defs>
</svg>
