<svg width="48" height="48" viewBox="0 0 48 48" fill="none" xmlns="http://www.w3.org/2000/svg">
<g clip-path="url(#clip0_5568_32913)">
<path d="M10.2812 23.9988V14.9817C10.308 13.2092 10.6843 11.4595 11.3885 9.83265C12.0926 8.20586 13.1109 6.73399 14.3849 5.5014C15.6589 4.26881 17.1636 3.29972 18.8128 2.64965C20.4619 1.99959 22.2232 1.68133 23.9955 1.7131V1.7131C25.7679 1.68133 27.5291 1.99959 29.1783 2.64965C30.8275 3.29972 32.3322 4.26881 33.6062 5.5014C34.8802 6.73399 35.8984 8.20586 36.6026 9.83265C37.3068 11.4595 37.683 13.2092 37.7098 14.9817V23.9988" stroke="#5E72E4" stroke-width="3.4275" stroke-linecap="round" stroke-linejoin="round"/>
<path d="M5.13951 18.8555H8.56808C9.02274 18.8555 9.45877 19.0361 9.78026 19.3576C10.1018 19.6791 10.2824 20.1151 10.2824 20.5698V30.8555C10.2824 31.3101 10.1018 31.7462 9.78026 32.0677C9.45877 32.3891 9.02274 32.5698 8.56808 32.5698H5.13951C4.2302 32.5698 3.35812 32.2085 2.71514 31.5655C2.07216 30.9226 1.71094 30.0505 1.71094 29.1412V22.284C1.71094 21.3747 2.07216 20.5027 2.71514 19.8597C3.35812 19.2167 4.2302 18.8555 5.13951 18.8555V18.8555Z" stroke="#5E72E4" stroke-width="3.4275" stroke-linecap="round" stroke-linejoin="round"/>
<path d="M42.8527 32.5703H39.4241C38.9695 32.5703 38.5334 32.3897 38.2119 32.0682C37.8904 31.7467 37.7098 31.3107 37.7098 30.856V20.5703C37.7098 20.1157 37.8904 19.6796 38.2119 19.3581C38.5334 19.0366 38.9695 18.856 39.4241 18.856H42.8527C43.762 18.856 44.6341 19.2172 45.277 19.8602C45.92 20.5032 46.2812 21.3753 46.2812 22.2846V29.1417C46.2812 30.0511 45.92 30.9231 45.277 31.5661C44.6341 32.2091 43.762 32.5703 42.8527 32.5703V32.5703Z" stroke="#5E72E4" stroke-width="3.4275" stroke-linecap="round" stroke-linejoin="round"/>
<path d="M30.8535 41.9992C32.6721 41.9992 34.4163 41.2767 35.7022 39.9908C36.9882 38.7048 37.7107 36.9606 37.7107 35.142V27.4277" stroke="#5E72E4" stroke-width="3.4275" stroke-linecap="round" stroke-linejoin="round"/>
<path d="M30.8549 41.9986C30.8549 43.1352 30.4034 44.2253 29.5997 45.0291C28.7959 45.8328 27.7058 46.2843 26.5692 46.2843H21.4263C20.2897 46.2843 19.1996 45.8328 18.3959 45.0291C17.5922 44.2253 17.1406 43.1352 17.1406 41.9986C17.1406 40.862 17.5922 39.7719 18.3959 38.9681C19.1996 38.1644 20.2897 37.7129 21.4263 37.7129H26.5692C27.7058 37.7129 28.7959 38.1644 29.5997 38.9681C30.4034 39.7719 30.8549 40.862 30.8549 41.9986Z" stroke="#5E72E4" stroke-width="3.4275" stroke-linecap="round" stroke-linejoin="round"/>
</g>
<defs>
<clipPath id="clip0_5568_32913">
<rect width="48" height="48" fill="white"/>
</clipPath>
</defs>
</svg>
