<svg width="49" height="48" viewBox="0 0 49 48" fill="none" xmlns="http://www.w3.org/2000/svg">
<g clip-path="url(#clip0_5568_34409)">
<path d="M46.3794 12.307C46.3131 11.9477 46.172 11.6064 45.9653 11.3052C45.7586 11.0039 45.4908 10.7495 45.1794 10.5585L38.3222 17.4156C38.0024 17.7474 37.6189 18.0114 37.1948 18.1917C36.7706 18.3719 36.3145 18.4648 35.8536 18.4648C35.3928 18.4648 34.9366 18.3719 34.5125 18.1917C34.0883 18.0114 33.7049 17.7474 33.3851 17.4156L30.7794 15.0842C30.1511 14.4433 29.7993 13.5816 29.7993 12.6842C29.7993 11.7867 30.1511 10.9251 30.7794 10.2842L37.6365 3.42704C37.4869 3.07574 37.262 2.76159 36.9776 2.50683C36.6933 2.25207 36.3564 2.06292 35.9908 1.95276C33.5982 1.47564 31.1198 1.67987 28.8376 2.54221C26.5555 3.40454 24.5613 4.89033 23.0821 6.83042C21.6029 8.77051 20.6982 11.0869 20.4709 13.516C20.2436 15.945 20.7029 18.3891 21.7965 20.5699L3.0765 39.1185C2.74994 39.4378 2.49047 39.8191 2.31332 40.2401C2.13617 40.6611 2.04492 41.1132 2.04492 41.5699C2.04492 42.0266 2.13617 42.4787 2.31332 42.8997C2.49047 43.3207 2.74994 43.702 3.0765 44.0213L4.31078 45.2556C4.63009 45.5822 5.01142 45.8416 5.43239 46.0188C5.85336 46.1959 6.30549 46.2872 6.76221 46.2872C7.21893 46.2872 7.67106 46.1959 8.09203 46.0188C8.513 45.8416 8.89433 45.5822 9.21364 45.2556L27.9336 26.5699C30.115 27.6092 32.542 28.0231 34.9445 27.7655C37.3471 27.508 39.6311 26.5891 41.5427 25.111C43.4542 23.6329 44.9183 21.6536 45.7722 19.3932C46.6261 17.1328 46.8363 14.6798 46.3794 12.307V12.307Z" stroke="#5E72E4" stroke-width="3.42857" stroke-linecap="round" stroke-linejoin="round"/>
</g>
<defs>
<clipPath id="clip0_5568_34409">
<rect width="48" height="48" fill="white" transform="translate(0.333984)"/>
</clipPath>
</defs>
</svg>
