<svg width="169" height="72" viewBox="0 0 169 72" fill="none" xmlns="http://www.w3.org/2000/svg">
<g clip-path="url(#clip0_149_9034)">
<path d="M121.024 25.0087V27.7592H123.71C124.883 27.7592 125.654 28.4989 126.092 28.977C126.444 29.3707 134.178 38.1402 134.364 38.3709C134.55 38.6015 134.55 38.6042 134.55 38.7504V43.0961C134.549 43.2953 134.529 43.494 134.49 43.6893C134.435 43.8155 134.354 43.9282 134.251 44.0195C134.148 44.1109 134.026 44.1787 133.894 44.2183C133.641 44.2502 133.385 44.2662 133.129 44.2662L130.441 44.2628V47.0133H145.521V44.2628H142.683C142.429 44.2641 142.176 44.2479 141.924 44.2145C141.792 44.1753 141.671 44.1076 141.568 44.0163C141.466 43.925 141.385 43.8122 141.33 43.686C141.291 43.4907 141.27 43.292 141.269 43.0928V38.7499C141.252 38.6071 141.288 38.4632 141.37 38.345L149.737 28.7996C150.505 27.9446 150.905 27.7586 151.911 27.7586H154.687V25.0082H142.259V27.7531H144.135C144.235 27.7471 144.335 27.77 144.423 27.8192C144.511 27.8684 144.583 27.9418 144.63 28.0306C144.678 28.1195 144.699 28.2201 144.69 28.3205C144.682 28.4208 144.646 28.5168 144.585 28.5969C144.545 28.6531 139.381 34.7253 139.317 34.7844C139.252 34.8435 139.21 34.8292 139.162 34.7646C139.114 34.6999 134.012 28.5969 134.012 28.5969C133.652 28.1553 133.934 27.7531 134.356 27.7531H136.184V25.0082L121.024 25.0087Z" fill="#0F0F0F"/>
<path d="M84.0381 25.0087V27.7592H86.4452C88.1833 27.7592 88.3019 28.7271 88.3019 29.5708V42.4435C88.3019 43.2141 88.3465 44.2716 87.2384 44.2716H84.2682V47.0193H96.9503V44.2716H93.8566C92.6218 44.2716 92.5654 43.7065 92.5514 42.5056V31.4775L109.969 47.0193H114.399L114.165 29.4664C114.188 28.1839 114.267 27.7564 115.594 27.7564H118.37V25.0087H105.432V27.7564H108.273C109.578 27.7564 109.797 28.2599 109.814 29.4664L109.969 38.6521L94.8492 25.0087H84.0381Z" fill="#0F0F0F"/>
<path d="M26.9297 23.625C24.2044 23.625 21.1078 24.1369 18.4922 25.3125C16.0509 26.4037 14.0625 28.1558 14.0625 31.0611C14.0588 32.5826 14.6374 34.0478 15.6797 35.1563C16.3856 35.8088 17.5249 36.9169 20.5005 37.5694C21.8308 37.8506 24.6743 38.3034 27.5065 38.6016C30.3387 38.8997 33.0837 39.1642 34.2087 39.4651C35.1031 39.6929 36.6075 40.0023 36.6075 41.6898C36.6075 43.3773 35.0243 43.8834 34.7487 43.9931C34.473 44.1028 32.5715 44.9747 29.1572 44.9747C26.895 44.9119 24.6533 44.5264 22.5 43.83C21.2259 43.3744 19.8903 42.7752 18.6444 41.2537C18.1414 40.5372 17.8623 39.6876 17.8424 38.8125H14.7486V47.4752H18.1857V46.3024C18.1851 46.2154 18.2078 46.1298 18.2513 46.0545C18.2948 45.9791 18.3577 45.9167 18.4333 45.8738C18.509 45.8308 18.5948 45.8088 18.6818 45.81C18.7688 45.8111 18.8539 45.8355 18.9284 45.8806C20.5475 46.5851 22.2317 47.1294 23.9568 47.506C25.7624 47.8829 26.9298 48.1558 29.1742 48.1558C31.5424 48.2009 33.9027 47.8676 36.1659 47.1687C37.6688 46.7567 39.0788 46.0606 40.3198 45.1181C41.0178 44.582 41.582 43.8912 41.9681 43.1002C42.3541 42.3092 42.5514 41.4395 42.5446 40.5593C42.5565 38.8871 41.9113 37.277 40.7477 36.0758C40.1007 35.448 39.351 34.9354 38.5313 34.5602C37.65 34.162 36.7351 33.8429 35.7973 33.6066C34.0142 33.1707 30.0096 32.6251 28.0942 32.4338C26.0861 32.2257 22.6013 31.9358 21.2091 31.5055C20.7872 31.3733 19.9265 30.9658 19.9265 29.9674C19.9265 29.2558 20.3203 28.6539 21.0965 28.1673C22.3312 27.3939 24.8231 26.9127 27.4219 26.9127C29.9374 26.8823 32.4322 27.3695 34.7514 28.3442C35.3744 28.6157 35.9603 28.9655 36.4949 29.3851C37.3665 30.1295 37.97 31.1391 38.2132 32.2592H40.9895V24.7192H37.8957V25.5938C37.8957 25.875 37.6145 26.2464 37.052 25.9398C35.657 25.2142 31.7362 23.6447 26.9297 23.625Z" fill="#0F0F0F"/>
<path d="M64.1622 23.625C59.2881 23.625 54.1129 25.3123 51.1879 27.9701C50.0728 28.9854 49.1826 30.2228 48.5747 31.6029C47.9667 32.9829 47.6544 34.475 47.6579 35.983C47.6405 37.4972 47.9464 38.9978 48.5551 40.3844C49.1638 41.771 50.0614 43.0118 51.1879 44.0239C54.3379 46.856 59.0631 48.375 64.1622 48.375C69.2696 48.375 74.0959 46.8729 77.17 44.0239C78.263 42.988 79.135 41.7415 79.7334 40.3596C80.3317 38.9777 80.6441 37.4889 80.6515 35.983C80.6666 34.4786 80.3644 32.988 79.7645 31.6083C79.1645 30.2287 78.2805 28.991 77.17 27.9761C73.8709 24.9836 69.5537 23.625 64.1622 23.625ZM64.1622 26.8423C66.8284 26.8423 69.3962 27.8017 71.1258 29.5032C72.7993 31.1514 73.6736 33.4801 73.6736 35.972C73.6736 38.582 72.878 40.697 71.1258 42.4407C69.3737 44.1845 66.865 45.1181 64.1622 45.1181C61.479 45.1181 58.9166 44.1648 57.1869 42.4407C56.3597 41.5824 55.7102 40.5691 55.2758 39.459C54.8414 38.3488 54.6307 37.1638 54.6557 35.972C54.6557 33.4914 55.5191 31.1542 57.1869 29.5032C58.9166 27.7932 61.4959 26.8423 64.1622 26.8423Z" fill="#0F0F0F"/>
</g>
<defs>
<clipPath id="clip0_149_9034">
<rect width="140.625" height="24.75" fill="white" transform="translate(14.0625 23.625)"/>
</clipPath>
</defs>
</svg>
