<svg width="40" height="41" viewBox="0 0 40 41" fill="none" xmlns="http://www.w3.org/2000/svg">
<g clip-path="url(#clip0_149_9713)">
<path d="M17.4766 31.3545C17.1641 26.9795 13.6406 23.4951 9.25 23.2451C10.9219 19.5029 13.8125 13.3545 16.1875 9.8467C22.5859 0.417012 32.1172 0.104512 37.8047 1.15139C38.7109 1.31545 39.4141 2.02639 39.5859 2.93264C40.6328 8.62795 40.3125 18.1514 30.8828 24.5498C27.3906 26.917 21.2656 29.7217 17.4766 31.3623V31.3545ZM33.125 10.7373C33.125 9.90852 32.7958 9.11367 32.2097 8.52762C31.6237 7.94156 30.8288 7.61232 30 7.61232C29.1712 7.61232 28.3763 7.94156 27.7903 8.52762C27.2042 9.11367 26.875 9.90852 26.875 10.7373C26.875 11.5661 27.2042 12.361 27.7903 12.947C28.3763 13.5331 29.1712 13.8623 30 13.8623C30.8288 13.8623 31.6237 13.5331 32.2097 12.947C32.7958 12.361 33.125 11.5661 33.125 10.7373Z" fill="#3B47C2"/>
<path opacity="0.8" d="M9.25802 23.2373H1.87521C1.19552 23.2373 0.570523 22.8701 0.242398 22.2842C-0.085727 21.6982 -0.0779145 20.9717 0.273648 20.3936L4.39865 13.6045C5.41427 11.9248 7.23459 10.8936 9.20334 10.8936H15.5158C13.2893 14.4717 10.7736 19.8389 9.25802 23.2373ZM29.844 25.2217V31.5342C29.844 33.5029 28.8205 35.3232 27.1408 36.3389L20.3518 40.4639C19.7736 40.8154 19.0471 40.8311 18.4611 40.4951C17.8752 40.1592 17.508 39.542 17.508 38.8623V31.3467C20.9377 29.8545 26.2893 27.417 29.8518 25.2217H29.844ZM13.008 37.4561C10.3361 40.1357 5.15646 40.6592 2.21115 40.7295C0.961148 40.7607 -0.023227 39.7764 0.00802299 38.5264C0.0783355 35.5811 0.601773 30.4014 3.28146 27.7295C5.96896 25.042 10.3205 25.042 13.008 27.7295C15.6955 30.417 15.6955 34.7686 13.008 37.4561ZM9.35959 34.6123C10.2502 33.7217 10.2502 32.2686 9.35959 31.3779C8.46896 30.4873 7.01584 30.4873 6.12521 31.3779C5.33615 32.167 5.10959 33.6045 5.0549 34.6045C5.01584 35.2295 5.51584 35.7217 6.14084 35.6904C7.14084 35.6357 8.57834 35.4014 9.3674 34.6201L9.35959 34.6123Z" fill="#6BDBE3"/>
</g>
<defs>
<clipPath id="clip0_149_9713">
<rect width="40" height="40" fill="white" transform="translate(0 0.737305)"/>
</clipPath>
</defs>
</svg>
