<svg width="41" height="41" viewBox="0 0 41 41" fill="none" xmlns="http://www.w3.org/2000/svg">
<g clip-path="url(#clip0_146_4481)">
<path d="M27.1667 13.7776L16.0556 2.6665V11.5554C16.0556 12.7846 17.0487 13.7776 18.2778 13.7776H27.1667ZM34.4584 17.5971C33.8056 16.9443 32.75 16.9443 32.1042 17.5971C31.4584 18.2498 31.4514 19.3054 32.1042 19.9512L34.8125 22.6596H15.5C14.5764 22.6596 13.8334 23.4026 13.8334 24.3262C13.8334 25.2498 14.5764 25.9929 15.5 25.9929H34.8125L32.1042 28.7012C31.4514 29.354 31.4514 30.4096 32.1042 31.0554C32.757 31.7012 33.8125 31.7082 34.4584 31.0554L40.0139 25.4998C40.6667 24.8471 40.6667 23.7915 40.0139 23.1457L34.4584 17.5901V17.5971Z" fill="#3B47C2"/>
<path opacity="0.8" d="M0.5 7.11095C0.5 4.65956 2.49306 2.6665 4.94444 2.6665H16.0556V11.5554C16.0556 12.7846 17.0486 13.7776 18.2778 13.7776H27.1667V22.6665H15.5C14.5764 22.6665 13.8333 23.4096 13.8333 24.3332C13.8333 25.2568 14.5764 25.9998 15.5 25.9998H27.1667V33.7776C27.1667 36.229 25.1736 38.2221 22.7222 38.2221H4.94444C2.49306 38.2221 0.5 36.229 0.5 33.7776V7.11095Z" fill="#6BDBE3"/>
</g>
<defs>
<clipPath id="clip0_146_4481">
<rect width="40" height="40" fill="white" transform="translate(0.5 0.666504)"/>
</clipPath>
</defs>
</svg>
