<svg width="41" height="41" viewBox="0 0 41 41" fill="none" xmlns="http://www.w3.org/2000/svg">
<g clip-path="url(#clip0_146_4503)">
<path d="M31.5 36.6665C33.8869 36.6665 36.1761 35.7183 37.864 34.0305C39.5518 32.3426 40.5 30.0535 40.5 27.6665C40.5 25.2796 39.5518 22.9904 37.864 21.3025C36.1761 19.6147 33.8869 18.6665 31.5 18.6665C29.1131 18.6665 26.8239 19.6147 25.136 21.3025C23.4482 22.9904 22.5 25.2796 22.5 27.6665C22.5 30.0535 23.4482 32.3426 25.136 34.0305C26.8239 35.7183 29.1131 36.6665 31.5 36.6665ZM35.7062 26.3728L31.2062 30.8728C30.8187 31.2603 30.1813 31.2603 29.7938 30.8728L27.2938 28.3728C26.9063 27.9853 26.9063 27.3478 27.2938 26.9603C27.6813 26.5728 28.3187 26.5728 28.7062 26.9603L30.5 28.754L34.2938 24.9603C34.6813 24.5728 35.3187 24.5728 35.7062 24.9603C36.0937 25.3478 36.0937 25.9853 35.7062 26.3728Z" fill="#3B47C2"/>
<path opacity="0.8" d="M21.4999 6.6665V14.6665H22.4999C23.6061 14.6665 24.4999 15.5603 24.4999 16.6665C24.4999 17.7728 23.6061 18.6665 22.4999 18.6665H19.4999H16.4999C15.3936 18.6665 14.4999 17.7728 14.4999 16.6665C14.4999 15.5603 15.3936 14.6665 16.4999 14.6665H17.4999V9.4415L17.1311 9.5665C16.0811 9.9165 14.9499 9.34775 14.5999 8.304C14.2499 7.26025 14.8186 6.12275 15.8624 5.77275L18.8624 4.77275C19.4749 4.5665 20.1499 4.6665 20.6686 5.0415C21.1874 5.4165 21.4999 6.02275 21.4999 6.6665ZM7.49988 24.6665V32.6665H8.49988C9.60613 32.6665 10.4999 33.5603 10.4999 34.6665C10.4999 35.7728 9.60613 36.6665 8.49988 36.6665H5.49988H2.49988C1.39363 36.6665 0.499882 35.7728 0.499882 34.6665C0.499882 33.5603 1.39363 32.6665 2.49988 32.6665H3.49988V27.4415L3.13113 27.5665C2.08113 27.9165 0.949882 27.3478 0.599882 26.304C0.249882 25.2603 0.818632 24.1228 1.86238 23.7728L4.86238 22.7728C5.47488 22.5665 6.14363 22.6728 6.66238 23.0478C7.18113 23.4228 7.49363 24.029 7.49363 24.6728L7.49988 24.6665ZM0.499882 8.6665C0.499882 6.46025 2.29363 4.6665 4.49988 4.6665H8.49988C10.7061 4.6665 12.4999 6.46025 12.4999 8.6665V14.6665C12.4999 16.8728 10.7061 18.6665 8.49988 18.6665H4.49988C2.29363 18.6665 0.499882 16.8728 0.499882 14.6665V8.6665ZM8.49988 8.6665H4.49988V14.6665H8.49988V8.6665ZM16.4999 22.6665H20.4999C20.8874 22.6665 21.2624 22.7228 21.6186 22.8228C20.9186 24.254 20.5186 25.8603 20.4999 27.554V26.6665H16.4999V32.6665H20.4999H21.6999C22.1874 33.6228 22.8124 34.4978 23.5436 35.2603C22.8124 36.1228 21.7186 36.6665 20.4999 36.6665H16.4999C14.2936 36.6665 12.4999 34.8728 12.4999 32.6665V26.6665C12.4999 24.4603 14.2936 22.6665 16.4999 22.6665ZM20.4999 28.6665V27.779C20.4999 28.079 20.5186 28.3728 20.5436 28.6665H20.4999Z" fill="#6BDBE3"/>
</g>
<defs>
<clipPath id="clip0_146_4503">
<rect width="40" height="40" fill="white" transform="translate(0.5 0.666504)"/>
</clipPath>
</defs>
</svg>
