<svg width="169" height="72" viewBox="0 0 169 72" fill="none" xmlns="http://www.w3.org/2000/svg">
<g clip-path="url(#clip0_149_9041)">
<path d="M33.9954 21.1944H48.8008V18H33.9954V21.1944ZM101.647 38.3069H91.2913V27.6903H101.647C105.336 27.6903 107.815 29.8238 107.815 32.9988C107.815 36.1737 105.336 38.3069 101.647 38.3069ZM105.077 40.7901C108.629 39.777 110.924 36.7187 110.924 32.9988C110.924 28.1704 107.196 24.9262 101.646 24.9262H88.1835V53.4623H91.2914V41.1142H101.824L108.53 53.4621H111.893L104.901 40.84L105.077 40.7901ZM72.045 54C79.6669 54 84.99 48.6461 84.99 40.9799V24.9263H81.7957V40.7646C81.7957 46.6767 77.7861 50.8058 72.045 50.8058C67.2864 50.8058 62.1649 47.6636 62.1649 40.7646V24.9263H58.9711V40.9801C58.9711 48.6461 64.3472 53.9999 72.0452 53.9999M127.82 28.6491L134.556 43.384H121.04L127.82 28.6491ZM126.321 24.9265L113.275 53.4624H116.611L119.838 46.1478H135.758L138.985 53.4624H142.321L129.275 24.9262L126.321 24.9265ZM41.4011 24.3887C33.2374 24.3887 26.5957 31.0304 26.5957 39.1941C26.5957 47.3582 33.2374 53.9999 41.4011 53.9999C49.5651 53.9999 56.2069 47.3582 56.2069 39.1941C56.2069 31.0304 49.5651 24.3887 41.4011 24.3887ZM41.4011 50.8056C34.9986 50.8056 29.7897 45.5966 29.7897 39.1941C29.7897 32.7918 34.9987 27.583 41.4012 27.583C47.8038 27.583 53.013 32.7918 53.013 39.1941C53.013 45.5966 47.8038 50.8056 41.4012 50.8056" fill="black"/>
</g>
<defs>
<clipPath id="clip0_149_9041">
<rect width="115.726" height="36" fill="white" transform="translate(26.5957 18)"/>
</clipPath>
</defs>
</svg>
