<svg width="41" height="41" viewBox="0 0 41 41" fill="none" xmlns="http://www.w3.org/2000/svg">
<g clip-path="url(#clip0_146_4488)">
<path d="M10.5 33.1665C10.5 32.5035 10.7634 31.8676 11.2322 31.3987C11.7011 30.9299 12.337 30.6665 13 30.6665C13.663 30.6665 14.2989 30.9299 14.7678 31.3987C15.2366 31.8676 15.5 32.5035 15.5 33.1665C15.5 33.8295 15.2366 34.4654 14.7678 34.9343C14.2989 35.4031 13.663 35.6665 13 35.6665C12.337 35.6665 11.7011 35.4031 11.2322 34.9343C10.7634 34.4654 10.5 33.8295 10.5 33.1665ZM19.25 33.1665C19.25 31.5089 18.5915 29.9192 17.4194 28.7471C16.2473 27.575 14.6576 26.9165 13 26.9165C11.3424 26.9165 9.75269 27.575 8.58058 28.7471C7.40848 29.9192 6.75 31.5089 6.75 33.1665C6.75 34.8241 7.40848 36.4138 8.58058 37.5859C9.75269 38.758 11.3424 39.4165 13 39.4165C14.6576 39.4165 16.2473 38.758 17.4194 37.5859C18.5915 36.4138 19.25 34.8241 19.25 33.1665ZM25.5 20.6665C25.5 20.0035 25.7634 19.3676 26.2322 18.8987C26.7011 18.4299 27.337 18.1665 28 18.1665C28.663 18.1665 29.2989 18.4299 29.7678 18.8987C30.2366 19.3676 30.5 20.0035 30.5 20.6665C30.5 21.3295 30.2366 21.9654 29.7678 22.4343C29.2989 22.9031 28.663 23.1665 28 23.1665C27.337 23.1665 26.7011 22.9031 26.2322 22.4343C25.7634 21.9654 25.5 21.3295 25.5 20.6665ZM34.25 20.6665C34.25 19.0089 33.5915 17.4192 32.4194 16.2471C31.2473 15.075 29.6576 14.4165 28 14.4165C26.3424 14.4165 24.7527 15.075 23.5806 16.2471C22.4085 17.4192 21.75 19.0089 21.75 20.6665C21.75 22.3241 22.4085 23.9138 23.5806 25.0859C24.7527 26.258 26.3424 26.9165 28 26.9165C29.6576 26.9165 31.2473 26.258 32.4194 25.0859C33.5915 23.9138 34.25 22.3241 34.25 20.6665ZM15.5 10.6665C14.837 10.6665 14.2011 10.4031 13.7322 9.93427C13.2634 9.46543 13 8.82955 13 8.1665C13 7.50346 13.2634 6.86758 13.7322 6.39874C14.2011 5.9299 14.837 5.6665 15.5 5.6665C16.163 5.6665 16.7989 5.9299 17.2678 6.39874C17.7366 6.86758 18 7.50346 18 8.1665C18 8.82955 17.7366 9.46543 17.2678 9.93427C16.7989 10.4031 16.163 10.6665 15.5 10.6665ZM15.5 1.9165C13.8424 1.9165 12.2527 2.57498 11.0806 3.74709C9.90848 4.91919 9.25 6.5089 9.25 8.1665C9.25 9.82411 9.90848 11.4138 11.0806 12.5859C12.2527 13.758 13.8424 14.4165 15.5 14.4165C17.1576 14.4165 18.7473 13.758 19.9194 12.5859C21.0915 11.4138 21.75 9.82411 21.75 8.1665C21.75 6.5089 21.0915 4.91919 19.9194 3.74709C18.7473 2.57498 17.1576 1.9165 15.5 1.9165Z" fill="#3B47C2"/>
<path opacity="0.8" d="M0.5 33.1665C0.5 31.7837 1.61719 30.6665 3 30.6665H7.27344C6.9375 31.4321 6.75 32.2759 6.75 33.1665C6.75 34.0571 6.9375 34.9009 7.27344 35.6665H3C1.61719 35.6665 0.5 34.5493 0.5 33.1665ZM18.7266 35.6665C19.0625 34.9009 19.25 34.0571 19.25 33.1665C19.25 32.2759 19.0625 31.4321 18.7266 30.6665H38C39.3828 30.6665 40.5 31.7837 40.5 33.1665C40.5 34.5493 39.3828 35.6665 38 35.6665H18.7266ZM0.5 20.6665C0.5 19.2837 1.61719 18.1665 3 18.1665H22.2734C21.9375 18.9321 21.75 19.7759 21.75 20.6665C21.75 21.5571 21.9375 22.4009 22.2734 23.1665H3C1.61719 23.1665 0.5 22.0493 0.5 20.6665ZM33.7266 23.1665C34.0625 22.4009 34.25 21.5571 34.25 20.6665C34.25 19.7759 34.0625 18.9321 33.7266 18.1665H38C39.3828 18.1665 40.5 19.2837 40.5 20.6665C40.5 22.0493 39.3828 23.1665 38 23.1665H33.7266ZM3 5.6665H9.77344C9.4375 6.43213 9.25 7.27588 9.25 8.1665C9.25 9.05713 9.4375 9.90088 9.77344 10.6665H3C1.61719 10.6665 0.5 9.54932 0.5 8.1665C0.5 6.78369 1.61719 5.6665 3 5.6665ZM21.2266 10.6665C21.5625 9.90088 21.75 9.05713 21.75 8.1665C21.75 7.27588 21.5625 6.43213 21.2266 5.6665H38C39.3828 5.6665 40.5 6.78369 40.5 8.1665C40.5 9.54932 39.3828 10.6665 38 10.6665H21.2266Z" fill="#6BDBE3"/>
</g>
<defs>
<clipPath id="clip0_146_4488">
<rect width="40" height="40" fill="white" transform="translate(0.5 0.666504)"/>
</clipPath>
</defs>
</svg>
