<svg width="41" height="41" viewBox="0 0 41 41" fill="none" xmlns="http://www.w3.org/2000/svg">
<g clip-path="url(#clip0_149_9719)">
<path d="M9.55621 4.95953C9.55621 3.73036 10.5493 2.7373 11.7784 2.7373H20.6673C21.8965 2.7373 22.8895 3.73036 22.8895 4.95953V13.8484C22.8895 15.0776 21.8965 16.0706 20.6673 16.0706C19.4382 16.0706 18.4451 15.0776 18.4451 13.8484V10.3276L4.45898 24.3068C3.59093 25.1748 2.18121 25.1748 1.31315 24.3068C0.445095 23.4387 0.445095 22.029 1.31315 21.1609L15.2993 7.18175H11.7784C10.5493 7.18175 9.55621 6.18869 9.55621 4.95953Z" fill="#3B47C2"/>
<path opacity="0.8" d="M37.334 11.6261C38.218 11.6261 39.0659 11.275 39.691 10.6498C40.3161 10.0247 40.6673 9.17686 40.6673 8.29281C40.6673 7.40875 40.3161 6.5609 39.691 5.93578C39.0659 5.31066 38.218 4.95947 37.334 4.95947C36.4499 4.95947 35.6021 5.31066 34.977 5.93578C34.3518 6.5609 34.0007 7.40875 34.0006 8.29281C34.0007 9.17686 34.3518 10.0247 34.977 10.6498C35.6021 11.275 36.4499 11.6261 37.334 11.6261ZM28.4451 20.515C29.3291 20.515 30.177 20.1638 30.8021 19.5387C31.4272 18.9136 31.7784 18.0658 31.7784 17.1817C31.7784 16.2976 31.4272 15.4498 30.8021 14.8247C30.177 14.1996 29.3291 13.8484 28.4451 13.8484C27.561 13.8484 26.7132 14.1996 26.0881 14.8247C25.4629 15.4498 25.1118 16.2976 25.1118 17.1817C25.1118 18.0658 25.4629 18.9136 26.0881 19.5387C26.7132 20.1638 27.561 20.515 28.4451 20.515ZM31.7784 26.0706C31.7784 25.6328 31.6922 25.1994 31.5247 24.795C31.3572 24.3906 31.1116 24.0231 30.8021 23.7136C30.4926 23.404 30.1251 23.1585 29.7207 22.991C29.3163 22.8235 28.8828 22.7373 28.4451 22.7373C28.0074 22.7373 27.5739 22.8235 27.1695 22.991C26.7651 23.1585 26.3976 23.404 26.0881 23.7136C25.7785 24.0231 25.533 24.3906 25.3655 24.795C25.198 25.1994 25.1118 25.6328 25.1118 26.0706C25.1118 26.5083 25.198 26.9418 25.3655 27.3462C25.533 27.7506 25.7785 28.1181 26.0881 28.4276C26.3976 28.7371 26.7651 28.9827 27.1695 29.1502C27.5739 29.3177 28.0074 29.4039 28.4451 29.4039C28.8828 29.4039 29.3163 29.3177 29.7207 29.1502C30.1251 28.9827 30.4926 28.7371 30.8021 28.4276C31.1116 28.1181 31.3572 27.7506 31.5247 27.3462C31.6922 26.9418 31.7784 26.5083 31.7784 26.0706ZM28.4451 38.2928C29.3291 38.2928 30.177 37.9416 30.8021 37.3165C31.4272 36.6914 31.7784 35.8435 31.7784 34.9595C31.7784 34.0754 31.4272 33.2276 30.8021 32.6025C30.177 31.9773 29.3291 31.6261 28.4451 31.6261C27.561 31.6261 26.7132 31.9773 26.0881 32.6025C25.4629 33.2276 25.1118 34.0754 25.1118 34.9595C25.1118 35.8435 25.4629 36.6914 26.0881 37.3165C26.7132 37.9416 27.561 38.2928 28.4451 38.2928ZM37.334 38.2928C38.218 38.2928 39.0659 37.9416 39.691 37.3165C40.3161 36.6914 40.6673 35.8435 40.6673 34.9595C40.6673 34.0754 40.3161 33.2276 39.691 32.6025C39.0659 31.9773 38.218 31.6261 37.334 31.6261C36.4499 31.6261 35.6021 31.9773 34.977 32.6025C34.3518 33.2276 34.0007 34.0754 34.0006 34.9595C34.0007 35.8435 34.3518 36.6914 34.977 37.3165C35.6021 37.9416 36.4499 38.2928 37.334 38.2928ZM22.8895 26.0706C22.8895 25.1865 22.5384 24.3387 21.9132 23.7136C21.2881 23.0884 20.4403 22.7373 19.5562 22.7373C18.6722 22.7373 17.8243 23.0884 17.1992 23.7136C16.5741 24.3387 16.2229 25.1865 16.2229 26.0706C16.2229 26.9546 16.5741 27.8025 17.1992 28.4276C17.8243 29.0527 18.6722 29.4039 19.5562 29.4039C20.4403 29.4039 21.2881 29.0527 21.9132 28.4276C22.5384 27.8025 22.8895 26.9546 22.8895 26.0706ZM19.5562 38.2928C20.4403 38.2928 21.2881 37.9416 21.9132 37.3165C22.5384 36.6914 22.8895 35.8435 22.8895 34.9595C22.8895 34.0754 22.5384 33.2276 21.9132 32.6025C21.2881 31.9773 20.4403 31.6261 19.5562 31.6261C18.6722 31.6261 17.8243 31.9773 17.1992 32.6025C16.5741 33.2276 16.2229 34.0754 16.2229 34.9595C16.2229 35.8435 16.5741 36.6914 17.1992 37.3165C17.8243 37.9416 18.6722 38.2928 19.5562 38.2928ZM14.0007 34.9595C14.0007 34.0754 13.6495 33.2276 13.0243 32.6025C12.3992 31.9773 11.5514 31.6261 10.6673 31.6261C9.78326 31.6261 8.93542 31.9773 8.3103 32.6025C7.68517 33.2276 7.33398 34.0754 7.33398 34.9595C7.33398 35.8435 7.68517 36.6914 8.3103 37.3165C8.93542 37.9416 9.78326 38.2928 10.6673 38.2928C11.5514 38.2928 12.3992 37.9416 13.0243 37.3165C13.6495 36.6914 14.0007 35.8435 14.0007 34.9595ZM37.334 29.4039C38.218 29.4039 39.0659 29.0527 39.691 28.4276C40.3161 27.8025 40.6673 26.9546 40.6673 26.0706C40.6673 25.1865 40.3161 24.3387 39.691 23.7136C39.0659 23.0884 38.218 22.7373 37.334 22.7373C36.4499 22.7373 35.6021 23.0884 34.977 23.7136C34.3518 24.3387 34.0007 25.1865 34.0006 26.0706C34.0007 26.9546 34.3518 27.8025 34.977 28.4276C35.6021 29.0527 36.4499 29.4039 37.334 29.4039ZM40.6673 17.1817C40.6673 16.2976 40.3161 15.4498 39.691 14.8247C39.0659 14.1996 38.218 13.8484 37.334 13.8484C36.4499 13.8484 35.6021 14.1996 34.977 14.8247C34.3518 15.4498 34.0007 16.2976 34.0006 17.1817C34.0007 18.0658 34.3518 18.9136 34.977 19.5387C35.6021 20.1638 36.4499 20.515 37.334 20.515C38.218 20.515 39.0659 20.1638 39.691 19.5387C40.3161 18.9136 40.6673 18.0658 40.6673 17.1817Z" fill="#6BDBE3"/>
</g>
<defs>
<clipPath id="clip0_149_9719">
<rect width="40" height="40" fill="white" transform="translate(0.666992 0.737305)"/>
</clipPath>
</defs>
</svg>
