<svg width="41" height="41" viewBox="0 0 41 41" fill="none" xmlns="http://www.w3.org/2000/svg">
<g clip-path="url(#clip0_209_6709)">
<path d="M29.1611 14.4092C29.8955 15.1436 29.8955 16.3311 29.1611 17.0576L19.1611 27.0654C18.4268 27.7998 17.2393 27.7998 16.5127 27.0654L11.5127 22.0654C10.7783 21.3311 10.7783 20.1436 11.5127 19.417C12.2471 18.6904 13.4346 18.6826 14.1611 19.417L17.833 23.0889L26.5049 14.4092C27.2393 13.6748 28.4268 13.6748 29.1533 14.4092H29.1611Z" fill="#3B47C2"/>
<path opacity="0.8" d="M20.333 0.737305C23.208 0.737305 25.708 2.35449 26.9658 4.72949C29.5361 3.94043 32.4424 4.56543 34.4736 6.59668C36.5049 8.62793 37.1299 11.542 36.3408 14.1045C38.7158 15.3623 40.333 17.8623 40.333 20.7373C40.333 23.6123 38.7158 26.1123 36.3408 27.3701C37.1299 29.9404 36.5049 32.8467 34.4736 34.8779C32.4424 36.9092 29.5283 37.5342 26.9658 36.7451C25.708 39.1201 23.208 40.7373 20.333 40.7373C17.458 40.7373 14.958 39.1201 13.7002 36.7451C11.1299 37.5342 8.22363 36.9092 6.19238 34.8779C4.16113 32.8467 3.53613 29.9326 4.3252 27.3701C1.9502 26.1123 0.333008 23.6123 0.333008 20.7373C0.333008 17.8623 1.9502 15.3623 4.3252 14.1045C3.53613 11.5342 4.16113 8.62793 6.19238 6.59668C8.22363 4.56543 11.1377 3.94043 13.7002 4.72949C14.958 2.35449 17.458 0.737305 20.333 0.737305ZM29.1611 17.0654C29.8955 16.3311 29.8955 15.1436 29.1611 14.417C28.4268 13.6904 27.2393 13.6826 26.5127 14.417L17.8408 23.0889L14.1689 19.417C13.4346 18.6826 12.2471 18.6826 11.5205 19.417C10.7939 20.1514 10.7861 21.3389 11.5205 22.0654L16.5205 27.0654C17.2549 27.7998 18.4424 27.7998 19.1689 27.0654L29.1611 17.0654Z" fill="#6BDBE3"/>
</g>
<defs>
<clipPath id="clip0_209_6709">
<rect width="40" height="40" fill="white" transform="translate(0.333008 0.737305)"/>
</clipPath>
</defs>
</svg>
