<svg width="550" height="161" viewBox="0 0 550 161" fill="none" xmlns="http://www.w3.org/2000/svg">
<ellipse opacity="0.5" cx="17.436" cy="17.436" rx="17.436" ry="17.436" transform="matrix(-1 0 0 1 157.949 42.4429)" fill="#8A9AFB"/>
<ellipse cx="17.436" cy="17.436" rx="17.436" ry="17.436" transform="matrix(-1 0 0 1 157.949 125.862)" fill="#A7E5E5"/>
<ellipse cx="16.7522" cy="17.436" rx="16.7522" ry="17.436" transform="matrix(-1 0 0 1 75.2139 42.4429)" fill="#A7E5E5"/>
<ellipse opacity="0.5" cx="16.7522" cy="17.436" rx="16.7522" ry="17.436" transform="matrix(-1 0 0 1 75.2139 125.862)" fill="#8A9AFB"/>
<ellipse opacity="0.5" cx="17.436" cy="17.436" rx="17.436" ry="17.436" transform="matrix(-1 0 0 1 157.949 0.733887)" fill="#8A9AFB"/>
<ellipse cx="17.436" cy="17.436" rx="17.436" ry="17.436" transform="matrix(-1 0 0 1 157.949 84.1523)" fill="#A7E5E5"/>
<ellipse cx="16.7522" cy="17.436" rx="16.7522" ry="17.436" transform="matrix(-1 0 0 1 75.2139 0.733887)" fill="#A7E5E5"/>
<ellipse opacity="0.5" cx="16.7522" cy="17.436" rx="16.7522" ry="17.436" transform="matrix(-1 0 0 1 75.2139 84.1523)" fill="#8A9AFB"/>
<ellipse opacity="0.5" cx="17.0941" cy="17.436" rx="17.0941" ry="17.436" transform="matrix(-1 0 0 1 116.24 0.733887)" fill="#8A9AFB"/>
<ellipse cx="17.0941" cy="17.436" rx="17.0941" ry="17.436" transform="matrix(-1 0 0 1 116.24 84.1523)" fill="#A7E5E5"/>
<ellipse cx="17.436" cy="17.436" rx="17.436" ry="17.436" transform="matrix(-1 0 0 1 34.8721 0.733887)" fill="#A7E5E5"/>
<ellipse opacity="0.5" cx="17.436" cy="17.436" rx="17.436" ry="17.436" transform="matrix(-1 0 0 1 34.8721 84.1523)" fill="#8A9AFB"/>
<ellipse opacity="0.5" cx="17.0941" cy="17.436" rx="17.0941" ry="17.436" transform="matrix(-1 0 0 1 116.24 42.4429)" fill="#8A9AFB"/>
<ellipse cx="17.0941" cy="17.436" rx="17.0941" ry="17.436" transform="matrix(-1 0 0 1 116.24 125.862)" fill="#A7E5E5"/>
<ellipse cx="17.436" cy="17.436" rx="17.436" ry="17.436" transform="matrix(-1 0 0 1 34.8721 42.4429)" fill="#A7E5E5"/>
<ellipse opacity="0.5" cx="17.436" cy="17.436" rx="17.436" ry="17.436" transform="matrix(-1 0 0 1 34.8721 125.862)" fill="#8A9AFB"/>
<ellipse cx="36.5219" cy="36.5219" rx="36.5219" ry="36.5219" transform="matrix(-1 0 0 1 353.807 87.2891)" fill="#A7E5E5"/>
<ellipse opacity="0.5" cx="36.5219" cy="36.834" rx="36.5219" ry="36.834" transform="matrix(-1 0 0 1 353.807 1.13477)" fill="#8A9AFB"/>
<ellipse cx="36.2097" cy="36.834" rx="36.2097" ry="36.834" transform="matrix(-1 0 0 1 268.276 1.13477)" fill="#A7E5E5"/>
<ellipse opacity="0.5" cx="36.2097" cy="36.5219" rx="36.2097" ry="36.5219" transform="matrix(-1 0 0 1 268.276 87.2891)" fill="#8A9AFB"/>
<ellipse cx="78.9746" cy="78.9747" rx="78.9746" ry="78.9747" transform="matrix(-1 0 0 1 549.663 1.75928)" fill="#A7E5E5"/>
</svg>
