<svg width="150" height="64" viewBox="0 0 150 64" fill="none" xmlns="http://www.w3.org/2000/svg">
<g clip-path="url(#clip0_129_3859)">
<path d="M91.642 23.398V42.1005H96.9199V23.398H91.642ZM50.1162 23.3663V42.0846H55.4417V27.5506L59.5942 27.5665C60.9573 27.5665 61.9083 27.8993 62.5581 28.5967C63.3981 29.4843 63.731 30.9266 63.731 33.5417V42.0846H68.8979V31.7507C68.8979 24.3649 64.1906 23.3663 59.5942 23.3663H50.1162ZM100.153 23.398V42.1005H108.712C113.277 42.1005 114.766 41.3397 116.367 39.6438C117.508 38.4551 118.238 35.8241 118.238 32.9553C118.238 30.3243 117.619 27.9785 116.526 26.5204C114.592 23.9052 111.771 23.398 107.555 23.398H100.153ZM105.384 27.4555H107.65C110.947 27.4555 113.071 28.9295 113.071 32.7651C113.071 36.6007 110.947 38.0906 107.65 38.0906H105.384V27.4555ZM84.0342 23.398L79.628 38.2173L75.4121 23.398H69.7062L75.7291 42.1005H83.3368L89.4231 23.398H84.0342ZM120.71 42.1005H125.988V23.398H120.71V42.1005ZM135.513 23.398L128.143 42.0846H133.342L134.515 38.7721H143.232L144.342 42.0688H150L142.567 23.398H135.513ZM138.937 26.8057L142.139 35.5546H135.64L138.937 26.8057Z" fill="black"/>
<path d="M16.0556 26.5046V23.9369C16.3092 23.9211 16.5628 23.9052 16.8164 23.9052C23.8535 23.6834 28.4658 29.9598 28.4658 29.9598C28.4658 29.9598 23.489 36.8702 18.1477 36.8702C17.4345 36.8702 16.7371 36.7592 16.0714 36.5373V28.7394C18.8134 29.0722 19.3681 30.2768 21.0006 33.0187L24.6619 29.9439C24.6619 29.9439 21.9833 26.4412 17.482 26.4412C17.0066 26.4253 16.5311 26.457 16.0556 26.5046ZM16.0556 18.0092V21.8448L16.8164 21.7973C26.5955 21.4644 32.9829 29.8171 32.9829 29.8171C32.9829 29.8171 25.6604 38.7246 18.0368 38.7246C17.3711 38.7246 16.7213 38.6612 16.0714 38.5502V40.9276C16.6103 40.991 17.165 41.0386 17.7039 41.0386C24.8045 41.0386 29.9398 37.409 34.9165 33.1297C35.7407 33.7954 39.1166 35.3962 39.814 36.0935C35.0909 40.0559 24.0754 43.2417 17.8307 43.2417C17.2284 43.2417 16.6579 43.21 16.0873 43.1466V46.4908H43.0632V18.0092H16.0556ZM16.0556 36.5373V38.5661C9.49387 37.3932 7.67117 30.562 7.67117 30.562C7.67117 30.562 10.8252 27.0752 16.0556 26.5046V28.7235H16.0397C13.2978 28.3907 11.1422 30.9583 11.1422 30.9583C11.1422 30.9583 12.3626 35.2852 16.0556 36.5373ZM4.40617 30.2768C4.40617 30.2768 8.28931 24.5392 16.0714 23.9369V21.8448C7.44928 22.5422 0 29.833 0 29.833C0 29.833 4.21598 42.0371 16.0556 43.1466V40.9276C7.37003 39.8499 4.40617 30.2768 4.40617 30.2768Z" fill="#76B900"/>
</g>
<defs>
<clipPath id="clip0_129_3859">
<rect width="150" height="28.5" fill="white" transform="translate(0 18)"/>
</clipPath>
</defs>
</svg>
