<svg width="150" height="64" viewBox="0 0 150 64" fill="none" xmlns="http://www.w3.org/2000/svg">
<g clip-path="url(#clip0_129_3838)">
<path opacity="0.6" d="M80.8501 2.19721C80.8501 2.19721 80.8008 2.19721 80.8008 2.24651C80.7022 2.29581 80.6529 2.34511 80.5543 2.34511L72.9126 6.73295L81.7869 11.8603V2C81.4911 2 81.146 2.0986 80.8501 2.19721Z" fill="#00A9CE"/>
<path opacity="0.8" d="M65.2217 33.1093L73.3071 28.4256L64.4329 23.2983V33.3065C64.6794 33.3558 64.9259 33.2572 65.2217 33.1093Z" fill="#00A9CE"/>
<path opacity="0.5" d="M90.8584 27.8833L72.6661 17.3821L71.828 16.889L55.4106 7.37384C55.312 7.66965 55.2134 7.96546 55.2134 8.31057C55.2134 8.35987 55.2134 8.45847 55.2134 8.50778V27.341C55.2134 27.9326 55.5585 28.4749 56.0515 28.7707L63.5453 33.1586C63.7918 33.3065 64.0877 33.3558 64.3835 33.3558V23.742V23.3475L81.3925 33.1586C81.4418 33.2079 81.4911 33.2079 81.5404 33.2079H81.5897C82.0827 33.4051 82.4771 33.2572 82.9208 32.9614L85.7803 31.3344L90.3161 28.6228C90.5626 28.4749 90.7598 28.1791 90.8584 27.8833Z" fill="#00A9CE"/>
<path d="M90.957 15.4593V8.3106C90.957 7.37387 90.464 6.53574 89.6752 6.09203L83.0688 2.29581C82.6744 2.0986 82.2307 2 81.787 2V11.9096L66.9472 3.28184L65.2709 2.34511C64.5314 1.9507 63.8905 1.9014 63.151 2.24651C63.151 2.24651 63.1017 2.24651 63.1017 2.29581C63.0031 2.34511 62.9538 2.39441 62.8552 2.44371L60.2422 3.97206L56.4953 6.14133C56.0022 6.43714 55.6078 6.88085 55.3613 7.42317L71.7787 16.8891L72.6169 17.3821L90.8091 27.8833C90.9077 27.5382 90.9077 26.9466 90.9077 26.9466V15.4593H90.957Z" fill="#00A9CE"/>
<path d="M53.981 61.9014H53.1429L52.6991 59.0419L51.861 61.2605H51.3187L50.4806 59.0419L50.0369 61.9014H49.1987L49.9876 57.4642H50.5792L51.5652 59.9786L52.5512 57.4642H53.1429L53.981 61.9014Z" fill="black"/>
<path d="M50.3327 54.309H48.3113L42.4444 46.1249V54.3583H40.2751V42.378H42.2965L48.1141 50.6114V42.378H50.2834L50.3327 54.309Z" fill="black"/>
<path d="M65.0245 48.3435C65.0245 52.0411 62.313 54.6047 58.7632 54.6047C55.2135 54.6047 52.502 52.0904 52.502 48.3435C52.502 44.6458 55.2135 42.0822 58.7632 42.0822C62.313 42.0822 65.0245 44.6458 65.0245 48.3435ZM54.9177 48.3435C54.9177 50.7099 56.5447 52.3369 58.7632 52.3369C61.0311 52.3369 62.6088 50.7099 62.6088 48.3435C62.6088 45.977 60.9818 44.35 58.7632 44.35C56.5447 44.35 54.9177 45.977 54.9177 48.3435Z" fill="black"/>
<path d="M70.3983 49.5267H69.5601V54.309H67.3909V42.3287H71.7787C74.1452 42.3287 75.6242 43.8077 75.6242 45.977C75.6242 47.7518 74.5889 49.083 72.814 49.4281L76.3638 54.309H73.6029L70.3983 49.5267ZM69.6094 47.6039H71.4829C72.7647 47.6039 73.3564 47.0123 73.3564 45.977C73.3564 44.991 72.7647 44.35 71.4829 44.35H69.6094V47.6039Z" fill="black"/>
<path d="M88.3441 48.3435C88.3441 52.0904 85.7312 54.309 82.1321 54.309H78.2866V42.3287H82.1321C85.7312 42.3287 88.3441 44.5965 88.3441 48.3435ZM80.5052 44.35V52.2876H82.2307C84.4 52.2876 85.9777 50.9071 85.9777 48.3435C85.9777 45.7798 84.3507 44.3993 82.2307 44.3993L80.5052 44.35Z" fill="black"/>
<path d="M92.8797 54.309H90.6611V42.3287H92.8797V54.309Z" fill="black"/>
<path d="M95.2463 48.3435C95.2463 44.5472 97.9086 42.0822 101.705 42.0822C103.529 42.0822 104.909 42.6245 105.994 43.4133L104.712 45.3361C103.973 44.843 102.987 44.35 101.705 44.35C99.3877 44.35 97.6621 45.9277 97.6621 48.3435C97.6621 50.8085 99.3877 52.3369 101.705 52.3369C102.987 52.3369 103.973 51.8439 104.712 51.3508L105.994 53.2736C104.909 54.0131 103.578 54.6047 101.705 54.6047C97.9579 54.5554 95.2463 52.0904 95.2463 48.3435Z" fill="black"/>
<path d="M39.9792 61.5563L40.3244 60.8168C40.6695 61.014 41.1132 61.2112 41.5076 61.2112C41.902 61.2112 42.1485 61.014 42.1485 60.7675C42.1485 60.521 42.0006 60.3731 41.7048 60.1758L40.9653 59.6828C40.4723 59.3377 40.2751 58.9926 40.2751 58.4996C40.2751 57.8094 40.7681 57.3657 41.6062 57.3657C42.0499 57.3657 42.4936 57.4643 42.888 57.6615L42.5429 58.401C42.1978 58.2531 41.902 58.1052 41.6062 58.1052C41.2611 58.1052 41.1625 58.2531 41.1625 58.4503C41.1625 58.5982 41.2611 58.7461 41.5076 58.894L42.2964 59.4363C42.7894 59.7814 43.0359 60.1265 43.0359 60.6689C43.0359 61.507 42.4443 61.9507 41.5076 61.9507C40.916 62 40.3737 61.8521 39.9792 61.5563Z" fill="black"/>
<path d="M47.4731 61.1619V61.9014H44.8108V57.4642H47.4238V58.2038H45.5996V59.0912H47.2759V59.8307H45.5996V61.1125H47.4731V61.1619Z" fill="black"/>
<path d="M56.594 61.9014H55.7559V57.4642H56.594V61.9014Z" fill="black"/>
<path d="M56.594 61.9014H55.7559V57.4642H56.594V61.9014Z" fill="black"/>
<path d="M58.27 59.6828C58.27 58.3024 59.2561 57.3657 60.6858 57.3657C61.376 57.3657 61.869 57.5629 62.2634 57.8587L61.8197 58.5489C61.5239 58.3517 61.1788 58.2038 60.6858 58.2038C59.8477 58.2038 59.2067 58.7954 59.2067 59.6828C59.2067 60.5703 59.8477 61.1619 60.6858 61.1619C61.1788 61.1619 61.5239 60.9647 61.8197 60.8168L62.2634 61.507C61.869 61.8028 61.376 62 60.6858 62C59.2561 62 58.27 61.1126 58.27 59.6828Z" fill="black"/>
<path d="M68.2291 59.6828C68.2291 61.0633 67.243 62 65.9119 62C64.5808 62 63.5947 61.0633 63.5947 59.6828C63.5947 58.3024 64.5808 57.3657 65.9119 57.3657C67.1937 57.3657 68.2291 58.3024 68.2291 59.6828ZM64.4822 59.6828C64.4822 60.5703 65.0738 61.1619 65.9119 61.1619C66.75 61.1619 67.3416 60.5703 67.3416 59.6828C67.3416 58.7954 66.75 58.2038 65.9119 58.2038C65.0738 58.2038 64.4822 58.7954 64.4822 59.6828Z" fill="black"/>
<path d="M73.6522 61.9014H72.9127L70.7434 58.8447V61.9014H69.9546V57.4642H70.6941L72.8634 60.5209V57.4642H73.6522V61.9014Z" fill="black"/>
<path d="M79.3712 59.6828C79.3712 61.0632 78.3852 61.9014 77.054 61.9014H75.6243V57.4642H77.054C78.3852 57.4642 79.3712 58.3024 79.3712 59.6828ZM76.4624 58.2038V61.1619H77.1033C77.8921 61.1619 78.4838 60.6688 78.4838 59.6828C78.4838 58.7461 77.8921 58.2038 77.1033 58.2038H76.4624Z" fill="black"/>
<path d="M84.6957 60.1265C84.6957 61.2605 84.0548 61.9507 82.8715 61.9507C81.6883 61.9507 81.0474 61.2112 81.0474 60.1265V57.4642H81.8855V60.0772C81.8855 60.7181 82.2799 61.1125 82.8715 61.1125C83.4631 61.1125 83.8575 60.7181 83.8575 60.0772V57.4642H84.6957V60.1265Z" fill="black"/>
<path d="M86.3721 59.6828C86.3721 58.3024 87.3581 57.3657 88.7878 57.3657C89.4781 57.3657 89.9711 57.5629 90.3655 57.8587L89.9218 58.5489C89.626 58.3517 89.2809 58.2038 88.7878 58.2038C87.9497 58.2038 87.3088 58.7954 87.3088 59.6828C87.3088 60.5703 87.9497 61.1619 88.7878 61.1619C89.2809 61.1619 89.626 60.9647 89.9218 60.8168L90.3655 61.507C89.9711 61.8028 89.4781 62 88.7878 62C87.4074 62 86.3721 61.0633 86.3721 59.6828Z" fill="black"/>
<path d="M94.9011 58.2038H93.7179V61.8521H92.9291V58.2038H91.6965V57.4642H94.9011V58.2038Z" fill="black"/>
<path d="M100.817 59.6828C100.817 61.0633 99.8314 62 98.5003 62C97.1691 62 96.1831 61.0633 96.1831 59.6828C96.1831 58.3024 97.1691 57.3657 98.5003 57.3657C99.7821 57.3657 100.817 58.3024 100.817 59.6828ZM97.0705 59.6828C97.0705 60.5703 97.6621 61.1619 98.5003 61.1619C99.3384 61.1619 99.93 60.5703 99.93 59.6828C99.93 58.7954 99.3384 58.2038 98.5003 58.2038C97.6621 58.2038 97.0705 58.7954 97.0705 59.6828Z" fill="black"/>
<path d="M103.578 60.1265H103.282V61.9014H102.494V57.4642H104.121C105.008 57.4642 105.55 58.0065 105.55 58.7954C105.55 59.4363 105.156 59.9293 104.515 60.0772L105.846 61.9014H104.811L103.578 60.1265ZM103.282 59.4363H103.973C104.416 59.4363 104.663 59.2391 104.663 58.8447C104.663 58.4996 104.466 58.2531 103.973 58.2531H103.282V59.4363Z" fill="black"/>
<path d="M108.459 43.8078V44.4487H108.36V43.0682H108.952C109.198 43.0682 109.395 43.1668 109.395 43.4133C109.395 43.5613 109.346 43.7092 109.149 43.7585C109.248 43.8078 109.395 43.8571 109.395 44.1036V44.1529C109.395 44.2515 109.395 44.3994 109.395 44.4487H109.248C109.248 44.3994 109.248 44.2515 109.248 44.1529V44.1036C109.248 43.8571 109.149 43.8078 108.902 43.8078H108.459ZM108.459 43.7092H108.902C109.149 43.7092 109.248 43.6106 109.248 43.4133C109.248 43.2654 109.1 43.1668 108.902 43.1668H108.459V43.7092Z" fill="black"/>
<path d="M109.445 44.498H109.248V44.4487C109.248 44.3994 109.248 44.3008 109.248 44.2022V44.1036C109.248 43.9064 109.198 43.857 108.902 43.857H108.508V44.498H108.311V43.0189H108.952C109.248 43.0189 109.445 43.1668 109.445 43.4133C109.445 43.5612 109.395 43.6598 109.248 43.7584C109.346 43.8077 109.395 43.9557 109.395 44.1036V44.1529C109.395 44.2515 109.395 44.3994 109.445 44.498ZM109.297 44.3994H109.346C109.346 44.3501 109.346 44.2515 109.346 44.1529V44.1036C109.346 43.857 109.248 43.8077 109.149 43.8077L109.001 43.7584L109.149 43.7091C109.297 43.6598 109.395 43.5612 109.395 43.4133C109.395 43.1175 109.1 43.0682 108.952 43.0682H108.36V44.3994H108.409V43.7584H108.902C109.149 43.7584 109.297 43.8077 109.297 44.1036V44.2022C109.297 44.3008 109.297 44.3501 109.297 44.3994ZM108.902 43.7584H108.409V43.1668H108.902C109.248 43.1668 109.297 43.3147 109.297 43.4626C109.297 43.6598 109.149 43.7584 108.902 43.7584ZM108.508 43.6598H108.902C109.198 43.6598 109.248 43.5119 109.248 43.4133C109.248 43.364 109.248 43.2161 108.902 43.2161H108.508V43.6598Z" fill="black"/>
<path d="M108.853 45.0403C108.114 45.0403 107.522 44.4487 107.522 43.7091C107.522 42.9696 108.114 42.378 108.853 42.378C109.593 42.378 110.184 42.9696 110.184 43.7091C110.135 44.4487 109.543 45.0403 108.853 45.0403ZM108.853 42.5752C108.212 42.5752 107.67 43.1175 107.67 43.7584C107.67 44.3994 108.212 44.9417 108.853 44.9417C109.494 44.9417 110.036 44.3994 110.036 43.7584C110.036 43.0682 109.494 42.5752 108.853 42.5752Z" fill="black"/>
<path d="M108.853 45.0896C108.114 45.0896 107.522 44.498 107.522 43.7584C107.522 43.0189 108.114 42.4273 108.853 42.4273C109.593 42.4273 110.184 43.0189 110.184 43.7584C110.184 44.498 109.593 45.0896 108.853 45.0896ZM108.853 42.4766C108.163 42.4766 107.571 43.0682 107.571 43.7584C107.571 44.4487 108.163 45.0403 108.853 45.0403C109.543 45.0403 110.135 44.4487 110.135 43.7584C110.086 43.0189 109.543 42.4766 108.853 42.4766ZM108.853 44.9417C108.163 44.9417 107.621 44.3994 107.621 43.7091C107.621 43.0189 108.163 42.4766 108.853 42.4766C109.543 42.4766 110.086 43.0189 110.086 43.7091C110.086 44.3994 109.494 44.9417 108.853 44.9417ZM108.853 42.5752C108.212 42.5752 107.719 43.0682 107.719 43.7091C107.719 44.3501 108.212 44.8431 108.853 44.8431C109.494 44.8431 109.987 44.3501 109.987 43.7091C109.987 43.0682 109.494 42.5752 108.853 42.5752Z" fill="black"/>
</g>
<defs>
<clipPath id="clip0_129_3838">
<rect width="70.2054" height="60" fill="white" transform="translate(39.9795 2)"/>
</clipPath>
</defs>
</svg>
