<svg width="264" height="917" viewBox="0 0 264 917" fill="none" xmlns="http://www.w3.org/2000/svg">
<rect width="20" height="20" rx="3" transform="matrix(-1 0 0 1 96 840.334)" fill="#E7F5F6" fill-opacity="0.3"/>
<rect width="20" height="20" rx="3" transform="matrix(-1 0 0 1 124 840.334)" fill="#E7F5F6" fill-opacity="0.3"/>
<rect width="20" height="20" rx="3" transform="matrix(-1 0 0 1 152 840.334)" fill="#E7F5F6" fill-opacity="0.3"/>
<rect width="20" height="20" rx="3" transform="matrix(-1 0 0 1 180 840.334)" fill="#E7F5F6" fill-opacity="0.3"/>
<rect width="20" height="20" rx="3" transform="matrix(-1 0 0 1 208 840.334)" fill="#E7F5F6" fill-opacity="0.3"/>
<rect width="20" height="20" rx="3" transform="matrix(-1 0 0 1 236 840.334)" fill="#E7F5F6" fill-opacity="0.3"/>
<rect width="20" height="20" rx="3" transform="matrix(-1 0 0 1 264 840.334)" fill="#E7F5F6" fill-opacity="0.3"/>
<rect width="20" height="20" rx="3" transform="matrix(-1 0 0 1 12 812.334)" fill="#E7F5F6" fill-opacity="0.3"/>
<rect width="20" height="20" rx="3" transform="matrix(-1 0 0 1 40 812.334)" fill="#E7F5F6" fill-opacity="0.3"/>
<rect width="20" height="20" rx="3" transform="matrix(-1 0 0 1 68 812.334)" fill="#E7F5F6" fill-opacity="0.3"/>
<rect width="20" height="20" rx="3" transform="matrix(-1 0 0 1 96 812.334)" fill="#E7F5F6" fill-opacity="0.3"/>
<rect width="20" height="20" rx="3" transform="matrix(-1 0 0 1 124 812.334)" fill="#E7F5F6" fill-opacity="0.3"/>
<rect width="20" height="20" rx="3" transform="matrix(-1 0 0 1 152 812.334)" fill="#E7F5F6" fill-opacity="0.3"/>
<rect width="20" height="20" rx="3" transform="matrix(-1 0 0 1 180 812.334)" fill="#E7F5F6" fill-opacity="0.3"/>
<rect width="20" height="20" rx="3" transform="matrix(-1 0 0 1 208 812.334)" fill="#E7F5F6" fill-opacity="0.3"/>
<rect width="20" height="20" rx="3" transform="matrix(-1 0 0 1 236 812.334)" fill="#8A9AFB"/>
<rect width="20" height="20" rx="3" transform="matrix(-1 0 0 1 264 812.334)" fill="#E7F5F6" fill-opacity="0.3"/>
<rect width="20" height="20" rx="3" transform="matrix(-1 0 0 1 12 784.334)" fill="#E7F5F6" fill-opacity="0.3"/>
<rect width="20" height="20" rx="3" transform="matrix(-1 0 0 1 40 784.334)" fill="#E7F5F6" fill-opacity="0.3"/>
<rect width="20" height="20" rx="3" transform="matrix(-1 0 0 1 68 784.334)" fill="#E7F5F6" fill-opacity="0.3"/>
<rect width="20" height="20" rx="3" transform="matrix(-1 0 0 1 96 784.334)" fill="#E7F5F6" fill-opacity="0.3"/>
<rect width="20" height="20" rx="3" transform="matrix(-1 0 0 1 180 784.334)" fill="#E7F5F6" fill-opacity="0.3"/>
<rect width="20" height="20" rx="3" transform="matrix(-1 0 0 1 208 784.334)" fill="#E7F5F6" fill-opacity="0.3"/>
<rect width="20" height="20" rx="3" transform="matrix(-1 0 0 1 236 784.334)" fill="#E7F5F6" fill-opacity="0.3"/>
<rect width="20" height="20" rx="3" transform="matrix(-1 0 0 1 264 784.334)" fill="#E7F5F6" fill-opacity="0.3"/>
<rect width="20" height="20" rx="3" transform="matrix(-1 0 0 1 68 756.334)" fill="#8A9AFB"/>
<rect width="20" height="20" rx="3" transform="matrix(-1 0 0 1 96 756.334)" fill="#E7F5F6" fill-opacity="0.3"/>
<rect width="20" height="20" rx="3" transform="matrix(-1 0 0 1 180 756.334)" fill="#E7F5F6" fill-opacity="0.3"/>
<rect width="20" height="20" rx="3" transform="matrix(-1 0 0 1 208 756.334)" fill="#E7F5F6" fill-opacity="0.3"/>
<rect width="20" height="20" rx="3" transform="matrix(-1 0 0 1 236 756.334)" fill="#E7F5F6" fill-opacity="0.3"/>
<rect width="20" height="20" rx="3" transform="matrix(-1 0 0 1 264 756.334)" fill="#E7F5F6" fill-opacity="0.3"/>
<rect width="20" height="20" rx="3" transform="matrix(-1 0 0 1 68 728.334)" fill="#E7F5F6" fill-opacity="0.3"/>
<rect width="20" height="20" rx="3" transform="matrix(-1 0 0 1 96 728.334)" fill="#E7F5F6" fill-opacity="0.3"/>
<rect width="20" height="20" rx="3" transform="matrix(-1 0 0 1 180 728.334)" fill="#E7F5F6" fill-opacity="0.3"/>
<rect width="20" height="20" rx="3" transform="matrix(-1 0 0 1 208 728.334)" fill="#E7F5F6" fill-opacity="0.3"/>
<rect width="20" height="20" rx="3" transform="matrix(-1 0 0 1 68 700.334)" fill="#E7F5F6" fill-opacity="0.3"/>
<rect width="20" height="20" rx="3" transform="matrix(-1 0 0 1 96 700.334)" fill="#E7F5F6" fill-opacity="0.3"/>
<rect width="20" height="20" rx="3" transform="matrix(-1 0 0 1 124 700.334)" fill="#E7F5F6" fill-opacity="0.3"/>
<rect width="20" height="20" rx="3" transform="matrix(-1 0 0 1 152 700.334)" fill="#E7F5F6" fill-opacity="0.3"/>
<rect width="20" height="20" rx="3" transform="matrix(-1 0 0 1 180 700.334)" fill="#E7F5F6" fill-opacity="0.3"/>
<rect width="20" height="20" rx="3" transform="matrix(-1 0 0 1 208 700.334)" fill="#E7F5F6" fill-opacity="0.3"/>
<rect width="20" height="20" rx="3" transform="matrix(-1 0 0 1 12 672.334)" fill="#E7F5F6" fill-opacity="0.3"/>
<rect width="20" height="20" rx="3" transform="matrix(-1 0 0 1 40 672.334)" fill="#E7F5F6" fill-opacity="0.3"/>
<rect width="20" height="20" rx="3" transform="matrix(-1 0 0 1 68 672.334)" fill="#E7F5F6" fill-opacity="0.3"/>
<rect width="20" height="20" rx="3" transform="matrix(-1 0 0 1 96 672.334)" fill="#E7F5F6" fill-opacity="0.3"/>
<rect width="20" height="20" rx="3" transform="matrix(-1 0 0 1 124 672.334)" fill="#E7F5F6" fill-opacity="0.3"/>
<rect width="20" height="20" rx="3" transform="matrix(-1 0 0 1 152 672.334)" fill="#E7F5F6" fill-opacity="0.3"/>
<rect width="20" height="20" rx="3" transform="matrix(-1 0 0 1 180 672.334)" fill="#E7F5F6" fill-opacity="0.3"/>
<rect width="20" height="20" rx="3" transform="matrix(-1 0 0 1 208 672.334)" fill="#E7F5F6" fill-opacity="0.3"/>
<rect width="20" height="20" rx="3" transform="matrix(-1 0 0 1 12 644.334)" fill="#E7F5F6" fill-opacity="0.3"/>
<rect width="20" height="20" rx="3" transform="matrix(-1 0 0 1 40 644.334)" fill="#E7F5F6" fill-opacity="0.3"/>
<rect width="20" height="20" rx="3" transform="matrix(-1 0 0 1 68 644.334)" fill="#E7F5F6" fill-opacity="0.3"/>
<rect width="20" height="20" rx="3" transform="matrix(-1 0 0 1 96 644.334)" fill="#E7F5F6" fill-opacity="0.3"/>
<rect width="20" height="20" rx="3" transform="matrix(-1 0 0 1 180 644.334)" fill="#E7F5F6" fill-opacity="0.3"/>
<rect width="20" height="20" rx="3" transform="matrix(-1 0 0 1 208 644.334)" fill="#E7F5F6" fill-opacity="0.3"/>
<rect width="20" height="20" rx="3" transform="matrix(-1 0 0 1 12 616.334)" fill="#E7F5F6" fill-opacity="0.3"/>
<rect width="20" height="20" rx="3" transform="matrix(-1 0 0 1 68 616.334)" fill="#E7F5F6" fill-opacity="0.3"/>
<rect width="20" height="20" rx="3" transform="matrix(-1 0 0 1 180 616.334)" fill="#FFD600"/>
<rect width="20" height="20" rx="3" transform="matrix(-1 0 0 1 208 616.334)" fill="#E7F5F6" fill-opacity="0.3"/>
<rect width="20" height="20" rx="3" transform="matrix(-1 0 0 1 236 616.334)" fill="#E7F5F6" fill-opacity="0.3"/>
<rect width="20" height="20" rx="3" transform="matrix(-1 0 0 1 264 616.334)" fill="#E7F5F6" fill-opacity="0.3"/>
<rect width="20" height="20" rx="3" transform="matrix(-1 0 0 1 12 588.334)" fill="#E7F5F6" fill-opacity="0.3"/>
<rect width="20" height="20" rx="3" transform="matrix(-1 0 0 1 68 588.334)" fill="#E7F5F6" fill-opacity="0.3"/>
<rect width="20" height="20" rx="3" transform="matrix(-1 0 0 1 180 588.334)" fill="#E7F5F6" fill-opacity="0.3"/>
<rect width="20" height="20" rx="3" transform="matrix(-1 0 0 1 208 588.334)" fill="#A1CE08"/>
<rect width="20" height="20" rx="3" transform="matrix(-1 0 0 1 236 588.334)" fill="#E7F5F6" fill-opacity="0.3"/>
<rect width="20" height="20" rx="3" transform="matrix(-1 0 0 1 264 588.334)" fill="#E7F5F6" fill-opacity="0.3"/>
<rect width="20" height="20" rx="3" transform="matrix(-1 0 0 1 12 560.334)" fill="#FFD600"/>
<rect width="20" height="20" rx="3" transform="matrix(-1 0 0 1 40 560.334)" fill="#E7F5F6" fill-opacity="0.3"/>
<rect width="20" height="20" rx="3" transform="matrix(-1 0 0 1 152 560.334)" fill="#E7F5F6" fill-opacity="0.3"/>
<rect width="20" height="20" rx="3" transform="matrix(-1 0 0 1 180 560.334)" fill="#E7F5F6" fill-opacity="0.3"/>
<rect width="20" height="20" rx="3" transform="matrix(-1 0 0 1 208 560.334)" fill="#E7F5F6" fill-opacity="0.3"/>
<rect width="20" height="20" rx="3" transform="matrix(-1 0 0 1 236 560.334)" fill="#E7F5F6" fill-opacity="0.3"/>
<rect width="20" height="20" rx="3" transform="matrix(-1 0 0 1 264 560.334)" fill="#E7F5F6" fill-opacity="0.3"/>
<rect width="20" height="20" rx="3" transform="matrix(-1 0 0 1 40 532.334)" fill="#E7F5F6" fill-opacity="0.3"/>
<rect width="20" height="20" rx="3" transform="matrix(-1 0 0 1 152 532.334)" fill="#E7F5F6" fill-opacity="0.3"/>
<rect width="20" height="20" rx="3" transform="matrix(-1 0 0 1 180 532.334)" fill="#E7F5F6" fill-opacity="0.3"/>
<rect width="20" height="20" rx="3" transform="matrix(-1 0 0 1 264 532.334)" fill="#E7F5F6" fill-opacity="0.3"/>
<rect width="20" height="20" rx="3" transform="matrix(-1 0 0 1 40 504.334)" fill="#E7F5F6" fill-opacity="0.3"/>
<rect width="20" height="20" rx="3" transform="matrix(-1 0 0 1 152 504.334)" fill="#E7F5F6" fill-opacity="0.3"/>
<rect width="20" height="20" rx="3" transform="matrix(-1 0 0 1 180 504.334)" fill="#E7F5F6" fill-opacity="0.3"/>
<rect width="20" height="20" rx="3" transform="matrix(-1 0 0 1 264 504.334)" fill="#E7F5F6" fill-opacity="0.3"/>
<rect width="20" height="20" rx="3" transform="matrix(-1 0 0 1 40 476.334)" fill="#E7F5F6" fill-opacity="0.3"/>
<rect width="20" height="20" rx="3" transform="matrix(-1 0 0 1 68 476.334)" fill="#E7F5F6" fill-opacity="0.3"/>
<rect width="20" height="20" rx="3" transform="matrix(-1 0 0 1 96 476.334)" fill="#E7F5F6" fill-opacity="0.3"/>
<rect width="20" height="20" rx="3" transform="matrix(-1 0 0 1 124 476.334)" fill="#E7F5F6" fill-opacity="0.3"/>
<rect width="20" height="20" rx="3" transform="matrix(-1 0 0 1 152 476.334)" fill="#E7F5F6" fill-opacity="0.3"/>
<rect width="20" height="20" rx="3" transform="matrix(-1 0 0 1 180 476.334)" fill="#E7F5F6" fill-opacity="0.3"/>
<rect width="20" height="20" rx="3" transform="matrix(-1 0 0 1 208 476.334)" fill="#E7F5F6" fill-opacity="0.3"/>
<rect width="20" height="20" rx="3" transform="matrix(-1 0 0 1 236 476.334)" fill="#E7F5F6" fill-opacity="0.3"/>
<rect width="20" height="20" rx="3" transform="matrix(-1 0 0 1 264 476.334)" fill="#E7F5F6" fill-opacity="0.3"/>
<rect width="20" height="20" rx="3" transform="matrix(-1 0 0 1 12 448.334)" fill="#E7F5F6" fill-opacity="0.3"/>
<rect width="20" height="20" rx="3" transform="matrix(-1 0 0 1 40 448.334)" fill="#E7F5F6" fill-opacity="0.3"/>
<rect width="20" height="20" rx="3" transform="matrix(-1 0 0 1 68 448.334)" fill="#E7F5F6" fill-opacity="0.3"/>
<rect width="20" height="20" rx="3" transform="matrix(-1 0 0 1 96 448.334)" fill="#E7F5F6" fill-opacity="0.3"/>
<rect width="20" height="20" rx="3" transform="matrix(-1 0 0 1 124 448.334)" fill="#E7F5F6" fill-opacity="0.3"/>
<rect width="20" height="20" rx="3" transform="matrix(-1 0 0 1 152 448.334)" fill="#E7F5F6" fill-opacity="0.3"/>
<rect width="20" height="20" rx="3" transform="matrix(-1 0 0 1 180 448.334)" fill="#E7F5F6" fill-opacity="0.3"/>
<rect width="20" height="20" rx="3" transform="matrix(-1 0 0 1 208 448.334)" fill="#E7F5F6" fill-opacity="0.3"/>
<rect width="20" height="20" rx="3" transform="matrix(-1 0 0 1 236 448.334)" fill="#E7F5F6" fill-opacity="0.3"/>
<rect width="20" height="20" rx="3" transform="matrix(-1 0 0 1 264 448.334)" fill="#E7F5F6" fill-opacity="0.3"/>
<rect width="20" height="20" rx="3" transform="matrix(-1 0 0 1 12 420.334)" fill="#E7F5F6" fill-opacity="0.3"/>
<rect width="20" height="20" rx="3" transform="matrix(-1 0 0 1 40 420.334)" fill="#A1CE08"/>
<rect width="20" height="20" rx="3" transform="matrix(-1 0 0 1 68 420.334)" fill="#E7F5F6" fill-opacity="0.3"/>
<rect width="20" height="20" rx="3" transform="matrix(-1 0 0 1 96 420.334)" fill="#E7F5F6" fill-opacity="0.3"/>
<rect width="20" height="20" rx="3" transform="matrix(-1 0 0 1 124 420.334)" fill="#E7F5F6" fill-opacity="0.3"/>
<rect width="20" height="20" rx="3" transform="matrix(-1 0 0 1 152 420.334)" fill="#E7F5F6" fill-opacity="0.3"/>
<rect width="20" height="20" rx="3" transform="matrix(-1 0 0 1 180 420.334)" fill="#E7F5F6" fill-opacity="0.3"/>
<rect width="20" height="20" rx="3" transform="matrix(-1 0 0 1 208 420.334)" fill="#E7F5F6" fill-opacity="0.3"/>
<rect width="20" height="20" rx="3" transform="matrix(-1 0 0 1 12 392.334)" fill="#E7F5F6" fill-opacity="0.3"/>
<rect width="20" height="20" rx="3" transform="matrix(-1 0 0 1 40 392.334)" fill="#E7F5F6" fill-opacity="0.3"/>
<rect width="20" height="20" rx="3" transform="matrix(-1 0 0 1 68 392.334)" fill="#E7F5F6" fill-opacity="0.3"/>
<rect width="20" height="20" rx="3" transform="matrix(-1 0 0 1 180 392.334)" fill="#E7F5F6" fill-opacity="0.3"/>
<rect width="20" height="20" rx="3" transform="matrix(-1 0 0 1 208 392.334)" fill="#E7F5F6" fill-opacity="0.3"/>
<rect width="20" height="20" rx="3" transform="matrix(-1 0 0 1 68 364.334)" fill="#E7F5F6" fill-opacity="0.3"/>
<rect width="20" height="20" rx="3" transform="matrix(-1 0 0 1 180 364.334)" fill="#E7F5F6" fill-opacity="0.3"/>
<rect width="20" height="20" rx="3" transform="matrix(-1 0 0 1 208 364.334)" fill="#E7F5F6" fill-opacity="0.3"/>
<rect width="20" height="20" rx="3" transform="matrix(-1 0 0 1 68 336.334)" fill="#E7F5F6" fill-opacity="0.3"/>
<rect width="20" height="20" rx="3" transform="matrix(-1 0 0 1 180 336.334)" fill="#E7F5F6" fill-opacity="0.3"/>
<rect width="20" height="20" rx="3" transform="matrix(-1 0 0 1 208 336.334)" fill="#E7F5F6" fill-opacity="0.3"/>
<rect width="20" height="20" rx="3" transform="matrix(-1 0 0 1 68 308.334)" fill="#E7F5F6" fill-opacity="0.3"/>
<rect width="20" height="20" rx="3" transform="matrix(-1 0 0 1 96 308.334)" fill="#E7F5F6" fill-opacity="0.3"/>
<rect width="20" height="20" rx="3" transform="matrix(-1 0 0 1 124 308.334)" fill="#8A9AFB"/>
<rect width="20" height="20" rx="3" transform="matrix(-1 0 0 1 152 308.334)" fill="#E7F5F6" fill-opacity="0.3"/>
<rect width="20" height="20" rx="3" transform="matrix(-1 0 0 1 180 308.334)" fill="#E7F5F6" fill-opacity="0.3"/>
<rect width="20" height="20" rx="3" transform="matrix(-1 0 0 1 208 308.334)" fill="#E7F5F6" fill-opacity="0.3"/>
<rect width="20" height="20" rx="3" transform="matrix(-1 0 0 1 236 308.334)" fill="#E7F5F6" fill-opacity="0.3"/>
<rect width="20" height="20" rx="3" transform="matrix(-1 0 0 1 264 308.334)" fill="#E7F5F6" fill-opacity="0.3"/>
<rect width="20" height="20" rx="3" transform="matrix(-1 0 0 1 68 280.334)" fill="#E7F5F6" fill-opacity="0.3"/>
<rect width="20" height="20" rx="3" transform="matrix(-1 0 0 1 96 280.334)" fill="#E7F5F6" fill-opacity="0.3"/>
<rect width="20" height="20" rx="3" transform="matrix(-1 0 0 1 124 280.334)" fill="#E7F5F6" fill-opacity="0.3"/>
<rect width="20" height="20" rx="3" transform="matrix(-1 0 0 1 152 280.334)" fill="#E7F5F6" fill-opacity="0.3"/>
<rect width="20" height="20" rx="3" transform="matrix(-1 0 0 1 180 280.334)" fill="#E7F5F6" fill-opacity="0.3"/>
<rect width="20" height="20" rx="3" transform="matrix(-1 0 0 1 208 280.334)" fill="#E7F5F6" fill-opacity="0.3"/>
<rect width="20" height="20" rx="3" transform="matrix(-1 0 0 1 236 280.334)" fill="#E7F5F6" fill-opacity="0.3"/>
<rect width="20" height="20" rx="3" transform="matrix(-1 0 0 1 264 280.334)" fill="#E7F5F6" fill-opacity="0.3"/>
<rect width="20" height="20" rx="3" transform="matrix(-1 0 0 1 12 252.334)" fill="#E7F5F6" fill-opacity="0.3"/>
<rect width="20" height="20" rx="3" transform="matrix(-1 0 0 1 40 252.334)" fill="#E7F5F6" fill-opacity="0.3"/>
<rect width="20" height="20" rx="3" transform="matrix(-1 0 0 1 68 252.334)" fill="#E7F5F6" fill-opacity="0.3"/>
<rect width="20" height="20" rx="3" transform="matrix(-1 0 0 1 96 252.334)" fill="#E7F5F6" fill-opacity="0.3"/>
<rect width="20" height="20" rx="3" transform="matrix(-1 0 0 1 124 252.334)" fill="#E7F5F6" fill-opacity="0.3"/>
<rect width="20" height="20" rx="3" transform="matrix(-1 0 0 1 236 252.334)" fill="#E7F5F6" fill-opacity="0.3"/>
<rect width="20" height="20" rx="3" transform="matrix(-1 0 0 1 264 252.334)" fill="#E7F5F6" fill-opacity="0.3"/>
<rect width="20" height="20" rx="3" transform="matrix(-1 0 0 1 12 224.334)" fill="#E7F5F6" fill-opacity="0.3"/>
<rect width="20" height="20" rx="3" transform="matrix(-1 0 0 1 40 224.334)" fill="#8A9AFB"/>
<rect width="20" height="20" rx="3" transform="matrix(-1 0 0 1 68 224.334)" fill="#E7F5F6" fill-opacity="0.3"/>
<rect width="20" height="20" rx="3" transform="matrix(-1 0 0 1 96 224.334)" fill="#E7F5F6" fill-opacity="0.3"/>
<rect width="20" height="20" rx="3" transform="matrix(-1 0 0 1 124 224.334)" fill="#E7F5F6" fill-opacity="0.3"/>
<rect width="20" height="20" rx="3" transform="matrix(-1 0 0 1 236 224.334)" fill="#E7F5F6" fill-opacity="0.3"/>
<rect width="20" height="20" rx="3" transform="matrix(-1 0 0 1 264 224.334)" fill="#E7F5F6" fill-opacity="0.3"/>
<rect width="20" height="20" rx="3" transform="matrix(-1 0 0 1 12 196.334)" fill="#E7F5F6" fill-opacity="0.3"/>
<rect width="20" height="20" rx="3" transform="matrix(-1 0 0 1 40 196.334)" fill="#E7F5F6" fill-opacity="0.3"/>
<rect width="20" height="20" rx="3" transform="matrix(-1 0 0 1 68 196.334)" fill="#E7F5F6" fill-opacity="0.3"/>
<rect width="20" height="20" rx="3" transform="matrix(-1 0 0 1 96 196.334)" fill="#E7F5F6" fill-opacity="0.3"/>
<rect width="20" height="20" rx="3" transform="matrix(-1 0 0 1 124 196.334)" fill="#E7F5F6" fill-opacity="0.3"/>
<rect width="20" height="20" rx="3" transform="matrix(-1 0 0 1 152 196.334)" fill="#E7F5F6" fill-opacity="0.3"/>
<rect width="20" height="20" rx="3" transform="matrix(-1 0 0 1 180 196.334)" fill="#E7F5F6" fill-opacity="0.3"/>
<rect width="20" height="20" rx="3" transform="matrix(-1 0 0 1 208 196.334)" fill="#E7F5F6" fill-opacity="0.3"/>
<rect width="20" height="20" rx="3" transform="matrix(-1 0 0 1 236 196.334)" fill="#A1CE08"/>
<rect width="20" height="20" rx="3" transform="matrix(-1 0 0 1 264 196.334)" fill="#E7F5F6" fill-opacity="0.3"/>
<rect width="20" height="20" rx="3" transform="matrix(-1 0 0 1 12 168.334)" fill="#E7F5F6" fill-opacity="0.3"/>
<rect width="20" height="20" rx="3" transform="matrix(-1 0 0 1 40 168.334)" fill="#E7F5F6" fill-opacity="0.3"/>
<rect width="20" height="20" rx="3" transform="matrix(-1 0 0 1 68 168.334)" fill="#E7F5F6" fill-opacity="0.3"/>
<rect width="20" height="20" rx="3" transform="matrix(-1 0 0 1 96 168.334)" fill="#E7F5F6" fill-opacity="0.3"/>
<rect width="20" height="20" rx="3" transform="matrix(-1 0 0 1 124 168.334)" fill="#E7F5F6" fill-opacity="0.3"/>
<rect width="20" height="20" rx="3" transform="matrix(-1 0 0 1 152 168.334)" fill="#E7F5F6" fill-opacity="0.3"/>
<rect width="20" height="20" rx="3" transform="matrix(-1 0 0 1 180 168.334)" fill="#E7F5F6" fill-opacity="0.3"/>
<rect width="20" height="20" rx="3" transform="matrix(-1 0 0 1 208 168.334)" fill="#E7F5F6" fill-opacity="0.3"/>
<rect width="20" height="20" rx="3" transform="matrix(-1 0 0 1 236 168.334)" fill="#E7F5F6" fill-opacity="0.3"/>
<rect width="20" height="20" rx="3" transform="matrix(-1 0 0 1 264 168.334)" fill="#E7F5F6" fill-opacity="0.3"/>
<rect width="20" height="20" rx="3" transform="matrix(-1 0 0 1 40 140.334)" fill="#E7F5F6" fill-opacity="0.3"/>
<rect width="20" height="20" rx="3" transform="matrix(-1 0 0 1 68 140.334)" fill="#E7F5F6" fill-opacity="0.3"/>
<rect width="20" height="20" rx="3" transform="matrix(-1 0 0 1 96 140.334)" fill="#E7F5F6" fill-opacity="0.3"/>
<rect width="20" height="20" rx="3" transform="matrix(-1 0 0 1 124 140.334)" fill="#E7F5F6" fill-opacity="0.3"/>
<rect width="20" height="20" rx="3" transform="matrix(-1 0 0 1 152 140.334)" fill="#E7F5F6" fill-opacity="0.3"/>
<rect width="20" height="20" rx="3" transform="matrix(-1 0 0 1 180 140.334)" fill="#E7F5F6" fill-opacity="0.3"/>
<rect width="20" height="20" rx="3" transform="matrix(-1 0 0 1 68 112.334)" fill="#E7F5F6" fill-opacity="0.3"/>
<rect width="20" height="20" rx="3" transform="matrix(-1 0 0 1 96 112.334)" fill="#E7F5F6" fill-opacity="0.3"/>
<rect width="20" height="20" rx="3" transform="matrix(-1 0 0 1 124 112.334)" fill="#E7F5F6" fill-opacity="0.3"/>
<rect width="20" height="20" rx="3" transform="matrix(-1 0 0 1 152 112.334)" fill="#FFD600"/>
<rect width="20" height="20" rx="3" transform="matrix(-1 0 0 1 180 112.334)" fill="#E7F5F6" fill-opacity="0.3"/>
<rect width="20" height="20" rx="3" transform="matrix(-1 0 0 1 68 84.334)" fill="#E7F5F6" fill-opacity="0.3"/>
<rect width="20" height="20" rx="3" transform="matrix(-1 0 0 1 96 84.334)" fill="#E7F5F6" fill-opacity="0.3"/>
<rect width="20" height="20" rx="3" transform="matrix(-1 0 0 1 124 84.334)" fill="#E7F5F6" fill-opacity="0.3"/>
<rect width="20" height="20" rx="3" transform="matrix(-1 0 0 1 152 84.334)" fill="#E7F5F6" fill-opacity="0.3"/>
<rect width="20" height="20" rx="3" transform="matrix(-1 0 0 1 180 84.334)" fill="#E7F5F6" fill-opacity="0.3"/>
<rect width="20" height="20" rx="3" transform="matrix(-1 0 0 1 12 56.334)" fill="#E7F5F6" fill-opacity="0.3"/>
<rect width="20" height="20" rx="3" transform="matrix(-1 0 0 1 40 56.334)" fill="#E7F5F6" fill-opacity="0.3"/>
<rect width="20" height="20" rx="3" transform="matrix(-1 0 0 1 68 56.334)" fill="#E7F5F6" fill-opacity="0.3"/>
<rect width="20" height="20" rx="3" transform="matrix(-1 0 0 1 96 56.334)" fill="#E7F5F6" fill-opacity="0.3"/>
<rect width="20" height="20" rx="3" transform="matrix(-1 0 0 1 124 56.334)" fill="#E7F5F6" fill-opacity="0.3"/>
<rect width="20" height="20" rx="3" transform="matrix(-1 0 0 1 152 56.334)" fill="#E7F5F6" fill-opacity="0.3"/>
<rect width="20" height="20" rx="3" transform="matrix(-1 0 0 1 180 56.334)" fill="#E7F5F6" fill-opacity="0.3"/>
<rect width="20" height="20" rx="3" transform="matrix(-1 0 0 1 12 28.334)" fill="#E7F5F6" fill-opacity="0.3"/>
<rect width="20" height="20" rx="3" transform="matrix(-1 0 0 1 124 28.334)" fill="#A1CE08"/>
<rect width="20" height="20" rx="3" transform="matrix(-1 0 0 1 152 28.334)" fill="#E7F5F6" fill-opacity="0.3"/>
<rect width="20" height="20" rx="3" transform="matrix(-1 0 0 1 180 28.334)" fill="#E7F5F6" fill-opacity="0.3"/>
<rect width="20" height="20" rx="3" transform="matrix(-1 0 0 1 12 0.333984)" fill="#E7F5F6" fill-opacity="0.3"/>
<rect width="20" height="20" rx="3" transform="matrix(-1 0 0 1 40 0.333984)" fill="#E7F5F6" fill-opacity="0.3"/>
<rect width="20" height="20" rx="3" transform="matrix(-1 0 0 1 124 0.333984)" fill="#E7F5F6" fill-opacity="0.3"/>
<rect width="20" height="20" rx="3" transform="matrix(-1 0 0 1 152 0.333984)" fill="#E7F5F6" fill-opacity="0.3"/>
<rect width="20" height="20" rx="3" transform="matrix(-1 0 0 1 180 0.333984)" fill="#E7F5F6" fill-opacity="0.3"/>
<rect width="20" height="20" rx="3" transform="matrix(-1 0 0 1 208 0.333984)" fill="#E7F5F6" fill-opacity="0.3"/>
<rect width="20" height="20" rx="3" transform="matrix(-1 0 0 1 236 0.333984)" fill="#E7F5F6" fill-opacity="0.3"/>
<rect width="20" height="20" rx="3" transform="matrix(-1 0 0 1 264 0.333984)" fill="#E7F5F6" fill-opacity="0.3"/>
</svg>
