<svg width="65" height="64" viewBox="0 0 65 64" fill="none" xmlns="http://www.w3.org/2000/svg">
<rect x="0.833496" y="0.5" width="63" height="63" rx="11.5" fill="url(#paint0_linear_140_9552)"/>
<rect x="0.833496" y="0.5" width="63" height="63" rx="11.5" stroke="url(#paint1_linear_140_9552)"/>
<g clip-path="url(#clip0_140_9552)">
<path opacity="0.4" fill-rule="evenodd" clip-rule="evenodd" d="M26.2214 20C25.8544 20.841 25.6655 21.749 25.6667 22.6667C25.6667 23.3739 25.9477 24.0522 26.4478 24.5523C26.9479 25.0524 27.6262 25.3333 28.3334 25.3333H36.3334C37.0407 25.3333 37.7189 25.0524 38.219 24.5523C38.7191 24.0522 39.0001 23.3739 39.0001 22.6667C39.0001 21.7187 38.8027 20.816 38.4454 20H40.3334C41.0407 20 41.7189 20.281 42.219 20.781C42.7191 21.2811 43.0001 21.9594 43.0001 22.6667V42.6667C43.0001 43.3739 42.7191 44.0522 42.219 44.5523C41.7189 45.0524 41.0407 45.3333 40.3334 45.3333H24.3334C23.6262 45.3333 22.9479 45.0524 22.4478 44.5523C21.9477 44.0522 21.6667 43.3739 21.6667 42.6667V22.6667C21.6667 21.9594 21.9477 21.2811 22.4478 20.781C22.9479 20.281 23.6262 20 24.3334 20H26.2214ZM32.3334 34.6667H28.3334C27.9798 34.6667 27.6407 34.8071 27.3906 35.0572C27.1406 35.3072 27.0001 35.6464 27.0001 36C27.0001 36.3536 27.1406 36.6928 27.3906 36.9428C27.6407 37.1929 27.9798 37.3333 28.3334 37.3333H32.3334C32.687 37.3333 33.0262 37.1929 33.2762 36.9428C33.5263 36.6928 33.6667 36.3536 33.6667 36C33.6667 35.6464 33.5263 35.3072 33.2762 35.0572C33.0262 34.8071 32.687 34.6667 32.3334 34.6667ZM36.3334 29.3333H28.3334C27.9936 29.3337 27.6667 29.4638 27.4196 29.6971C27.1725 29.9304 27.0238 30.2493 27.0039 30.5885C26.9839 30.9278 27.0943 31.2618 27.3124 31.5224C27.5306 31.783 27.84 31.9505 28.1774 31.9907L28.3334 32H36.3334C36.687 32 37.0262 31.8595 37.2762 31.6095C37.5263 31.3594 37.6667 31.0203 37.6667 30.6667C37.6667 30.313 37.5263 29.9739 37.2762 29.7239C37.0262 29.4738 36.687 29.3333 36.3334 29.3333Z" fill="white"/>
<path d="M33.967 19.0141C33.4531 18.7842 32.8964 18.6659 32.3335 18.6667C31.1495 18.6667 30.0855 19.1814 29.3522 20L29.2468 20.1227C28.6762 20.8134 28.3335 21.7 28.3335 22.6667H36.3335L36.3215 22.3627C36.2535 21.4574 35.8855 20.6374 35.3148 20C34.9402 19.5799 34.4808 19.2439 33.967 19.0141Z" fill="white"/>
<path d="M41.2765 33.4468C41.0561 33.4929 40.9102 33.6862 40.9102 33.9009V34.4348C40.9102 34.6772 40.7513 34.895 40.5309 35.0147C40.3104 35.1343 40.0381 35.1527 39.8176 35.0331L39.3767 34.7938C39.1789 34.6864 38.9326 34.7109 38.7769 34.8674C38.5338 35.1159 38.3133 35.3951 38.1253 35.7019C37.9373 36.0087 37.7914 36.3278 37.6876 36.6531C37.6195 36.8586 37.7233 37.0734 37.9211 37.1808L38.3749 37.4293C38.5857 37.5459 38.7024 37.7668 38.7024 38C38.7024 38.2332 38.5889 38.4541 38.3749 38.5707L37.9211 38.8192C37.7233 38.9266 37.6228 39.1413 37.6876 39.3469C37.7946 39.6721 37.9405 39.9912 38.1253 40.298C38.3101 40.6048 38.5305 40.884 38.7769 41.1326C38.9326 41.289 39.1822 41.3136 39.3767 41.2062L39.8144 40.9669C40.0348 40.8472 40.3072 40.8656 40.5276 40.9853C40.7513 41.105 40.9069 41.3228 40.9069 41.5652V42.099C40.9069 42.3138 41.0528 42.5071 41.2733 42.5531C41.6137 42.6268 41.9703 42.6666 42.3334 42.6666C42.6965 42.6666 43.0531 42.6268 43.3935 42.5531C43.614 42.5071 43.7599 42.3138 43.7599 42.099V41.556C43.7599 41.3167 43.9155 41.1019 44.136 40.9822C44.3532 40.8626 44.6255 40.8442 44.8427 40.9638L45.2901 41.2062C45.4879 41.3136 45.7343 41.289 45.8899 41.1326C46.1363 40.884 46.3535 40.6048 46.5415 40.298C46.7296 39.9912 46.8755 39.6721 46.9792 39.3469C47.0473 39.1413 46.9435 38.9266 46.7458 38.8192L46.2789 38.5645C46.0682 38.451 45.9547 38.2301 45.9547 38C45.9547 37.7699 46.0682 37.549 46.2789 37.4354L46.7458 37.1808C46.9435 37.0734 47.044 36.8586 46.9792 36.6531C46.8722 36.3278 46.7263 36.0087 46.5415 35.7019C46.3567 35.3951 46.1363 35.1159 45.8899 34.8674C45.7343 34.7109 45.4846 34.6864 45.2901 34.7938L44.8427 35.0361C44.6255 35.1558 44.3532 35.1374 44.136 35.0177C43.9155 34.8981 43.7599 34.6833 43.7599 34.444V33.9009C43.7599 33.6862 43.614 33.4929 43.3935 33.4468C43.0531 33.3732 42.6965 33.3333 42.3334 33.3333C41.9703 33.3333 41.6137 33.3732 41.2733 33.4468H41.2765ZM42.3367 36.5242C42.7494 36.5242 43.1452 36.6794 43.437 36.9555C43.7289 37.2317 43.8928 37.6063 43.8928 37.9969C43.8928 38.3875 43.7289 38.7621 43.437 39.0383C43.1452 39.3145 42.7494 39.4696 42.3367 39.4696C41.9239 39.4696 41.5281 39.3145 41.2363 39.0383C40.9444 38.7621 40.7805 38.3875 40.7805 37.9969C40.7805 37.6063 40.9444 37.2317 41.2363 36.9555C41.5281 36.6794 41.9239 36.5242 42.3367 36.5242Z" fill="white"/>
</g>
<defs>
<linearGradient id="paint0_linear_140_9552" x1="-0.44632" y1="40.992" x2="66.515" y2="37.0492" gradientUnits="userSpaceOnUse">
<stop stop-color="#5E72E4"/>
<stop offset="1" stop-color="#825EE4"/>
</linearGradient>
<linearGradient id="paint1_linear_140_9552" x1="0.333496" y1="0.0676614" x2="64.3335" y2="64.0677" gradientUnits="userSpaceOnUse">
<stop stop-opacity="0.1"/>
<stop offset="0.494792" stop-opacity="0.2"/>
<stop offset="1" stop-opacity="0.1"/>
</linearGradient>
<clipPath id="clip0_140_9552">
<rect width="32" height="32" fill="white" transform="translate(16.3335 16)"/>
</clipPath>
</defs>
</svg>
