<svg width="17" height="16" viewBox="0 0 17 16" fill="none" xmlns="http://www.w3.org/2000/svg">
<g clip-path="url(#clip0_375_12515)">
<path d="M0.5 3C0.5 1.89688 1.39688 1 2.5 1H14.5C15.6031 1 16.5 1.89688 16.5 3V13C16.5 14.1031 15.6031 15 14.5 15H2.5C1.39688 15 0.5 14.1031 0.5 13V3ZM9.69375 5.24687C9.41563 5.55625 9.44063 6.02813 9.75 6.30625L11.6281 8L9.74687 9.69375C9.4375 9.97188 9.4125 10.4438 9.69063 10.7531C9.96875 11.0625 10.4406 11.0875 10.75 10.8094L13.25 8.55937C13.4094 8.41562 13.4969 8.21563 13.4969 8.00313C13.4969 7.79063 13.4062 7.5875 13.25 7.44688L10.75 5.19688C10.4406 4.91875 9.96875 4.94375 9.69063 5.25313L9.69375 5.24687ZM7.25313 6.30625C7.5625 6.02813 7.5875 5.55625 7.30937 5.24687C7.03125 4.9375 6.55937 4.9125 6.25 5.19063L3.75 7.44063C3.59063 7.58438 3.50312 7.78437 3.50312 7.99687C3.50312 8.20937 3.59375 8.4125 3.75 8.55313L6.25 10.8031C6.55937 11.0813 7.03125 11.0562 7.30937 10.7469C7.5875 10.4375 7.5625 9.96562 7.25313 9.6875L5.37187 8L7.25313 6.30625Z" fill="#3B47C2"/>
</g>
<defs>
<clipPath id="clip0_375_12515">
<rect width="16" height="16" fill="white" transform="translate(0.5)"/>
</clipPath>
</defs>
</svg>
