<svg width="64" height="64" viewBox="0 0 64 64" fill="none" xmlns="http://www.w3.org/2000/svg">
<rect x="0.5" y="0.5" width="63" height="63" rx="11.5" fill="url(#paint0_linear_140_9541)"/>
<rect x="0.5" y="0.5" width="63" height="63" rx="11.5" stroke="url(#paint1_linear_140_9541)"/>
<path d="M44.0401 30.28C44.5074 29.136 44.6636 27.8888 44.4927 26.6649C44.3219 25.4411 43.8301 24.2843 43.0674 23.3121C42.3047 22.3399 41.2982 21.5869 40.1502 21.1296C39.0022 20.6724 37.7536 20.5271 36.5313 20.7087C35.7739 19.733 34.7717 18.9751 33.6265 18.5119C32.4814 18.0488 31.2341 17.8969 30.0113 18.0717C28.7885 18.2466 27.6337 18.7418 26.6642 19.5073C25.6948 20.2727 24.9451 21.2811 24.4913 22.43C23.267 22.5976 22.1089 23.0863 21.1346 23.8465C20.1603 24.6066 19.4046 25.6112 18.9444 26.758C18.4841 27.9048 18.3356 29.1531 18.514 30.3759C18.6924 31.5987 19.1913 32.7525 19.9601 33.72C19.5849 34.6393 19.4097 35.6279 19.4459 36.6202C19.4822 37.6124 19.7291 38.5856 20.1703 39.4752C20.6115 40.3647 21.2369 41.1501 22.005 41.7794C22.773 42.4087 23.6662 42.8674 24.6251 43.125C25.2195 43.2877 25.8326 43.3717 26.4488 43.375C26.7907 43.3745 27.132 43.349 27.4701 43.2987C28.2277 44.2741 29.2299 45.0317 30.375 45.4945C31.52 45.9574 32.7672 46.109 33.9898 45.9341C35.2124 45.7592 36.3669 45.2639 37.3362 44.4985C38.3056 43.7331 39.0551 42.7249 39.5088 41.5762C40.7332 41.4086 41.8913 40.9199 42.8656 40.1597C43.8399 39.3996 44.5955 38.395 45.0558 37.2482C45.5161 36.1014 45.6646 34.8531 45.4862 33.6303C45.3078 32.4075 44.8088 31.2537 44.0401 30.2862V30.28ZM34.0001 33.155L32.0001 34.31L30.0001 33.155V30.845L32.0001 29.69L34.0001 30.845V33.155ZM38.8563 22.8037C40.1164 23.1406 41.195 23.9565 41.862 25.0774C42.5289 26.1984 42.7315 27.5356 42.4263 28.8037C42.3077 28.7242 42.1863 28.6488 42.0626 28.5775L36.5001 25.36C36.3481 25.2722 36.1756 25.226 36.0001 25.226C35.8246 25.226 35.6521 25.2722 35.5001 25.36L30.0001 28.5362V26.2262L35.0626 23.3037C35.6305 22.9738 36.2582 22.7598 36.9094 22.674C37.5606 22.5881 38.2223 22.6322 38.8563 22.8037ZM21.1063 26.8662C21.7438 25.7548 22.7859 24.9326 24.0151 24.5712C24.0057 24.714 24.0007 24.8569 24.0001 25V31.4225C24.0001 31.598 24.0462 31.7705 24.134 31.9226C24.2218 32.0747 24.348 32.2009 24.5001 32.2887L30.0001 35.4637L28.0001 36.625L22.9376 33.6962C21.7892 33.0332 20.9513 31.9411 20.6081 30.6602C20.2649 29.3793 20.4446 28.0146 21.1076 26.8662H21.1063ZM33.0001 44C31.72 44.0033 30.488 43.513 29.5601 42.6312C29.6851 42.5675 29.8101 42.5 29.9351 42.4275L35.5001 39.2162C35.652 39.1285 35.7781 39.0025 35.8659 38.8506C35.9536 38.6988 35.9999 38.5266 36.0001 38.3512V32L38.0001 33.155V39C38.0001 40.3261 37.4733 41.5978 36.5356 42.5355C35.5979 43.4732 34.3262 44 33.0001 44Z" fill="white"/>
<defs>
<linearGradient id="paint0_linear_140_9541" x1="-0.779816" y1="40.992" x2="66.1815" y2="37.0492" gradientUnits="userSpaceOnUse">
<stop stop-color="#5E72E4"/>
<stop offset="1" stop-color="#825EE4"/>
</linearGradient>
<linearGradient id="paint1_linear_140_9541" x1="1.52737e-07" y1="0.0676614" x2="64" y2="64.0677" gradientUnits="userSpaceOnUse">
<stop stop-opacity="0.1"/>
<stop offset="0.494792" stop-opacity="0.2"/>
<stop offset="1" stop-opacity="0.1"/>
</linearGradient>
</defs>
</svg>
