<svg width="65" height="64" viewBox="0 0 65 64" fill="none" xmlns="http://www.w3.org/2000/svg">
<rect x="1.16675" y="0.5" width="63" height="63" rx="11.5" fill="url(#paint0_linear_140_9568)"/>
<rect x="1.16675" y="0.5" width="63" height="63" rx="11.5" stroke="url(#paint1_linear_140_9568)"/>
<path fill-rule="evenodd" clip-rule="evenodd" d="M34.5268 17.7659C33.3552 17.1891 31.9781 17.1891 30.8065 17.7659L19.1372 23.5113C17.6209 24.2578 17.6209 26.4088 19.1372 27.1554L30.8065 32.9006C31.9781 33.4776 33.3552 33.4776 34.5268 32.9008L46.1961 27.1554C47.7124 26.4088 47.7124 24.2578 46.1961 23.5113L34.5268 17.7659ZM19.7931 36.8117C19.6074 36.7202 19.3898 36.7202 19.2041 36.8117L19.1372 36.8446C17.6209 37.5912 17.6209 39.7422 19.1372 40.4888L30.8065 46.2341C31.9781 46.8109 33.3552 46.8109 34.5268 46.2341L46.1961 40.4888C47.7124 39.7422 47.7124 37.5912 46.1961 36.8446L46.1292 36.8117C45.9435 36.7202 45.7259 36.7202 45.5403 36.8117L34.5268 42.2341C33.3552 42.8109 31.9781 42.8109 30.8065 42.2341L19.7931 36.8117Z" fill="white"/>
<path opacity="0.4" fill-rule="evenodd" clip-rule="evenodd" d="M19.2041 30.1449C19.3898 30.0534 19.6074 30.0534 19.7931 30.1449L30.8065 35.5673C31.9781 36.1441 33.3552 36.1441 34.5268 35.5673L45.5403 30.1449C45.7259 30.0534 45.9435 30.0534 46.1292 30.1449L46.1961 30.1778C47.7124 30.9244 47.7124 33.0754 46.1961 33.822L34.5268 39.5673C33.3552 40.1441 31.9781 40.1441 30.8065 39.5673L19.1372 33.822C17.6209 33.0754 17.6209 30.9244 19.1372 30.1778L19.2041 30.1449Z" fill="white"/>
<defs>
<linearGradient id="paint0_linear_140_9568" x1="-0.113068" y1="40.992" x2="66.8483" y2="37.0492" gradientUnits="userSpaceOnUse">
<stop stop-color="#5E72E4"/>
<stop offset="1" stop-color="#825EE4"/>
</linearGradient>
<linearGradient id="paint1_linear_140_9568" x1="0.666748" y1="0.0676614" x2="64.6667" y2="64.0677" gradientUnits="userSpaceOnUse">
<stop stop-opacity="0.1"/>
<stop offset="0.494792" stop-opacity="0.2"/>
<stop offset="1" stop-opacity="0.1"/>
</linearGradient>
</defs>
</svg>
