<svg width="64" height="64" viewBox="0 0 64 64" fill="none" xmlns="http://www.w3.org/2000/svg">
<rect x="0.5" y="0.5" width="63" height="63" rx="11.5" fill="url(#paint0_linear_140_9562)"/>
<rect x="0.5" y="0.5" width="63" height="63" rx="11.5" stroke="url(#paint1_linear_140_9562)"/>
<path d="M46.6625 29.3659C46.6625 25.3313 43.3986 22.0444 39.3723 22.0073C38.509 18.5281 35.3462 16 31.6877 16C27.322 16 23.7703 19.5518 23.7703 23.9175C23.7703 23.9551 23.7705 23.9927 23.771 24.0305C23.7341 24.0298 23.6973 24.0295 23.6604 24.0295C20.1602 24.0295 17.3125 26.8769 17.3125 30.3772C17.3125 33.8774 20.1602 36.7251 23.6604 36.7251H24.3725V39.301C23.2434 39.6921 22.4302 40.7656 22.4302 42.0261C22.4302 43.6159 23.7236 44.9094 25.3135 44.9094C26.9035 44.9094 28.197 43.6159 28.197 42.0261C28.197 40.7656 27.3835 39.6921 26.2544 39.301V36.7251H31.0466V42.3915C29.9175 42.7827 29.104 43.8561 29.104 45.1166C29.104 46.7065 30.3974 47.9999 31.9875 47.9999C33.5774 47.9999 34.8708 46.7065 34.8708 45.1166C34.8708 43.8561 34.0576 42.7827 32.9284 42.3915V36.7251H37.7204V39.301C36.5913 39.6921 35.778 40.7656 35.778 42.0261C35.778 43.6159 37.0715 44.9094 38.6613 44.9094C40.2514 44.9094 41.5449 43.6159 41.5449 42.0261C41.5449 40.7656 40.7314 39.6921 39.6022 39.301V36.7185C43.5222 36.561 46.6625 33.3237 46.6625 29.3659ZM25.3137 43.0278C24.7612 43.0278 24.312 42.5783 24.312 42.0261C24.312 41.4736 24.7612 41.0244 25.3137 41.0244C25.8659 41.0244 26.3152 41.4736 26.3152 42.0261C26.3152 42.5783 25.8659 43.0278 25.3137 43.0278ZM31.9875 46.1181C31.4353 46.1181 30.9861 45.6689 30.9861 45.1166C30.9861 44.5641 31.4353 44.1149 31.9875 44.1149C32.54 44.1149 32.9892 44.5641 32.9892 45.1166C32.9892 45.6689 32.5398 46.1181 31.9875 46.1181ZM38.6616 43.0278C38.1091 43.0278 37.6599 42.5783 37.6599 42.0261C37.6599 41.4736 38.1091 41.0244 38.6616 41.0244C39.2138 41.0244 39.6633 41.4736 39.6633 42.0261C39.6633 42.5783 39.2138 43.0278 38.6616 43.0278Z" fill="white"/>
<defs>
<linearGradient id="paint0_linear_140_9562" x1="-0.779816" y1="40.992" x2="66.1815" y2="37.0492" gradientUnits="userSpaceOnUse">
<stop stop-color="#5E72E4"/>
<stop offset="1" stop-color="#825EE4"/>
</linearGradient>
<linearGradient id="paint1_linear_140_9562" x1="1.52737e-07" y1="0.0676614" x2="64" y2="64.0677" gradientUnits="userSpaceOnUse">
<stop stop-opacity="0.1"/>
<stop offset="0.494792" stop-opacity="0.2"/>
<stop offset="1" stop-opacity="0.1"/>
</linearGradient>
</defs>
</svg>
