<svg width="65" height="64" viewBox="0 0 65 64" fill="none" xmlns="http://www.w3.org/2000/svg">
<rect x="1.16675" y="0.5" width="63" height="63" rx="11.5" fill="url(#paint0_linear_140_9546)"/>
<rect x="1.16675" y="0.5" width="63" height="63" rx="11.5" stroke="url(#paint1_linear_140_9546)"/>
<path d="M36.6668 23.2C36.6668 24.2609 36.2454 25.2783 35.4953 26.0284C34.7451 26.7786 33.7277 27.2 32.6668 27.2C31.606 27.2 30.5886 26.7786 29.8384 26.0284C29.0883 25.2783 28.6668 24.2609 28.6668 23.2C28.6668 22.1391 29.0883 21.1217 29.8384 20.3716C30.5886 19.6214 31.606 19.2 32.6668 19.2C33.7277 19.2 34.7451 19.6214 35.4953 20.3716C36.2454 21.1217 36.6668 22.1391 36.6668 23.2ZM26.2668 30.8C26.2668 29.696 27.1628 28.8 28.2668 28.8H37.0668C38.1708 28.8 39.0668 29.696 39.0668 30.8V38.4C39.0668 40.0974 38.3926 41.7253 37.1923 42.9255C35.9921 44.1257 34.3642 44.8 32.6668 44.8C30.9695 44.8 29.3416 44.1257 28.1414 42.9255C26.9411 41.7253 26.2668 40.0974 26.2668 38.4V30.8Z" fill="white"/>
<g opacity="0.4">
<path d="M43.7294 26.2627C44.3296 25.6626 44.6667 24.8487 44.6667 24C44.6667 23.1513 44.3296 22.3374 43.7294 21.7372C43.1293 21.1371 42.3154 20.8 41.4667 20.8C40.618 20.8 39.8041 21.1371 39.204 21.7372C38.6038 22.3374 38.2667 23.1513 38.2667 24C38.2667 24.8487 38.6038 25.6626 39.204 26.2627C39.8041 26.8628 40.618 27.2 41.4667 27.2C42.3154 27.2 43.1293 26.8628 43.7294 26.2627Z" fill="white"/>
<path d="M26.1294 26.2627C25.5293 26.8628 24.7154 27.2 23.8667 27.2C23.018 27.2 22.2041 26.8628 21.604 26.2627C21.0038 25.6626 20.6667 24.8487 20.6667 24C20.6667 23.1513 21.0038 22.3374 21.604 21.7372C22.2041 21.1371 23.018 20.8 23.8667 20.8C24.7154 20.8 25.5293 21.1371 26.1294 21.7372C26.7296 22.3374 27.0667 23.1513 27.0667 24C27.0667 24.8487 26.7296 25.6626 26.1294 26.2627Z" fill="white"/>
<path d="M25.2731 28.8C24.8907 29.3728 24.6667 30.0592 24.6667 30.8V38.4C24.6658 39.4852 24.8857 40.5593 25.3131 41.5568C24.6343 41.649 23.9437 41.5949 23.2876 41.3981C22.6315 41.2013 22.0251 40.8664 21.5092 40.4158C20.9933 39.9652 20.5798 39.4094 20.2965 38.7857C20.0132 38.1621 19.8666 37.485 19.8667 36.8V30.8C19.8667 29.696 20.7627 28.8 21.8667 28.8H25.2731Z" fill="white"/>
<path d="M40.0203 41.5568C40.4363 40.5888 40.6667 39.52 40.6667 38.4V30.8C40.6667 30.0592 40.4443 29.3728 40.0603 28.8H43.4667C44.5707 28.8 45.4667 29.696 45.4667 30.8V36.8C45.4667 38.073 44.961 39.2939 44.0608 40.1941C43.1606 41.0943 41.9397 41.6 40.6667 41.6C40.447 41.6 40.2315 41.5856 40.0203 41.5568Z" fill="white"/>
</g>
<defs>
<linearGradient id="paint0_linear_140_9546" x1="-0.113068" y1="40.992" x2="66.8483" y2="37.0492" gradientUnits="userSpaceOnUse">
<stop stop-color="#5E72E4"/>
<stop offset="1" stop-color="#825EE4"/>
</linearGradient>
<linearGradient id="paint1_linear_140_9546" x1="0.666748" y1="0.0676614" x2="64.6667" y2="64.0677" gradientUnits="userSpaceOnUse">
<stop stop-opacity="0.1"/>
<stop offset="0.494792" stop-opacity="0.2"/>
<stop offset="1" stop-opacity="0.1"/>
</linearGradient>
</defs>
</svg>
