<svg width="65" height="64" viewBox="0 0 65 64" fill="none" xmlns="http://www.w3.org/2000/svg">
<rect x="0.833496" y="0.5" width="63" height="63" rx="11.5" fill="url(#paint0_linear_140_9574)"/>
<rect x="0.833496" y="0.5" width="63" height="63" rx="11.5" stroke="url(#paint1_linear_140_9574)"/>
<rect x="24.3335" y="18.6667" width="16" height="8" rx="1" fill="white"/>
<path opacity="0.4" d="M17.6667 22.0667C17.3354 22.0667 17.0667 22.3353 17.0667 22.6667C17.0667 22.9981 17.3354 23.2667 17.6667 23.2667V22.0667ZM47.4243 41.7576C47.6587 41.5233 47.6587 41.1434 47.4243 40.9091L43.606 37.0907C43.3717 36.8564 42.9918 36.8564 42.7574 37.0907C42.5231 37.325 42.5231 37.7049 42.7574 37.9392L46.1516 41.3334L42.7574 44.7275C42.5231 44.9618 42.5231 45.3417 42.7574 45.576C42.9918 45.8103 43.3717 45.8103 43.606 45.576L47.4243 41.7576ZM17.6667 23.2667H42.3334V22.0667H17.6667V23.2667ZM42.3334 31.4H22.3334V32.6H42.3334V31.4ZM22.3334 41.9334H47.0001V40.7334H22.3334V41.9334ZM17.0667 36.6667C17.0667 39.5754 19.4247 41.9334 22.3334 41.9334V40.7334C20.0875 40.7334 18.2667 38.9126 18.2667 36.6667H17.0667ZM22.3334 31.4C19.4247 31.4 17.0667 33.758 17.0667 36.6667H18.2667C18.2667 34.4207 20.0875 32.6 22.3334 32.6V31.4ZM46.4001 27.3334C46.4001 29.5793 44.5794 31.4 42.3334 31.4V32.6C45.2421 32.6 47.6001 30.2421 47.6001 27.3334H46.4001ZM42.3334 23.2667C44.5794 23.2667 46.4001 25.0874 46.4001 27.3334H47.6001C47.6001 24.4247 45.2421 22.0667 42.3334 22.0667V23.2667Z" fill="white"/>
<rect x="24.3335" y="28" width="16" height="8" rx="1" fill="#A7A6EF"/>
<rect x="24.3335" y="37.3333" width="16" height="8" rx="1" fill="white"/>
<defs>
<linearGradient id="paint0_linear_140_9574" x1="-0.44632" y1="40.992" x2="66.515" y2="37.0492" gradientUnits="userSpaceOnUse">
<stop stop-color="#5E72E4"/>
<stop offset="1" stop-color="#825EE4"/>
</linearGradient>
<linearGradient id="paint1_linear_140_9574" x1="0.333496" y1="0.0676614" x2="64.3335" y2="64.0677" gradientUnits="userSpaceOnUse">
<stop stop-opacity="0.1"/>
<stop offset="0.494792" stop-opacity="0.2"/>
<stop offset="1" stop-opacity="0.1"/>
</linearGradient>
</defs>
</svg>
