<svg width="101" height="101" viewBox="0 0 101 101" fill="none" xmlns="http://www.w3.org/2000/svg">
<rect x="0.75" y="0.637695" width="100" height="100" rx="6.25" fill="#EEEDFF" fill-opacity="0.3"/>
<g clip-path="url(#clip0_309_1160)">
<path d="M30.4375 42.0439V34.2314C30.4375 33.4026 30.7667 32.6078 31.3528 32.0217C31.9388 31.4357 32.7337 31.1064 33.5625 31.1064H41.375M71.0625 42.0439V34.2314C71.0625 33.4026 70.7333 32.6078 70.1472 32.0217C69.5612 31.4357 68.7663 31.1064 67.9375 31.1064H60.125M30.4375 60.7939V68.6064C30.4375 69.4352 30.7667 70.2301 31.3528 70.8162C31.9388 71.4022 32.7337 71.7314 33.5625 71.7314H41.375M71.0625 60.7939V68.6064C71.0625 69.4352 70.7333 70.2301 70.1472 70.8162C69.5612 71.4022 68.7663 71.7314 67.9375 71.7314H60.125" stroke="url(#paint0_linear_309_1160)" stroke-width="3.125" stroke-linecap="round" stroke-linejoin="round"/>
<path d="M47.625 40.7627C47.625 40.1393 47.1234 39.6377 46.5 39.6377C45.8766 39.6377 45.375 40.1393 45.375 40.7627V42.6377H45C43.3453 42.6377 42 43.983 42 45.6377V46.0127H40.125C39.5016 46.0127 39 46.5143 39 47.1377C39 47.7611 39.5016 48.2627 40.125 48.2627H42V50.5127H40.125C39.5016 50.5127 39 51.0143 39 51.6377C39 52.2611 39.5016 52.7627 40.125 52.7627H42V55.0127H40.125C39.5016 55.0127 39 55.5143 39 56.1377C39 56.7611 39.5016 57.2627 40.125 57.2627H42V57.6377C42 59.2924 43.3453 60.6377 45 60.6377H45.375V62.5127C45.375 63.1361 45.8766 63.6377 46.5 63.6377C47.1234 63.6377 47.625 63.1361 47.625 62.5127V60.6377H49.875V62.5127C49.875 63.1361 50.3766 63.6377 51 63.6377C51.6234 63.6377 52.125 63.1361 52.125 62.5127V60.6377H54.375V62.5127C54.375 63.1361 54.8766 63.6377 55.5 63.6377C56.1234 63.6377 56.625 63.1361 56.625 62.5127V60.6377H57C58.6547 60.6377 60 59.2924 60 57.6377V57.2627H61.875C62.4984 57.2627 63 56.7611 63 56.1377C63 55.5143 62.4984 55.0127 61.875 55.0127H60V52.7627H61.875C62.4984 52.7627 63 52.2611 63 51.6377C63 51.0143 62.4984 50.5127 61.875 50.5127H60V48.2627H61.875C62.4984 48.2627 63 47.7611 63 47.1377C63 46.5143 62.4984 46.0127 61.875 46.0127H60V45.6377C60 43.983 58.6547 42.6377 57 42.6377H56.625V40.7627C56.625 40.1393 56.1234 39.6377 55.5 39.6377C54.8766 39.6377 54.375 40.1393 54.375 40.7627V42.6377H52.125V40.7627C52.125 40.1393 51.6234 39.6377 51 39.6377C50.3766 39.6377 49.875 40.1393 49.875 40.7627V42.6377H47.625V40.7627ZM57.75 45.6377V57.6377C57.75 58.0502 57.4125 58.3877 57 58.3877H45C44.5875 58.3877 44.25 58.0502 44.25 57.6377V45.6377C44.25 45.2252 44.5875 44.8877 45 44.8877H57C57.4125 44.8877 57.75 45.2252 57.75 45.6377ZM48 47.1377C47.1703 47.1377 46.5 47.808 46.5 48.6377V54.6377C46.5 55.4674 47.1703 56.1377 48 56.1377H54C54.8297 56.1377 55.5 55.4674 55.5 54.6377V48.6377C55.5 47.808 54.8297 47.1377 54 47.1377H48ZM48.75 49.3877H53.25V53.8877H48.75V49.3877Z" fill="url(#paint1_linear_309_1160)" stroke="url(#paint2_linear_309_1160)" stroke-width="0.5" stroke-linecap="round" stroke-linejoin="round"/>
</g>
<defs>
<linearGradient id="paint0_linear_309_1160" x1="30.4375" y1="51.5553" x2="69.9518" y2="58.1801" gradientUnits="userSpaceOnUse">
<stop stop-color="#3B47C2"/>
<stop offset="1" stop-color="#4DA5CF"/>
</linearGradient>
<linearGradient id="paint1_linear_309_1160" x1="39" y1="51.7182" x2="62.3438" y2="55.632" gradientUnits="userSpaceOnUse">
<stop stop-color="#3B47C2"/>
<stop offset="1" stop-color="#4DA5CF"/>
</linearGradient>
<linearGradient id="paint2_linear_309_1160" x1="39" y1="51.7182" x2="62.3438" y2="55.632" gradientUnits="userSpaceOnUse">
<stop stop-color="#3B47C2"/>
<stop offset="1" stop-color="#4DA5CF"/>
</linearGradient>
<clipPath id="clip0_309_1160">
<rect width="43.75" height="43.75" fill="white" transform="translate(28.875 29.5439)"/>
</clipPath>
</defs>
</svg>
