<svg width="17" height="16" viewBox="0 0 17 16" fill="none" xmlns="http://www.w3.org/2000/svg">
<g clip-path="url(#clip0_375_12519)">
<path d="M8.5 0C7.39687 0 6.5 0.896875 6.5 2V4H2.5C1.39688 4 0.5 4.89687 0.5 6V14C0.5 15.1031 1.39688 16 2.5 16H8.5H14.5C15.6031 16 16.5 15.1031 16.5 14V6V2C16.5 0.896875 15.6031 0 14.5 0H8.5ZM2.5 9.5C2.5 9.225 2.725 9 3 9H4C4.275 9 4.5 9.225 4.5 9.5V10.5C4.5 10.775 4.275 11 4 11H3C2.725 11 2.5 10.775 2.5 10.5V9.5ZM9 10C8.725 10 8.5 9.775 8.5 9.5V8.5C8.5 8.225 8.725 8 9 8H10C10.275 8 10.5 8.225 10.5 8.5V9.5C10.5 9.775 10.275 10 10 10H9ZM12.5 9.5V8.5C12.5 8.225 12.725 8 13 8H14C14.275 8 14.5 8.225 14.5 8.5V9.5C14.5 9.775 14.275 10 14 10H13C12.725 10 12.5 9.775 12.5 9.5ZM3 6H4C4.275 6 4.5 6.225 4.5 6.5V7.5C4.5 7.775 4.275 8 4 8H3C2.725 8 2.5 7.775 2.5 7.5V6.5C2.5 6.225 2.725 6 3 6ZM8.5 2.5C8.5 2.225 8.725 2 9 2H10C10.275 2 10.5 2.225 10.5 2.5V3.5C10.5 3.775 10.275 4 10 4H9C8.725 4 8.5 3.775 8.5 3.5V2.5ZM13 2H14C14.275 2 14.5 2.225 14.5 2.5V3.5C14.5 3.775 14.275 4 14 4H13C12.725 4 12.5 3.775 12.5 3.5V2.5C12.5 2.225 12.725 2 13 2ZM8.5 6.5V5.5C8.5 5.225 8.725 5 9 5H10C10.275 5 10.5 5.225 10.5 5.5V6.5C10.5 6.775 10.275 7 10 7H9C8.725 7 8.5 6.775 8.5 6.5ZM13 7C12.725 7 12.5 6.775 12.5 6.5V5.5C12.5 5.225 12.725 5 13 5H14C14.275 5 14.5 5.225 14.5 5.5V6.5C14.5 6.775 14.275 7 14 7H13Z" fill="#3B47C2"/>
</g>
<defs>
<clipPath id="clip0_375_12519">
<rect width="16" height="16" fill="white" transform="translate(0.5)"/>
</clipPath>
</defs>
</svg>
