<svg width="150" height="64" viewBox="0 0 150 64" fill="none" xmlns="http://www.w3.org/2000/svg">
<rect width="150" height="64" fill="white"/>
<path d="M39.0667 36.6584V36.6398C39.0667 34.5342 37.5733 33.3975 35.2027 33.3975H30.704V44H33.0373V40.0683H34.288L36.9387 44H39.664L36.752 39.7888C38.04 39.3043 39.0667 38.3168 39.0667 36.6584ZM36.696 36.6957C36.696 37.5342 36.024 37.9627 35.0347 37.9627H33.0373V35.4845H34.9973C36.0613 35.4845 36.7147 35.8012 36.7147 36.677V36.6957H36.696ZM24.3387 38H28.7627V42.3789C27.7173 43.2547 26.2613 43.9814 24.3947 43.9814C21.2027 43.9814 19 41.7453 19 38.7453V38.7081C19 35.7826 21.2587 33.4161 24.376 33.4161C26.224 33.4161 27.3253 33.9193 28.3893 34.8137L26.9893 36.5279C26.1867 35.8758 25.4773 35.4845 24.32 35.4845C22.6773 35.4845 21.352 36.9379 21.352 38.6894V38.7081C21.352 40.5901 22.64 41.9503 24.488 41.9503C25.3093 41.9503 26.0373 41.764 26.5973 41.354V39.9565H24.3387V38ZM59.4133 33.3789H61.728V39.1925C61.728 42.3975 59.936 43.9814 57.0613 43.9814C54.224 43.9814 52.4693 42.3789 52.4693 39.2671V33.3789H54.8027V39.1925C54.8027 40.9255 55.6613 41.8012 57.0987 41.8012C58.536 41.8012 59.3947 40.9627 59.3947 39.2671C59.4133 39.2857 59.4133 33.3789 59.4133 33.3789ZM68.0187 33.3789H63.52V43.9814H65.8533V40.3851H67.7947C69.792 40.3851 71.864 39.1925 71.864 36.8075V36.7888C71.864 34.7019 70.3707 33.3789 68.0187 33.3789ZM69.512 36.8634C69.512 37.7019 68.9707 38.3168 67.8507 38.3168H65.8533V35.4845H67.7947C68.9893 35.4845 69.512 35.9876 69.512 36.8447C69.512 36.8447 69.512 36.8634 69.512 36.8634ZM45.5627 33.3789C42.3893 33.3789 40.0933 35.764 40.0933 38.6708V38.7081C40.0933 41.6149 42.352 43.9814 45.5253 43.9814C48.6987 43.9814 50.9947 41.5963 50.9947 38.6522V38.6335C50.9947 35.7453 48.736 33.3789 45.5627 33.3789ZM48.6427 38.7267C48.6427 40.4783 47.3547 41.913 45.5627 41.913C43.7333 41.913 42.4267 40.441 42.4267 38.6894V38.6708C42.4267 36.9193 43.7147 35.4658 45.5067 35.4658C47.336 35.4658 48.6427 36.9379 48.6427 38.6894C48.6427 38.6894 48.6427 38.7267 48.6427 38.7267ZM44.6853 20.0559L40.168 30.6584H42.5573L43.528 28.2733H48.008L48.9787 30.6584H51.4053L46.888 20.0559C46.888 20.0559 44.6853 20.0559 44.6853 20.0559ZM44.3493 26.2236L45.7493 22.7764L47.1493 26.2236H44.3493ZM109.365 20L104.811 30.6584H107.2L108.171 28.2733H112.651L113.621 30.6584H116.048L111.531 20H109.365ZM108.992 26.2236L110.392 22.7764L111.829 26.2236H108.992ZM94.6187 23.3354V23.3168C94.6187 21.2112 93.1253 20.0745 90.7547 20.0745H86.256V30.677H88.5893V26.7453H89.84L92.4907 30.677H95.216L92.304 26.4658C93.6107 25.9814 94.6187 24.9938 94.6187 23.3354ZM92.2667 23.3727C92.2667 24.2112 91.5947 24.6398 90.6053 24.6398H88.608V22.1615H90.5493C91.6133 22.1615 92.2667 22.4783 92.2667 23.354V23.3727ZM32.216 30.6584H29.8827V20.0559H32.216V24.2484H36.808V20.0559H39.1413V30.6584H36.808V26.3913H32.216V30.6584ZM62.512 30.6584V24.1739L59.152 30.6584H58.1067L54.784 24.2112V30.6584H52.4693V20.0559H55.12L58.7227 27.1553L62.1387 20.0559H64.8267V30.6584H62.512ZM131 20.0559V30.6584H129.021L123.888 23.9317V30.6584H121.573V20.0559H123.739L128.704 26.5963V20.0559H131ZM19 25.3851V25.3665C19 22.4783 21.184 20.0932 24.3387 20.0932C26.2613 20.0932 27.4 20.7267 28.3707 21.6584L26.9333 23.2981C26.1307 22.5901 25.3467 22.1429 24.32 22.1429C22.584 22.1429 21.352 23.5776 21.352 25.3292V25.3478C21.352 27.0994 22.5653 28.5528 24.32 28.5528C25.496 28.5528 26.2053 28.087 27.008 27.3602L28.4267 28.795C27.3813 29.913 26.2053 30.6025 24.2267 30.6025C21.24 30.6398 19 28.3106 19 25.3851ZM79.0133 28.5901H84.7813V30.6584H76.6987V20.0559H84.7253V22.1242H79.032V24.2671H84.0347V26.3354H79.032L79.0133 28.5901ZM98.744 28.5342H104.101V30.6584H96.4107V20.0559H98.744V28.5342ZM117.205 20.0559H119.539V30.6584H117.205V20.0559ZM73.5627 25.2547C74.552 24.7516 75.1493 23.8758 75.1493 22.8323V22.8137C75.1493 21.1739 73.88 20.0745 71.6587 20.0745H66.768V30.677H71.3413C73.7493 30.677 75.336 29.7081 75.336 27.7702V27.7143C75.3173 26.4845 74.664 25.7019 73.5627 25.2547ZM69.0267 22.1242H71.304C72.2747 22.1242 72.816 22.5155 72.816 23.205V23.2236C72.816 24.0807 72.1627 24.4348 71.1547 24.4348H69.0267C69.0267 24.4348 69.0267 22.1242 69.0267 22.1242ZM72.984 27.4534C72.984 28.2547 72.3867 28.6087 71.3413 28.6087H69.0453V26.2981H71.2853C72.48 26.2981 73.0027 26.7267 73.0027 27.4534H72.984Z" fill="#004079"/>
</svg>
