<svg width="16" height="17" viewBox="0 0 16 17" fill="none" xmlns="http://www.w3.org/2000/svg">
<path d="M8 0.640137C6.41775 0.640137 4.87103 1.10933 3.55544 1.98838C2.23985 2.86743 1.21447 4.11686 0.608967 5.57867C0.00346633 7.04048 -0.15496 8.64901 0.153721 10.2009C0.462403 11.7527 1.22433 13.1782 2.34315 14.297C3.46197 15.4158 4.88743 16.1777 6.43928 16.4864C7.99113 16.7951 9.59966 16.6367 11.0615 16.0312C12.5233 15.4257 13.7727 14.4003 14.6518 13.0847C15.5308 11.7691 16 10.2224 16 8.64014C16 6.5184 15.1571 4.48357 13.6569 2.98328C12.1566 1.48299 10.1217 0.640137 8 0.640137ZM12.1143 7.38299L7.54286 11.9544C7.33185 12.1698 7.04431 12.293 6.74286 12.2973C6.59165 12.2966 6.44207 12.266 6.30278 12.2072C6.1635 12.1483 6.03728 12.0624 5.93143 11.9544L3.88572 9.86299C3.67051 9.64779 3.54961 9.35591 3.54961 9.05156C3.54961 8.90087 3.57929 8.75165 3.63696 8.61242C3.69463 8.4732 3.77916 8.34669 3.88572 8.24014C3.99228 8.13358 4.11878 8.04905 4.258 7.99138C4.39723 7.93371 4.54645 7.90403 4.69715 7.90403C5.00149 7.90403 5.29337 8.02493 5.50857 8.24014L6.56 9.30299C6.61742 9.35238 6.69002 9.38061 6.76572 9.38299C6.83806 9.38088 6.90715 9.35243 6.96 9.30299L10.4914 5.77156C10.5977 5.66445 10.7241 5.57942 10.8633 5.5214C11.0026 5.46338 11.152 5.43351 11.3029 5.43351C11.4537 5.43351 11.6031 5.46338 11.7424 5.5214C11.8816 5.57942 12.008 5.66445 12.1143 5.77156C12.3271 5.98569 12.4466 6.27535 12.4466 6.57728C12.4466 6.87921 12.3271 7.16886 12.1143 7.38299Z" fill="#BEC3DC"/>
</svg>
