<svg width="41" height="40" viewBox="0 0 41 40" fill="none" xmlns="http://www.w3.org/2000/svg">
<g clip-path="url(#clip0_149_17061)">
<path d="M30.3379 11.5874C29.5566 12.3687 29.5566 13.6374 30.3379 14.4187L35.9191 19.9999L30.3316 25.5874C29.5504 26.3687 29.5504 27.6374 30.3316 28.4187C31.1129 29.1999 32.3816 29.1999 33.1629 28.4187L40.1629 21.4187C40.9441 20.6374 40.9441 19.3687 40.1629 18.5874L33.1629 11.5874C32.3816 10.8062 31.1129 10.8062 30.3316 11.5874H30.3379ZM11.1691 11.5874C10.3879 10.8062 9.11914 10.8062 8.33789 11.5874L1.33789 18.5874C0.556641 19.3687 0.556641 20.6374 1.33789 21.4187L8.33789 28.4187C9.11914 29.1999 10.3879 29.1999 11.1691 28.4187C11.9504 27.6374 11.9504 26.3687 11.1691 25.5874L5.58164 19.9999L11.1691 14.4124C11.9504 13.6312 11.9504 12.3624 11.1691 11.5812V11.5874Z" fill="#3B47C2"/>
<path opacity="0.8" d="M25.3005 4.07496C24.238 3.76871 23.1317 4.38747 22.8255 5.44997L14.8255 33.45C14.5192 34.5125 15.138 35.6187 16.2005 35.925C17.263 36.2312 18.3692 35.6125 18.6755 34.55L26.6755 6.54996C26.9817 5.48746 26.363 4.38121 25.3005 4.07496Z" fill="#6BDBE3"/>
</g>
<defs>
<clipPath id="clip0_149_17061">
<rect width="40" height="40" fill="white" transform="translate(0.75)"/>
</clipPath>
</defs>
</svg>
