<svg width="17" height="12" viewBox="0 0 17 12" fill="none" xmlns="http://www.w3.org/2000/svg">
<g clip-path="url(#clip0_812_10705)">
<path d="M17.0001 0.000133545C16.9988 0.0432859 16.9954 0.0864382 16.9954 0.128916C16.9954 3.77529 16.9954 7.42099 16.9954 11.0674C16.9954 11.1071 16.9954 11.1476 16.9954 11.1928C16.9684 11.1975 16.9489 11.2022 16.928 11.2042C16.9064 11.2063 16.8848 11.2042 16.8633 11.2042C13.407 11.2042 9.95079 11.2042 6.49388 11.2042H6.36308C6.35701 10.9858 6.36105 10.7768 6.36038 10.5677C6.3597 10.3607 6.36038 10.1537 6.36038 9.94068C6.2943 9.92922 6.23632 9.91776 6.17833 9.90899C5.12245 9.74919 4.13871 9.39925 3.24397 8.80995C2.8738 8.56655 2.53061 8.28808 2.21169 7.98062C1.49091 7.28479 0.925206 6.47433 0.454576 5.5951C0.303543 5.31259 0.168692 5.02131 0.027098 4.73408C0.0176584 4.7152 0.0102416 4.69497 -0.0012207 4.668C0.0163099 4.6498 0.0331663 4.62957 0.0527197 4.61204C0.814628 3.94453 1.61632 3.33163 2.49285 2.82054C3.41321 2.28384 4.38616 1.87591 5.42923 1.64801C5.71579 1.58531 6.00639 1.54283 6.29498 1.49159C6.30779 1.48956 6.3206 1.48619 6.34352 1.48215C6.34622 1.44237 6.35161 1.40326 6.35161 1.36415C6.35161 0.946114 6.35161 0.52875 6.35161 0.110711C6.35161 0.0729531 6.35296 0.0351948 6.35364 -0.00256348C9.90359 0.000133545 13.4522 0.000133545 17.0001 0.000133545ZM11.2521 4.69767C11.2352 4.7206 11.2197 4.74285 11.2029 4.76375C11.1233 4.86219 11.0451 4.96198 10.9635 5.05907C10.5023 5.61129 9.99934 6.11968 9.41745 6.5458C9.06414 6.80472 8.696 7.03734 8.28673 7.19848C7.95364 7.32996 7.6091 7.40953 7.24972 7.42031C6.99013 7.4284 6.73324 7.40346 6.47972 7.34817C6.4069 7.33266 6.37521 7.35559 6.37454 7.42706C6.37252 7.63473 6.37252 7.84172 6.37454 8.04939C6.37454 8.10873 6.38128 8.11547 6.44668 8.12289C6.61794 8.14312 6.78853 8.16941 6.95979 8.17818C7.39873 8.2011 7.83026 8.14244 8.25504 8.03186C8.77961 7.89499 9.27047 7.67518 9.74514 7.41694C10.327 7.10072 10.8637 6.71774 11.3735 6.29498C11.9574 5.81019 12.4927 5.27618 13.0018 4.71385C13.0308 4.68216 13.0348 4.65587 13.0058 4.62283C12.9721 4.5844 12.9411 4.54394 12.9081 4.50483C12.5595 4.09219 12.1765 3.71326 11.7591 3.37074C10.8685 2.63984 9.88269 2.08291 8.77624 1.74915C8.40203 1.63588 8.02107 1.5516 7.63135 1.51316C7.47627 1.49765 7.31984 1.4835 7.16409 1.48147C6.97328 1.47878 6.78246 1.48822 6.59097 1.49361C6.54243 1.49496 6.49388 1.49968 6.44601 1.50709C6.36847 1.51856 6.36712 1.52058 6.36712 1.59879C6.36712 1.80916 6.36712 2.01885 6.36712 2.22922C6.36712 2.25282 6.37117 2.27575 6.37386 2.30811C6.41836 2.30946 6.45747 2.31216 6.49725 2.31081C6.98204 2.29597 7.46009 2.33913 7.93139 2.4551C8.49372 2.59399 9.01357 2.83066 9.50376 3.1361C10.1591 3.54469 10.7228 4.05848 11.2184 4.64845C11.2305 4.66261 11.24 4.67879 11.2521 4.69632V4.69767ZM6.37858 9.06819C6.37386 9.07831 6.36982 9.08303 6.36982 9.08775C6.36847 9.33857 6.36847 9.58872 6.36712 9.83954C6.36712 9.88 6.3887 9.89685 6.42511 9.90292C6.51276 9.91775 6.59974 9.93731 6.68739 9.9481C6.98002 9.98248 7.27332 9.97844 7.56662 9.96091C7.93746 9.93866 8.30628 9.89281 8.67308 9.83347C9.20709 9.74649 9.73638 9.63524 10.2609 9.50376C11.2285 9.26238 12.1785 8.96638 13.107 8.60161C13.6916 8.37169 14.2647 8.11749 14.8075 7.79925C15.0704 7.64484 15.3246 7.47695 15.5458 7.26523C15.6051 7.20792 15.6644 7.14994 15.7116 7.07307C15.6705 7.04745 15.6375 7.0252 15.6031 7.00565C15.1149 6.72448 14.6268 6.44399 14.1393 6.1635C14.0503 6.11226 13.9626 6.06034 13.8729 6.01045C13.7765 5.95651 13.794 5.94976 13.7077 6.0246C13.7057 6.02663 13.7037 6.02798 13.7017 6.03C13.0679 6.58356 12.4118 7.10881 11.7066 7.56932C11.3 7.83498 10.8806 8.07704 10.4416 8.28538C9.69255 8.64072 8.91244 8.89289 8.08917 9.00684C7.78171 9.04931 7.47357 9.07494 7.16409 9.07966C6.97058 9.08303 6.77639 9.07156 6.58221 9.06752C6.51546 9.06617 6.44871 9.06752 6.37858 9.06752V9.06819ZM6.32262 3.33702V2.32564C6.28217 2.32564 6.24778 2.32227 6.21407 2.32564C5.83648 2.37149 5.46429 2.44094 5.0975 2.5441C3.75573 2.92168 2.67085 3.68426 1.7869 4.74959C1.75319 4.79072 1.7478 4.82713 1.766 4.875C1.79837 4.96063 1.82466 5.04828 1.8577 5.13391C2.30069 6.27003 2.99315 7.2268 3.93104 8.00489C4.35042 8.35281 4.80892 8.63802 5.32337 8.82681C5.62611 8.93739 5.93762 9.00818 6.26194 9.01088C6.34959 9.01156 6.35498 9.00684 6.35498 8.92121C6.35566 8.68387 6.35498 8.4472 6.35498 8.20987C6.35498 8.12424 6.35296 8.12289 6.2707 8.09794C5.89514 7.98467 5.53644 7.83296 5.19527 7.64012C4.54461 7.27198 3.99307 6.79528 3.57975 6.16687C3.34241 5.80547 3.1725 5.41508 3.08822 4.98895C3.07676 4.93231 3.09159 4.90062 3.1307 4.86354C3.98295 4.04904 4.99703 3.56425 6.15473 3.36804C6.21002 3.3586 6.26463 3.34781 6.32127 3.33702H6.32262ZM6.38802 4.2385C6.43185 4.2439 6.47163 4.25064 6.51141 4.25468C6.84449 4.28435 7.13577 4.41111 7.38727 4.62957C7.55516 4.77588 7.69675 4.94512 7.81745 5.13054C7.96713 5.36046 8.1094 5.59578 8.25504 5.8284C8.27189 5.85469 8.29077 5.87964 8.3083 5.90526C8.32381 5.89919 8.3319 5.89717 8.33797 5.89245C8.79512 5.50678 9.25159 5.12043 9.70873 4.73475C9.72289 4.72262 9.73503 4.70846 9.74851 4.69497C9.74986 4.69362 9.74986 4.69025 9.75054 4.68756C9.75054 4.68486 9.75054 4.68216 9.75054 4.67137C9.26979 4.15287 8.71758 3.72877 8.03523 3.49412C7.49987 3.31005 6.95035 3.26016 6.39139 3.33096C6.36847 3.40782 6.36577 4.1468 6.38802 4.23918V4.2385ZM6.32195 7.30097C6.32397 7.25512 6.32667 7.22545 6.32667 7.19646C6.32667 7.01306 6.32667 6.83034 6.32667 6.64694C6.32667 5.86818 6.32667 5.09009 6.32667 4.31132C6.32667 4.21895 6.32329 4.2176 6.2316 4.21423C5.90795 4.20412 5.59982 4.27087 5.30854 4.41111C4.97613 4.57091 4.70104 4.80757 4.4428 5.06581C4.41043 5.09818 4.41043 5.12852 4.42594 5.16763C4.54326 5.46902 4.67676 5.76299 4.846 6.03944C5.18111 6.58491 5.63083 7.00025 6.21879 7.26052C6.24778 7.27333 6.27745 7.28277 6.32195 7.3003V7.30097Z" fill="#3B47C2"/>
</g>
<defs>
<clipPath id="clip0_812_10705">
<rect width="17" height="11.2055" rx="2" fill="white"/>
</clipPath>
</defs>
</svg>
