<svg width="150" height="64" viewBox="0 0 150 64" fill="none" xmlns="http://www.w3.org/2000/svg">
<rect width="150" height="64" fill="white"/>
<path fill-rule="evenodd" clip-rule="evenodd" d="M20.002 32.1295C20.1009 25.966 25.128 21 31.3152 21C34.3416 21 37.0904 22.1882 39.1207 24.1235C38.5359 23.5988 37.763 23.2797 36.9155 23.2797C35.0909 23.2797 33.6117 24.7588 33.6117 26.5835C33.6117 27.4596 33.9528 28.2561 34.5095 28.8475C33.6695 28.0733 32.5476 27.6003 31.3152 27.6003C28.7512 27.6003 26.6652 29.6471 26.6023 32.196C26.5397 30.4265 25.0855 29.011 23.3005 29.011C21.5381 29.011 20.0982 30.391 20.002 32.1295Z" fill="url(#paint0_linear_4492_12058)"/>
<path fill-rule="evenodd" clip-rule="evenodd" d="M20.0077 32.0454C20.109 30.3456 21.5452 28.9979 23.302 28.9979C25.1017 28.9979 26.565 30.4123 26.6011 32.1708C26.6014 32.1792 26.6017 32.1875 26.602 32.1959C26.6018 32.2017 26.6017 32.2072 26.6017 32.2129C26.6017 32.2211 26.6018 32.2293 26.6018 32.2375C26.6018 32.2667 26.6015 32.2959 26.6003 32.3249C26.6004 32.3612 26.6009 32.3974 26.6018 32.4335C26.6648 34.9823 28.7507 37.0292 31.3147 37.0292C32.5686 37.0292 33.7082 36.5396 34.5526 35.7412C34.013 36.3292 33.6836 37.1133 33.6836 37.9743C33.6836 39.7989 35.1628 41.278 36.9874 41.278C37.85 41.278 38.6353 40.9474 39.2237 40.406C37.1837 42.4003 34.3928 43.6295 31.3147 43.6295C25.1275 43.6295 20.1005 38.6635 20.0014 32.5C20.0006 32.4384 20 32.3765 20 32.3147C20 32.2528 20.0006 32.191 20.0014 32.1294C20.0029 32.1013 20.0051 32.0733 20.0073 32.0454L20.0077 32.0454Z" fill="url(#paint1_linear_4492_12058)"/>
<path fill-rule="evenodd" clip-rule="evenodd" d="M38.1375 41.0733C37.775 41.2115 37.3819 41.2871 36.9712 41.2871C35.1555 41.2871 33.6836 39.8091 33.6836 37.9857C33.6836 37.6836 33.724 37.391 33.7997 37.113C33.9394 36.5941 34.2024 36.1257 34.5553 35.7411C34.5735 35.7239 34.5914 35.7067 34.6093 35.6892C34.6367 35.6608 34.6647 35.6329 34.693 35.6054C34.7126 35.5854 34.732 35.5651 34.7512 35.5447C35.5452 34.701 36.0317 33.5646 36.0317 32.3146C36.0317 31.043 35.5282 29.889 34.7097 29.0409C35.2948 29.5669 36.0688 29.887 36.9175 29.887C38.7421 29.887 40.2212 28.4078 40.2212 26.5832C40.2212 25.7085 39.8813 24.9133 39.3264 24.3223C41.369 26.3692 42.6319 29.1945 42.6319 32.3145C42.6319 35.3828 41.4106 38.1657 39.4278 40.2038C39.3615 40.272 39.2943 40.3393 39.2263 40.4058C38.9131 40.694 38.5442 40.9227 38.1375 41.0733Z" fill="url(#paint2_linear_4492_12058)"/>
<path fill-rule="evenodd" clip-rule="evenodd" d="M33.5919 26.5822C33.5919 27.4625 33.9351 28.2628 34.4952 28.8569C34.5635 28.9198 34.63 28.9847 34.6945 29.0514C35.2832 29.5799 36.0619 29.9015 36.9158 29.9015C38.7516 29.9015 40.2398 28.4154 40.2398 26.5822C40.2398 25.7033 39.8977 24.9044 39.3395 24.3106C39.272 24.2431 39.2037 24.1764 39.1345 24.1106C38.5461 23.5835 37.7685 23.2628 36.9158 23.2628C35.08 23.2628 33.5919 24.7489 33.5919 26.5822Z" fill="#63FBF5"/>
<path d="M48 22.3203V41.0562H51.6066V33.4036H60.572V41.0562H64.1768V22.3203H60.572V29.9728H51.6066V22.3203H48ZM84.0426 22.3203V41.0562H87.6486V22.3203H84.0426ZM73.121 27.993C69.4592 27.993 66.519 30.8962 66.519 34.669C66.5101 36.3121 67.1205 37.904 68.2393 39.1559C69.5268 40.5361 71.3749 41.3239 73.3147 41.3198C74.6871 41.3375 76.0192 40.8776 77.06 40.0265V41.0509H80.527V28.2636H77.06V29.2933C75.9457 28.4376 74.5528 27.9776 73.121 27.993ZM107.532 27.9946C105.535 27.9946 103.844 28.918 102.761 29.9993C101.642 28.7257 99.9838 27.993 98.2385 28C96.8998 27.9833 95.603 28.4447 94.6046 29.2932V28.2581H91.1382V41.0561L94.7498 41.0524V32.7396C95.2484 32.1327 96.3516 31.1575 97.8837 31.1575C98.6464 31.1388 99.382 31.4278 99.9089 31.9529C100.324 32.4021 100.574 32.9823 100.574 34.1431V41.0525H104.179V34.2717C104.174 33.7946 104.137 33.3181 104.069 32.8456C104.54 32.1857 105.761 31.1576 107.314 31.1576C108.077 31.1389 108.812 31.4279 109.338 31.9529C109.755 32.4021 110.004 32.9823 110.004 34.1431V41.0562H113.606V34.2753C113.606 32.375 113.107 31.0557 112.247 30.0524C111.166 28.7896 109.39 27.9946 107.532 27.9946ZM122.594 27.9946C118.934 27.9946 115.993 30.8979 115.993 34.6706C115.984 36.3129 116.594 37.9037 117.711 39.1559C118.999 40.5358 120.847 41.3239 122.788 41.3197C124.16 41.3378 125.492 40.8779 126.532 40.0264V41.0508H129.998L130 28.258H126.533V29.2878C125.418 28.4343 124.025 27.9771 122.594 27.9946ZM73.5926 31.1558C74.9031 31.1516 76.1383 31.739 76.9217 32.7384V36.5585C76.1789 37.5622 74.9666 38.1562 73.6764 38.1486C71.6512 38.1486 70.1256 36.6714 70.1256 34.6652C70.1256 32.8179 71.4852 31.1558 73.5926 31.1558ZM123.064 31.1558C124.375 31.1516 125.61 31.739 126.393 32.7384V36.5585C125.65 37.5618 124.438 38.1557 123.148 38.1486C121.122 38.1486 119.597 36.6714 119.597 34.6652C119.597 32.8179 120.956 31.1558 123.064 31.1558Z" fill="#4D4A40"/>
<defs>
<linearGradient id="paint0_linear_4492_12058" x1="33.2692" y1="25.175" x2="23.6276" y2="31.7253" gradientUnits="userSpaceOnUse">
<stop stop-color="#29D2DC"/>
<stop offset="1" stop-color="#80F156"/>
</linearGradient>
<linearGradient id="paint1_linear_4492_12058" x1="23.1384" y1="33.7358" x2="30.6828" y2="40.6675" gradientUnits="userSpaceOnUse">
<stop stop-color="#A7FF18"/>
<stop offset="1" stop-color="#5DAE00"/>
</linearGradient>
<linearGradient id="paint2_linear_4492_12058" x1="38.7278" y1="29.0503" x2="38.7278" y2="39.0056" gradientUnits="userSpaceOnUse">
<stop stop-color="#9FFFCE"/>
<stop offset="1" stop-color="#C8FD5A"/>
</linearGradient>
</defs>
</svg>
