<svg width="150" height="64" viewBox="0 0 150 64" fill="none" xmlns="http://www.w3.org/2000/svg">
<rect width="150" height="64" fill="white"/>
<path d="M42.6429 26.0795V26.0773L49.3849 29.9698L49.3876 29.965L51.9778 31.468L56.3733 28.9303L56.3623 23.8145L51.9373 21.247L47.5419 23.7847L47.5469 26.0773L42.6367 23.2424L42.6352 22.518C42.6331 21.5523 43.1474 20.6592 43.9838 20.1763L50.5914 16.3614C51.4278 15.8785 52.4584 15.8796 53.2938 16.3643L59.92 20.2091C60.7498 20.6906 61.2614 21.5767 61.2634 22.5361L61.28 30.197C61.2822 31.1627 60.7677 32.0558 59.9314 32.5387L53.3237 36.3536C52.4874 36.8365 51.4567 36.8354 50.6215 36.3508L47.5392 34.5623V34.5674L40.3061 30.3914L40.3053 30.3926L35.7696 27.7738L28.904 31.7378V39.6655L35.7696 43.6293L42.6352 39.6655V34.5674L47.5392 37.3987V40.9395C47.5392 41.9032 47.0252 42.7936 46.1906 43.2753L37.1182 48.5133C36.2837 48.9951 35.2555 48.9951 34.421 48.5133L25.3486 43.2753C24.5141 42.7936 24 41.9032 24 40.9395V30.4636C24 29.5 24.5141 28.6095 25.3486 28.1278L34.421 22.8898C35.2555 22.408 36.2837 22.408 37.1182 22.8898L42.6429 26.0795Z" fill="#FDC500"/>
<path d="M123.236 32.6557C123.105 32.1026 122.836 31.6585 122.428 31.3238C122.021 30.989 121.526 30.8216 120.943 30.8216C120.332 30.8216 119.83 30.9816 119.437 31.3019C119.058 31.6222 118.818 32.0734 118.716 32.6557H123.236ZM118.607 34.9483C118.607 36.6514 119.408 37.503 121.009 37.503C121.868 37.503 122.515 37.1536 122.952 36.4549H126.773C126.002 39.0168 124.073 40.2978 120.987 40.2978C120.041 40.2978 119.175 40.1596 118.389 39.883C117.603 39.5919 116.926 39.1842 116.358 38.6602C115.805 38.1362 115.376 37.5102 115.07 36.7824C114.764 36.0546 114.611 35.2394 114.611 34.3369C114.611 33.4053 114.757 32.5683 115.048 31.826C115.339 31.069 115.754 30.4285 116.293 29.9045C116.831 29.3805 117.479 28.9802 118.236 28.7036C119.007 28.4125 119.873 28.2669 120.834 28.2669C121.78 28.2669 122.632 28.4125 123.389 28.7036C124.146 28.9802 124.786 29.3877 125.31 29.9263C125.834 30.465 126.235 31.1272 126.511 31.9133C126.788 32.6847 126.926 33.5581 126.926 34.5335V34.9483H118.607Z" fill="#2E3542"/>
<path d="M110.319 31.9788V39.883H106.367V31.9788H104.947V28.6818H106.367V27.0005C106.367 26.0689 106.454 25.3265 106.629 24.7734C106.774 24.3076 107.007 23.8782 107.327 23.4851C107.648 23.0776 108.019 22.7282 108.441 22.4371C108.878 22.146 109.343 21.9203 109.838 21.7602C110.333 21.6001 110.821 21.52 111.301 21.52C111.636 21.52 111.942 21.5564 112.218 21.6292C112.509 21.702 112.801 21.8039 113.092 21.9349V25.3848C112.83 25.2537 112.582 25.1592 112.349 25.1009C112.131 25.0282 111.898 24.9917 111.651 24.9917C111.49 24.9917 111.323 25.0208 111.148 25.0791C110.988 25.1227 110.835 25.2247 110.69 25.3848C110.544 25.5448 110.442 25.7778 110.384 26.0835C110.34 26.3746 110.319 26.7749 110.319 27.2844V28.6818H113.092V31.9788H110.319Z" fill="#2E3542"/>
<path d="M93.9638 38.3545L88.5488 28.6818H93.1341L96.1255 34.4243L99.0295 28.6818H103.571L94.5752 45.4726H90.1428L93.9638 38.3545Z" fill="#2E3542"/>
<path d="M76.3655 29.7736H82.5447V23.4197H86.8243V39.883H82.5447V33.0924H76.3655V39.883H72.0859V23.4197H76.3655V29.7736Z" fill="#2E3542"/>
</svg>
