<svg width="170" height="72" viewBox="0 0 170 72" fill="none" xmlns="http://www.w3.org/2000/svg">
<g clip-path="url(#clip0_375_12462)">
<path d="M66.9371 37.2417C66.9371 38.2582 67.047 39.0824 67.2393 39.6868C67.4591 40.2912 67.7338 40.9505 68.1184 41.6648C68.2558 41.8846 68.3107 42.1044 68.3107 42.2967C68.3107 42.5714 68.1459 42.8461 67.7887 43.1209L66.058 44.2747C65.8107 44.4396 65.5635 44.522 65.3437 44.522C65.069 44.522 64.7942 44.3846 64.5195 44.1374C64.1349 43.7253 63.8052 43.2857 63.5305 42.8461C63.2558 42.3791 62.9811 41.8571 62.6789 41.2253C60.536 43.7527 57.8437 45.0165 54.6019 45.0165C52.2942 45.0165 50.4536 44.3571 49.1074 43.0385C47.7613 41.7198 47.0745 39.9615 47.0745 37.7637C47.0745 35.4286 47.8986 33.533 49.5745 32.1044C51.2503 30.6758 53.4756 29.9615 56.3052 29.9615C57.2393 29.9615 58.2008 30.0439 59.2173 30.1813C60.2338 30.3187 61.2778 30.5385 62.3767 30.7857V28.7802C62.3767 26.6923 61.9371 25.2363 61.0855 24.3846C60.2063 23.533 58.7228 23.1209 56.6074 23.1209C55.6459 23.1209 54.6569 23.2308 53.6404 23.478C52.6239 23.7253 51.6349 24.0275 50.6734 24.4121C50.2338 24.6044 49.9041 24.7143 49.7118 24.7692C49.5195 24.8242 49.3822 24.8516 49.2723 24.8516C48.8876 24.8516 48.6953 24.5769 48.6953 24V22.6538C48.6953 22.2143 48.7503 21.8846 48.8876 21.6923C49.025 21.5 49.2723 21.3077 49.6569 21.1154C50.6184 20.6209 51.7723 20.2088 53.1184 19.8791C54.4646 19.522 55.8931 19.3571 57.4041 19.3571C60.6734 19.3571 63.0635 20.0989 64.6019 21.5824C66.1129 23.0659 66.8822 25.3187 66.8822 28.3406V37.2417H66.9371ZM55.7833 41.4176C56.6898 41.4176 57.6239 41.2527 58.6129 40.9231C59.6019 40.5934 60.4811 39.989 61.2228 39.1648C61.6624 38.6428 61.992 38.0659 62.1569 37.4066C62.3217 36.7472 62.4316 35.9505 62.4316 35.0165V33.8626C61.6349 33.6703 60.7833 33.5055 59.9041 33.3956C59.025 33.2857 58.1734 33.2308 57.3217 33.2308C55.4811 33.2308 54.1349 33.5879 53.2283 34.3297C52.3217 35.0714 51.8822 36.1154 51.8822 37.489C51.8822 38.7802 52.2118 39.7417 52.8986 40.4011C53.558 41.0879 54.5195 41.4176 55.7833 41.4176ZM77.8437 44.3846C77.3492 44.3846 77.0195 44.3022 76.7997 44.1099C76.58 43.945 76.3876 43.5604 76.2228 43.0385L69.7668 21.8022C69.6019 21.2527 69.5195 20.8956 69.5195 20.7033C69.5195 20.2637 69.7393 20.0165 70.1789 20.0165H72.8712C73.3931 20.0165 73.7503 20.0989 73.9426 20.2912C74.1624 20.456 74.3272 20.8406 74.492 21.3626L79.1074 39.5494L83.3931 21.3626C83.5305 20.8132 83.6953 20.456 83.9151 20.2912C84.1349 20.1264 84.5195 20.0165 85.014 20.0165H87.2118C87.7338 20.0165 88.0909 20.0989 88.3107 20.2912C88.5305 20.456 88.7228 20.8406 88.8327 21.3626L93.1734 39.7692L97.9261 21.3626C98.0909 20.8132 98.2832 20.456 98.4756 20.2912C98.6953 20.1264 99.0525 20.0165 99.547 20.0165H102.102C102.541 20.0165 102.789 20.2363 102.789 20.7033C102.789 20.8406 102.761 20.978 102.734 21.1428C102.706 21.3077 102.651 21.5275 102.541 21.8297L95.9206 43.0659C95.7558 43.6154 95.5635 43.9725 95.3437 44.1374C95.1239 44.3022 94.7668 44.4121 94.2997 44.4121H91.9371C91.4151 44.4121 91.058 44.3297 90.8382 44.1374C90.6184 43.945 90.4261 43.5879 90.3162 43.0385L86.058 25.3187L81.8272 43.011C81.6898 43.5604 81.525 43.9176 81.3052 44.1099C81.0854 44.3022 80.7008 44.3846 80.2063 44.3846H77.8437ZM113.146 45.1264C111.717 45.1264 110.289 44.9615 108.915 44.6319C107.541 44.3022 106.47 43.945 105.756 43.533C105.316 43.2857 105.014 43.011 104.904 42.7637C104.794 42.5165 104.739 42.2417 104.739 41.9945V40.5934C104.739 40.0165 104.959 39.7417 105.371 39.7417C105.536 39.7417 105.701 39.7692 105.866 39.8242C106.031 39.8791 106.278 39.989 106.552 40.0989C107.487 40.511 108.503 40.8407 109.574 41.0604C110.673 41.2802 111.745 41.3901 112.844 41.3901C114.574 41.3901 115.921 41.0879 116.855 40.4835C117.789 39.8791 118.283 39 118.283 37.8736C118.283 37.1044 118.036 36.4725 117.541 35.9505C117.047 35.4286 116.113 34.9615 114.767 34.522L110.783 33.2857C108.778 32.6538 107.294 31.7198 106.388 30.4835C105.481 29.2747 105.014 27.9286 105.014 26.5C105.014 25.3461 105.261 24.3297 105.756 23.4505C106.25 22.5714 106.91 21.8022 107.734 21.1978C108.558 20.5659 109.492 20.0989 110.591 19.7692C111.69 19.4395 112.844 19.3022 114.052 19.3022C114.657 19.3022 115.289 19.3297 115.893 19.4121C116.525 19.4945 117.102 19.6044 117.679 19.7143C118.228 19.8516 118.75 19.989 119.245 20.1538C119.739 20.3187 120.124 20.4835 120.399 20.6483C120.783 20.8681 121.058 21.0879 121.223 21.3352C121.388 21.5549 121.47 21.8571 121.47 22.2417V23.533C121.47 24.1099 121.25 24.4121 120.838 24.4121C120.618 24.4121 120.261 24.3022 119.794 24.0824C118.228 23.3681 116.47 23.011 114.52 23.011C112.954 23.011 111.717 23.2582 110.866 23.7802C110.014 24.3022 109.574 25.0989 109.574 26.2253C109.574 26.9945 109.849 27.6538 110.399 28.1758C110.948 28.6978 111.965 29.2198 113.421 29.6868L117.322 30.9231C119.3 31.5549 120.728 32.4341 121.58 33.5604C122.432 34.6868 122.844 35.978 122.844 37.4066C122.844 38.5879 122.596 39.6593 122.129 40.5934C121.635 41.5275 120.976 42.3516 120.124 43.011C119.272 43.6978 118.256 44.1923 117.074 44.5494C115.838 44.9341 114.547 45.1264 113.146 45.1264Z" fill="#252F3E"/>
<path fill-rule="evenodd" clip-rule="evenodd" d="M118.338 58.4781C109.299 65.1539 96.1675 68.6978 84.8763 68.6978C69.0521 68.6978 54.7939 62.8462 44.0246 53.1209C43.173 52.3517 43.9422 51.3077 44.9587 51.9121C56.607 58.6704 70.9752 62.7638 85.8378 62.7638C95.8653 62.7638 106.882 60.6759 117.019 56.3902C118.53 55.7033 119.821 57.3792 118.338 58.4781Z" fill="#FF9900"/>
<path fill-rule="evenodd" clip-rule="evenodd" d="M122.101 54.1923C120.948 52.7088 114.464 53.4781 111.524 53.8352C110.645 53.9451 110.508 53.1759 111.305 52.5989C116.47 48.9726 124.959 50.0165 125.948 51.2253C126.937 52.4616 125.673 60.9506 120.838 65.0165C120.096 65.6484 119.382 65.3187 119.711 64.4945C120.81 61.7748 123.255 55.6484 122.101 54.1923Z" fill="#FF9900"/>
</g>
<defs>
<clipPath id="clip0_375_12462">
<rect width="83.5165" height="50" fill="white" transform="translate(43.2003 19)"/>
</clipPath>
</defs>
</svg>
