<svg width="170" height="72" viewBox="0 0 170 72" fill="none" xmlns="http://www.w3.org/2000/svg">
<g clip-path="url(#clip0_375_12474)">
<g clip-path="url(#clip1_375_12474)">
<path d="M161.18 32.732L155.357 38.0797L161.18 43.4274V46.5172H161.002L152.327 38.6144V46.1012H149.831V23.4032H152.327V37.6043L161.002 29.761H161.24V32.732H161.18ZM47.6307 46.1012H60.4652V43.5462H50.2452V24.1756H47.6307V46.1012ZM69.3781 29.761C65.4564 29.761 61.8319 32.9696 61.8319 38.1391C61.8319 43.1303 65.0999 46.4577 69.8534 46.4577C71.9331 46.4577 73.8939 45.923 75.6765 44.6752V41.9419C73.8345 43.4868 71.8143 44.1404 69.9723 44.1404C67.1202 44.1404 64.6246 42.3578 64.3869 39.0898H76.3895C76.3895 38.7927 76.5084 38.0797 76.5084 37.7826C76.449 32.4943 73.2403 29.761 69.3781 29.761ZM69.3781 32.0189C71.5766 32.0189 73.8939 33.445 73.9534 36.8913H64.3275C64.5057 34.2174 66.526 32.0189 69.3781 32.0189ZM111.625 29.761C109.486 29.761 107.941 30.89 107.05 32.5537C106.277 30.7711 104.851 29.761 102.593 29.761C100.632 29.761 99.147 30.89 98.3152 32.4349H98.1963L97.8992 30.0581H95.9384V46.1012H98.4934V36C98.4934 34.0392 99.6818 32.1972 101.94 32.1972C104.079 32.1972 105.03 33.445 105.03 35.7623V46.1012H107.585V35.8217C107.585 33.9798 108.832 32.1972 110.971 32.1972C113.17 32.1972 114.121 33.445 114.121 35.7623V46.1012H116.676V35.4058C116.735 32.0783 115.131 29.761 111.625 29.761ZM127.015 29.761C123.212 29.761 119.647 32.9696 119.647 38.1391C119.647 43.1897 123.212 46.4577 127.015 46.4577C129.391 46.4577 131.649 45.3288 132.897 43.1303H132.956L133.254 46.1012H135.333V30.0581H133.254L132.956 33.0291H132.897C131.709 30.89 129.451 29.761 127.015 29.761ZM127.49 32.1378C130.52 32.1378 132.778 34.5739 132.778 38.0797C132.778 41.5854 130.52 44.0216 127.49 44.0216C124.519 44.0216 122.202 41.6448 122.202 38.0797C122.202 34.5145 124.519 32.1378 127.49 32.1378ZM146.207 29.8798C144.84 29.8798 142.701 30.5335 141.632 32.6131L141.394 30.0581H139.374V46.1012H141.929V36.8913C141.929 33.2073 144.9 32.0189 147.395 32.5537V29.9987C146.92 29.9393 146.623 29.8798 146.207 29.8798ZM92.6703 29.7016H92.4921L85.7777 36.3565L79.1228 29.7016H78.9446V32.9102L84.114 38.0797L78.9446 43.1897V46.4577H79.1228L85.7183 39.8028L92.4327 46.5172H92.6703V43.2491L87.5009 38.0797L92.6703 32.8508V29.7016ZM162.428 23.5814V23.2249H165.102V23.5814H163.973V26.2553H163.557V23.5814H162.428ZM166.409 23.2249L167.538 25.7799L168.667 23.2249H169.202V26.2553H168.905V23.7003L167.776 26.1959H167.419L166.291 23.7003V26.1959H165.934V23.2249H166.409Z" fill="#32323C"/>
<path d="M33.8456 46.2201V19.6003H27.369L17.3271 29.6422L33.8456 46.2201Z" fill="#008A44"/>
<path d="M0.749268 26.077V52.6967H7.22594L17.2678 42.5955L0.749268 26.077Z" fill="#3AF23A"/>
<path d="M7.22583 52.6967H33.8455V46.2201L23.8037 36.1188L7.22583 52.6967Z" fill="#006446"/>
<path d="M27.3692 19.6003H0.749512V26.077L10.7913 36.1188L27.3692 19.6003Z" fill="#00C425"/>
</g>
</g>
<defs>
<clipPath id="clip0_375_12474">
<rect width="168.75" height="72" fill="white" transform="translate(0.75)"/>
</clipPath>
<clipPath id="clip1_375_12474">
<rect width="168.75" height="33.2746" fill="white" transform="translate(0.749756 19.3627)"/>
</clipPath>
</defs>
</svg>
