<svg width="170" height="72" viewBox="0 0 170 72" fill="none" xmlns="http://www.w3.org/2000/svg">
<g clip-path="url(#clip0_375_12469)">
<path d="M121.199 61.2914C121.199 62.0783 120.621 62.6064 119.937 62.6064V62.6016C119.234 62.6064 118.667 62.0783 118.667 61.2916C118.667 60.5051 119.234 59.9785 119.937 59.9785C120.621 59.9783 121.199 60.5049 121.199 61.2914ZM121.711 61.2914C121.711 60.2116 120.872 59.5847 119.937 59.5847C118.996 59.5847 118.157 60.2116 118.157 61.2914C118.157 62.3706 118.996 63 119.937 63C120.872 63 121.711 62.3706 121.711 61.2914ZM119.643 61.4358H119.833L120.273 62.2085H120.756L120.269 61.4033C120.521 61.3853 120.728 61.2653 120.728 60.9262C120.728 60.5049 120.437 60.3695 119.945 60.3695H119.233V62.2085H119.643V61.4358M119.643 61.1245V60.6817H119.928C120.082 60.6817 120.293 60.6942 120.293 60.883C120.293 61.0886 120.184 61.1245 120.002 61.1245H119.643Z" fill="black"/>
<path d="M109.766 51.8843L111.978 57.9342H107.486L109.766 51.8843ZM107.398 49.5287L102.302 62.441H105.9L106.706 60.1594H112.738L113.5 62.441H117.407L112.273 49.527L107.398 49.5287ZM97.1664 62.4458H100.817V49.5247L97.1658 49.5239L97.1664 62.4458ZM71.8202 49.5239L68.7741 59.7648L65.8561 49.5247L61.9167 49.5239L66.0842 62.4458H71.344L75.5451 49.5239H71.8202ZM86.5782 52.3375H88.1474C90.424 52.3375 91.8963 53.3596 91.8963 56.012C91.8963 58.665 90.424 59.6872 88.1474 59.6872H86.5782V52.3375ZM82.9578 49.5239V62.4458H88.8769C92.0305 62.4458 93.0603 61.9216 94.1737 60.7456C94.9602 59.9199 95.4689 58.1078 95.4689 56.1269C95.4689 54.3101 95.0384 52.6906 94.2879 51.6815C92.9355 49.8767 90.9874 49.5239 88.08 49.5239H82.9578ZM48.3727 49.5059V62.4458H52.0546V52.6205L54.9075 52.6213C55.8522 52.6213 56.5255 52.8567 56.9804 53.3427C57.5574 53.9572 57.793 54.9492 57.793 56.7638V62.4458H61.3608V55.2964C61.3608 50.1939 58.1085 49.5059 54.9263 49.5059H48.3727ZM77.0818 49.5239L77.0832 62.4458H80.7326V49.5239H77.0818Z" fill="black"/>
<path d="M58.1848 23.7949C58.1848 23.7949 62.8807 16.8666 72.2567 16.1498V13.6362C61.8716 14.4702 52.8784 23.266 52.8784 23.266C52.8784 23.266 57.972 37.9906 72.2567 39.3388V36.667C61.7739 35.3482 58.1848 23.7949 58.1848 23.7949ZM72.2567 31.3535V33.8003C64.3341 32.3879 62.1349 24.1522 62.1349 24.1522C62.1349 24.1522 65.9389 19.9381 72.2567 19.2548V21.9397C72.2519 21.9397 72.2486 21.9382 72.2446 21.9382C68.9287 21.5403 66.3383 24.638 66.3383 24.638C66.3383 24.638 67.7902 29.8528 72.2567 31.3535ZM72.2567 9V13.6362C72.5616 13.6128 72.8665 13.593 73.173 13.5825C84.9798 13.1846 92.6728 23.266 92.6728 23.266C92.6728 23.266 83.8372 34.0098 74.632 34.0098C73.7884 34.0098 72.9985 33.9316 72.2567 33.8001V36.667C72.8911 36.7476 73.5488 36.7949 74.2351 36.7949C82.8011 36.7949 88.9958 32.4202 94.9942 27.2425C95.9887 28.039 100.06 29.9767 100.897 30.8249C95.1939 35.5999 81.902 39.449 74.3664 39.449C73.64 39.449 72.9424 39.4049 72.2567 39.3388V43.3673H104.816V9H72.2567ZM72.2567 19.2548V16.1498C72.5585 16.1287 72.8625 16.1126 73.173 16.1028C81.6633 15.8362 87.2334 23.3989 87.2334 23.3989C87.2334 23.3989 81.2171 31.7546 74.7664 31.7546C73.838 31.7546 73.0059 31.6054 72.2567 31.3535V21.9397C75.562 22.3391 76.2271 23.7991 78.2142 27.1117L82.6338 23.3851C82.6338 23.3851 79.4076 19.154 73.9691 19.154C73.3779 19.1538 72.8122 19.1953 72.2567 19.2548Z" fill="#77B900"/>
</g>
<defs>
<clipPath id="clip0_375_12469">
<rect width="73.3382" height="54" fill="white" transform="translate(48.3728 9)"/>
</clipPath>
</defs>
</svg>
