<svg width="170" height="72" viewBox="0 0 170 72" fill="none" xmlns="http://www.w3.org/2000/svg">
<path d="M16.295 29.8049C16.295 31.8028 17.9147 33.4225 19.9126 33.4225C21.9105 33.4225 23.5301 31.8028 23.5301 29.8049C23.5301 27.807 21.9105 26.1874 19.9126 26.1874C17.9147 26.1874 16.295 27.807 16.295 29.8049Z" fill="#FFCC33"/>
<path d="M16.295 47.8928C16.295 49.8907 17.9147 51.5104 19.9126 51.5104C21.9105 51.5104 23.5301 49.8907 23.5301 47.8928C23.5301 45.8948 21.9105 44.2753 19.9126 44.2753C17.9147 44.2753 16.295 45.8948 16.295 47.8928Z" fill="#FFCC33"/>
<path d="M17.6515 38.8491C17.6515 40.0978 18.6638 41.1101 19.9125 41.1101C21.1612 41.1101 22.1735 40.0978 22.1735 38.8491C22.1735 37.6004 21.1612 36.5881 19.9125 36.5881C18.6638 36.5881 17.6515 37.6004 17.6515 38.8491Z" fill="#FFCC33"/>
<path d="M17.6515 20.761C17.6515 22.0097 18.6638 23.022 19.9125 23.022C21.1612 23.022 22.1735 22.0097 22.1735 20.761C22.1735 19.5123 21.1612 18.5 19.9125 18.5C18.6638 18.5 17.6515 19.5123 17.6515 20.761Z" fill="#FFCC33"/>
<path d="M30.1775 42.195C30.1775 44.193 31.7972 45.8125 33.7951 45.8125C35.793 45.8125 37.4126 44.193 37.4126 42.195C37.4126 40.1971 35.793 38.5775 33.7951 38.5775C31.7972 38.5775 30.1775 40.1971 30.1775 42.195Z" fill="#FFCC33"/>
<path d="M31.5339 51.239C31.5339 52.4877 32.5463 53.5 33.7949 53.5C35.0437 53.5 36.0559 52.4877 36.0559 51.239C36.0559 49.9903 35.0437 48.978 33.7949 48.978C32.5463 48.978 31.5339 49.9903 31.5339 51.239Z" fill="#FFCC33"/>
<path d="M31.5339 33.1514C31.5339 34.4001 32.5463 35.4124 33.7949 35.4124C35.0437 35.4124 36.0559 34.4001 36.0559 33.1514C36.0559 31.9026 35.0437 30.8904 33.7949 30.8904C32.5463 30.8904 31.5339 31.9026 31.5339 33.1514Z" fill="#FFCC33"/>
<path d="M31.5339 24.1073C31.5339 25.356 32.5463 26.3683 33.7949 26.3683C35.0437 26.3683 36.0559 25.356 36.0559 24.1073C36.0559 22.8586 35.0437 21.8463 33.7949 21.8463C32.5463 21.8463 31.5339 22.8586 31.5339 24.1073Z" fill="#FFCC33"/>
<path d="M44.0598 29.8049C44.0598 31.8028 45.6794 33.4225 47.6773 33.4225C49.6752 33.4225 51.2949 31.8028 51.2949 29.8049C51.2949 27.807 49.6752 26.1874 47.6773 26.1874C45.6794 26.1874 44.0598 27.807 44.0598 29.8049Z" fill="#FFCC33"/>
<path d="M45.4166 20.761C45.4166 22.0097 46.4288 23.022 47.6776 23.022C48.9263 23.022 49.9386 22.0097 49.9386 20.761C49.9386 19.5123 48.9263 18.5 47.6776 18.5C46.4288 18.5 45.4166 19.5123 45.4166 20.761Z" fill="#FFCC33"/>
<path d="M45.4166 38.8491C45.4166 40.0978 46.4288 41.1101 47.6776 41.1101C48.9263 41.1101 49.9386 40.0978 49.9386 38.8491C49.9386 37.6004 48.9263 36.5881 47.6776 36.5881C46.4288 36.5881 45.4166 37.6004 45.4166 38.8491Z" fill="#FFCC33"/>
<path d="M45.4166 47.8928C45.4166 49.1415 46.4288 50.1538 47.6776 50.1538C48.9263 50.1538 49.9386 49.1415 49.9386 47.8928C49.9386 46.644 48.9263 45.6317 47.6776 45.6317C46.4288 45.6317 45.4166 46.644 45.4166 47.8928Z" fill="#FFCC33"/>
<path d="M88.6196 49.558H90.3871L97.3329 24.0216L100.786 23.5298V21.8492H91.4557V23.5298L95.1958 24.0626L89.9758 42.9998L83.8514 24.0216L88.0033 23.5298V21.8492H76.8235V23.5298L80.9333 24.0216L74.6863 42.8358L69.6305 23.9806L73.4121 23.5298V21.8492H62.2324V23.5298L65.6438 23.9396L73.0424 49.558H74.8094L81.5091 28.2845L88.6196 49.558Z" fill="black"/>
<path d="M108.912 31.1128C107.391 29.2273 107.062 27.9567 107.062 26.481C107.062 24.3086 108.706 22.669 110.802 22.669C112.816 22.669 114.378 24.1446 114.378 26.522C114.378 28.8994 112.57 30.703 110.021 32.4655C109.652 32.0556 109.281 31.6047 108.912 31.1128ZM127.326 49.3941L127.49 47.5906L123.502 47.0577C122.229 45.746 121.16 44.5574 120.133 43.4917C122.023 40.6634 123.462 37.6302 124.407 33.9001L127.531 33.3263V31.6867H119.187V33.3263L122.434 33.8591C121.694 37.0973 120.544 39.7616 119.023 42.303C117.42 40.5814 115.94 39.0238 114.296 37.2203C112.857 35.6627 111.871 34.556 111.008 33.5722C115.2 31.3178 117.091 29.3093 117.091 26.481C117.091 23.4068 114.913 21.2344 110.844 21.2344C106.98 21.2344 104.103 23.4478 104.103 27.0549C104.103 29.2273 104.884 31.3178 106.939 33.6542C106.98 33.7361 107.062 33.7772 107.103 33.8591C102.993 35.9086 100.897 38.6549 100.897 42.3439C100.897 46.4839 104.432 49.8041 109.569 49.8041C113.515 49.8041 116.146 48.2874 117.954 46.3199C118.407 46.8528 118.9 47.3447 119.393 47.9186C120.749 49.3122 122.023 49.8041 124.202 49.8041C125.27 49.8041 126.092 49.6811 127.326 49.3941ZM112.57 40.2945C113.967 41.8521 115.282 43.3277 116.762 45.0083C115.2 46.4019 112.981 47.1807 110.679 47.1807C106.693 47.1807 104.473 44.2295 104.473 41.2373C104.473 39.1878 105.254 36.7284 108.09 35.0068C109.446 36.5645 110.72 38.0401 112.57 40.2945Z" fill="black"/>
<path d="M135.042 36.5644C135.042 40.1305 135.042 43.6966 134.959 47.1397L131.178 47.5906V49.2712H142.481C150.372 49.2712 153.455 45.5001 153.455 41.7701C153.455 38.4499 151.154 35.7856 145.686 35.0068C150.249 34.064 152.058 31.4408 152.058 28.5305C152.058 24.6364 148.811 21.8492 143.098 21.8492H131.178V23.5298L134.959 23.9806C135.042 27.5057 135.042 31.0308 135.042 34.5559V36.5644ZM141.206 36.0315C146.879 36.0315 149.345 37.958 149.345 41.7701C149.345 45.3771 146.796 47.3446 141.535 47.3446H139.028C138.946 43.8605 138.946 40.3354 138.946 36.0315H141.206ZM141.864 23.7347C146.057 23.7347 148.194 25.0873 148.194 28.8174C148.194 32.5474 146.057 34.146 141.083 34.146H138.946C138.946 30.9078 138.946 27.2598 139.028 23.7347H141.864Z" fill="black"/>
</svg>
