<svg width="17" height="16" viewBox="0 0 17 16" fill="none" xmlns="http://www.w3.org/2000/svg">
<g clip-path="url(#clip0_375_12505)">
<path d="M12.5 2C12.5 0.895431 10.7091 0 8.5 0C6.29086 0 4.5 0.895431 4.5 2V14C4.5 15.1046 6.29086 16 8.5 16C10.7091 16 12.5 15.1046 12.5 14V2Z" fill="#3B47C2"/>
<path d="M14.5 4H2.5C1.39543 4 0.5 5.79086 0.5 8C0.5 10.2091 1.39543 12 2.5 12H14.5C15.6046 12 16.5 10.2091 16.5 8C16.5 5.79086 15.6046 4 14.5 4Z" fill="#3B47C2"/>
<path d="M6.30006 2.74001C6.70875 2.74001 7.04006 2.4087 7.04006 2.00001C7.04006 1.59132 6.70875 1.26001 6.30006 1.26001C5.89137 1.26001 5.56006 1.59132 5.56006 2.00001C5.56006 2.4087 5.89137 2.74001 6.30006 2.74001Z" fill="white"/>
<path d="M10.7 14.74C11.1087 14.74 11.44 14.4087 11.44 14C11.44 13.5913 11.1087 13.26 10.7 13.26C10.2913 13.26 9.95996 13.5913 9.95996 14C9.95996 14.4087 10.2913 14.74 10.7 14.74Z" fill="white"/>
<path d="M4.5 3.80005H8.5" stroke="white"/>
<path d="M8.5 12.2H12.5" stroke="white"/>
<path d="M4.30005 12C4.30005 8 5.30005 8 8.30005 8C11.7 8 12.7 8 12.7 4" stroke="white"/>
</g>
<defs>
<clipPath id="clip0_375_12505">
<rect width="16" height="16" fill="white" transform="translate(0.5)"/>
</clipPath>
</defs>
</svg>
