<svg width="150" height="64" viewBox="0 0 150 64" fill="none" xmlns="http://www.w3.org/2000/svg">
<rect width="150" height="64" fill="white"/>
<path d="M122.345 37.8475V37.1004H122.947C123.204 37.1004 123.473 37.1526 123.473 37.4748C123.473 37.797 123.204 37.8475 122.947 37.8475H122.345ZM123.752 37.4428C123.73 36.9977 123.372 36.9175 123.006 36.9175H122.086V39.0205H122.345V38.0511H122.818L123.419 39.0205H123.727L123.091 38.0479C123.492 38.0314 123.772 37.891 123.752 37.4428ZM122.788 39.607C121.89 39.607 121.207 38.8494 121.207 37.9724C121.207 37.0935 121.89 36.3353 122.788 36.3353C123.685 36.3353 124.368 37.0935 124.368 37.9724C124.368 38.8492 123.685 39.607 122.788 39.607ZM122.788 36.087C121.748 36.087 120.904 36.9303 120.904 37.9726C120.904 39.0127 121.748 39.8554 122.788 39.8554C123.036 39.8555 123.28 39.8068 123.509 39.7122C123.737 39.6176 123.945 39.4789 124.12 39.304C124.295 39.1292 124.433 38.9216 124.528 38.6932C124.622 38.4647 124.671 38.2199 124.671 37.9726C124.671 36.9304 123.829 36.087 122.788 36.087Z" fill="#231F20"/>
<path d="M63.531 31.036C63.9112 35.8944 59.9237 40.1775 55.0945 40.3264C49.9904 40.4843 46.297 36.0295 47.3051 31.036H63.5308M63.0243 28.815C61.8322 25.7517 58.8794 23.9183 55.6439 24.0028C52.4492 24.0852 49.5348 25.9947 48.0863 28.815H63.0243Z" fill="#E71933"/>
<path d="M30.9534 31.036H39.6748C40.2773 31.036 40.8005 30.5468 40.8563 29.9459C40.9138 29.3191 40.4416 28.8149 39.812 28.8149H29.3731L30.6987 24.9566C30.8125 24.6275 31.1305 24.3929 31.4819 24.3929H40.6719C43.8011 24.3929 46.1508 26.9676 45.861 30.0841C45.5846 33.0687 42.9838 35.4408 39.9891 35.4418L34.248 35.444C33.7141 35.4445 33.2541 35.78 33.0909 36.2548L32.0482 39.2907C31.935 39.6204 31.6181 39.8553 31.2671 39.8553H27.0351C26.2858 39.8553 25.8233 39.1428 26.0641 38.4419L27.8379 33.2815C28.2904 31.9638 29.5495 31.036 30.9534 31.036ZM111.887 39.8553L110.909 36.1954C110.785 35.7328 110.396 35.4436 109.922 35.4436L108.566 35.4441C108.032 35.4446 107.572 35.7802 107.409 36.255L106.367 39.2907C106.253 39.6204 105.936 39.8553 105.585 39.8553H101.353C100.604 39.8553 100.141 39.1428 100.383 38.4419L102.156 33.2815C102.608 31.9638 103.868 31.036 105.271 31.036H113.993C114.595 31.036 115.119 30.5468 115.174 29.9459C115.232 29.3191 114.76 28.8149 114.13 28.8149H103.691L105.017 24.9566C105.131 24.6275 105.448 24.3929 105.8 24.3929H114.99C118.119 24.3929 120.469 26.9676 120.179 30.0841C119.984 32.1893 118.633 33.9887 116.804 34.8676L118.14 39.8553H111.887Z" fill="#231F20"/>
<path d="M73.5029 28.815L74.6844 25.3768C74.8519 24.8898 74.5249 24.3931 74.0033 24.3931H69.3623C69.0114 24.3931 68.6928 24.6276 68.5796 24.9568L67.2535 28.815H73.5029ZM77.3612 39.8553H64.9154C64.1662 39.8553 63.7042 39.1428 63.945 38.4419L66.4898 31.036H72.7392L71.8672 33.5735C71.6263 34.2742 72.099 34.9868 72.8472 34.9868H78.1496C78.8993 34.9868 79.3769 35.6978 79.1365 36.3975L78.1416 39.2906C78.0283 39.6203 77.7119 39.8553 77.361 39.8553M91.7344 24.6893L88.2957 28.815H97.5579L97.2112 25.0403C97.1761 24.6601 96.8645 24.3932 96.4843 24.3932H92.3666C92.1209 24.3932 91.8901 24.5022 91.7343 24.6894M92.9855 39.8553H97.6679C98.1384 39.8553 98.5325 39.4268 98.4899 38.9546L97.7619 31.036H86.4445L80.589 38.0617C79.9957 38.7742 80.4109 39.8553 81.3628 39.8553H85.0822C85.3279 39.8553 85.5603 39.734 85.7149 39.5468L88.7888 35.8603C89.0128 35.5912 89.3476 35.443 89.6996 35.443H90.9556C91.5012 35.443 91.9495 35.821 92 36.3688L92.26 39.1944C92.2752 39.3757 92.3585 39.5446 92.493 39.6671C92.6274 39.7897 92.8033 39.8569 92.9852 39.8553" fill="#231F20"/>
</svg>
