<svg width="41" height="40" viewBox="0 0 41 40" fill="none" xmlns="http://www.w3.org/2000/svg">
<path d="M20.1689 7.46094C19.2783 7.46094 18.4189 7.55469 17.583 7.72656V2.65625C18.4268 2.53125 19.2939 2.46875 20.1689 2.46875C24.7158 2.46875 28.8564 4.20312 31.9658 7.04688L34.2627 4.75C35.0518 3.96094 36.3955 4.52344 36.3955 5.63281V13.8672C36.3955 14.5547 35.833 15.1172 35.1455 15.1172H26.9111C25.7939 15.1172 25.2393 13.7734 26.0283 12.9844L28.4189 10.5938C26.2158 8.65625 23.3252 7.47656 20.1611 7.47656L20.1689 7.46094ZM14.3096 27.2031L12.0518 29.4609C14.2393 31.3281 17.0752 32.4609 20.1768 32.4609C21.0049 32.4609 21.8096 32.3828 22.5908 32.2266V37.2969C21.8018 37.4062 20.9971 37.4609 20.1768 37.4609C15.6924 37.4609 11.6064 35.7734 8.5127 33.0078L6.0752 35.4375C5.28613 36.2266 3.94238 35.6641 3.94238 34.5547V26.3203C3.94238 25.6328 4.50488 25.0703 5.19238 25.0703H13.4268C14.5439 25.0703 15.0986 26.4141 14.3096 27.2031Z" fill="#3B47C2"/>
<path opacity="0.8" d="M5.70801 3.85938H13.9424C14.6299 3.85938 15.1924 4.42188 15.1924 5.10938V13.3359C15.1924 14.4531 13.8486 15.0078 13.0596 14.2188L10.6768 11.8359C8.80957 14.0234 7.67676 16.8594 7.67676 19.9609C7.67676 20.8281 7.7627 21.6797 7.93457 22.5H2.85645C2.73926 21.6719 2.67676 20.8281 2.67676 19.9609C2.67676 15.4766 4.36426 11.3906 7.12988 8.29687L4.8252 5.99219C4.03613 5.20312 4.59082 3.85938 5.70801 3.85938ZM27.2861 25.9531L29.5518 28.2188C31.4893 26.0156 32.6689 23.125 32.6689 19.9609C32.6689 19.1172 32.583 18.2969 32.4268 17.5H37.4971C37.6143 18.3047 37.6689 19.125 37.6689 19.9609C37.6689 24.5078 35.9346 28.6484 33.0908 31.7578L35.5127 34.1797C36.3018 34.9688 35.7393 36.3125 34.6299 36.3125H26.4033C25.7158 36.3125 25.1533 35.75 25.1533 35.0625V26.8359C25.1533 25.7188 26.4971 25.1641 27.2861 25.9531Z" fill="#6BDBE3"/>
</svg>
