<svg width="41" height="40" viewBox="0 0 41 40" fill="none" xmlns="http://www.w3.org/2000/svg">
<g clip-path="url(#clip0_199_1727)">
<path d="M4.41699 6C2.21074 6 0.416992 7.79375 0.416992 10V30C0.416992 32.2062 2.21074 34 4.41699 34H24.417C26.6232 34 28.417 32.2062 28.417 30V10C28.417 7.79375 26.6232 6 24.417 6H4.41699ZM7.41699 11.5V20.5C7.41699 21.3313 6.74824 22 5.91699 22C5.08574 22 4.41699 21.3313 4.41699 20.5V11.5C4.41699 10.6687 5.08574 10 5.91699 10C6.74824 10 7.41699 10.6687 7.41699 11.5ZM13.417 11.5V20.5C13.417 21.3313 12.7482 22 11.917 22C11.0857 22 10.417 21.3313 10.417 20.5V11.5C10.417 10.6687 11.0857 10 11.917 10C12.7482 10 13.417 10.6687 13.417 11.5Z" fill="#3B47C2"/>
<path opacity="0.8" d="M38.1668 8.66879C38.6293 9.35629 38.4418 10.2875 37.748 10.75L34.748 12.75C34.0605 13.2125 33.1293 13.025 32.6668 12.3313C32.2043 11.6375 32.3918 10.7125 33.0855 10.25L36.0855 8.25004C36.773 7.78754 37.7043 7.97504 38.1668 8.66879ZM32.4168 20C32.4168 19.1688 33.0855 18.5 33.9168 18.5H38.9168C39.748 18.5 40.4168 19.1688 40.4168 20C40.4168 20.8313 39.748 21.5 38.9168 21.5H33.9168C33.0855 21.5 32.4168 20.8313 32.4168 20ZM32.6668 27.6688C33.1293 26.9813 34.0605 26.7938 34.748 27.25L37.748 29.25C38.4355 29.7125 38.623 30.6438 38.1668 31.3313C37.7105 32.0188 36.773 32.2063 36.0855 31.75L33.0855 29.75C32.398 29.2875 32.2105 28.3563 32.6668 27.6688Z" fill="#6BDBE3"/>
</g>
<defs>
<clipPath id="clip0_199_1727">
<rect width="40" height="40" fill="white" transform="translate(0.416992)"/>
</clipPath>
</defs>
</svg>
