<svg width="107" height="32" viewBox="0 0 107 32" fill="none" xmlns="http://www.w3.org/2000/svg">
<path d="M6.82025 2.83949H20.4667V0H6.82025V2.83949ZM69.1759 18.0506H59.6311V8.61363H69.1758C72.5766 8.61363 74.8618 10.5101 74.8618 13.3323C74.8618 16.1544 72.5767 18.0506 69.1759 18.0506ZM72.3374 20.2578C75.6116 19.3573 77.7273 16.6388 77.7273 13.3323C77.7273 9.04037 74.2907 6.15661 69.1756 6.15661H56.7666V31.5221H59.6312V20.5459H69.339L75.5207 31.5218H78.6201L72.1755 20.3022L72.3374 20.2578ZM41.8913 32C48.9166 32 53.8231 27.2409 53.8231 20.4266V6.15671H50.8788V20.2352C50.8788 25.4904 47.1831 29.1607 41.8913 29.1607C37.5053 29.1607 32.7846 26.3677 32.7846 20.2352V6.15671H29.8409V20.4267C29.8409 27.2409 34.7962 31.9999 41.8916 31.9999M93.3 9.46585L99.5092 22.5636H87.051L93.3 9.46585ZM91.9188 6.15692L79.8938 31.5222H82.9691L85.9429 25.0203H100.617L103.591 31.5222H106.666L94.6417 6.15661L91.9188 6.15692ZM13.6462 5.67887C6.12157 5.67887 -0.000244141 11.5826 -0.000244141 18.8392C-0.000244141 26.0962 6.12157 31.9999 13.6462 31.9999C21.1712 31.9999 27.293 26.0962 27.293 18.8392C27.293 11.5826 21.1712 5.67887 13.6462 5.67887ZM13.6462 29.1605C7.74491 29.1605 2.9437 24.5303 2.9437 18.8392C2.9437 13.1482 7.74502 8.51825 13.6463 8.51825C19.5478 8.51825 24.3492 13.1482 24.3492 18.8392C24.3492 24.5303 19.5478 29.1605 13.6463 29.1605" fill="white"/>
</svg>
