<?xml version="1.0" encoding="UTF-8"?><svg id="Layer_2" xmlns="http://www.w3.org/2000/svg" viewBox="0 0 493.14 65.64"><defs><style>.cls-1{fill:#fff;stroke-width:0px;}</style></defs><g id="Layer_2-2"><path class="cls-1" d="M112.11.9v63.84h-7.55L68.23,13.58c.45,4.5.54,14.39.54,51.17h-7.91V.9h7.55l36.33,51.53c-.45-4.59-.54-14.39-.54-51.53h7.91Z"/><path class="cls-1" d="M121.59,32.82c0-18.7,13.85-32.82,32.28-32.82s32.19,14.12,32.19,32.82-13.85,32.82-32.19,32.82-32.28-14.12-32.28-32.82ZM178.06,32.82c0-14.03-10.34-25.36-24.19-25.36s-24.28,11.33-24.28,25.36,10.34,25.36,24.28,25.36,24.19-11.33,24.19-25.36Z"/><path class="cls-1" d="M271.51.9l-18.07,63.84h-9.08c-10.34-38.22-12.77-47.93-13.67-54.4-.9,6.56-3.33,16.28-14.03,54.4h-8.99L189.77.9h8.45c10.52,38.4,13.22,48.74,14.39,55.84,1.08-7.82,3.6-17.53,13.94-55.84h8.54c10.25,37.41,12.95,48.11,14.12,55.12,1.17-7.37,3.78-17.62,14.12-55.12h8.18Z"/><path class="cls-1" d="M301.78,64.74V.9h3.96v60.25h29.05v3.6h-33Z"/><path class="cls-1" d="M388.9,64.74c-2.61-7.19-4.86-13.49-6.74-18.97h-28.51l-6.83,18.97h-4.14L365.7.9h4.41l23.02,63.84h-4.23ZM380.9,42.44c-10.43-29.4-12.05-34.35-13.13-38.49-.99,4.05-2.52,9.17-12.95,38.49h26.08Z"/><path class="cls-1" d="M401.03,64.74V.9h20.32c13.4,0,19.24,6.47,19.24,15.56,0,7.37-3.33,12.41-10.43,14.3,9.26,1.53,14.03,8.45,14.03,16.99,0,10.7-7.37,17-21.76,17h-21.4ZM404.99,29.49h16.37c10.25,0,15.29-3.96,15.29-12.5,0-7.91-5.04-12.68-15.29-12.68h-16.37v25.18ZM404.99,61.33h17.45c11.78,0,17.8-4.77,17.8-13.58s-6.02-15.02-17.08-15.02h-18.16v28.6Z"/><path class="cls-1" d="M451.15,47.21h4.05c.81,10.52,9.26,15.02,17.44,15.02,9.98,0,16.46-5.22,16.46-12.95,0-17.89-35.25-13.22-35.25-33.99,0-9.62,8.18-15.29,18.16-15.29,10.97,0,18.16,6.74,19.06,16.64h-4.05c-.81-7.91-6.3-13.22-15.02-13.22-7.64,0-14.12,4.23-14.12,11.78,0,17.98,35.25,12.77,35.25,33.99,0,9.98-8.36,16.46-20.5,16.46-10.79,0-20.68-6.2-21.49-18.43Z"/><rect class="cls-1" y=".77" width="7.9" height="64.1"/><path class="cls-1" d="M51.37.9h-9.44c-9.66,10.28-19.32,20.56-28.98,30.84,9.48,11,18.96,22,28.43,33,3.33,0,6.65,0,9.98,0-9.56-11-19.12-22-28.68-33C32.24,21.46,41.8,11.18,51.37.9Z"/></g></svg>