<svg width="101" height="34" viewBox="0 0 101 34" fill="none" xmlns="http://www.w3.org/2000/svg">
<g clip-path="url(#clip0_1709_140)">
<path d="M58.681 0H42.9244V5.68H46.088L40.8057 10.5321L44.6855 14.7332L50.7734 9.23104L56.9209 14.7332L60.8007 10.5321L55.4885 5.68H58.682V0H58.681Z" fill="#0A0A0A"/>
<path d="M90.0098 32.8305L91.8351 24.256C91.8621 24.1294 91.9739 24.0381 92.1033 24.0381H94.928C95.0379 24.0381 95.1375 24.1033 95.1803 24.2048L97.0057 28.472H97.0308L97.9267 24.256C97.9538 24.1294 98.0655 24.0381 98.1959 24.0381H101L99.1291 32.8296H96.1442C96.0343 32.8296 95.9356 32.7644 95.8919 32.6638L94.0172 28.3211H93.992L93.084 32.6126C93.057 32.7392 92.9452 32.8305 92.8148 32.8305H90.0107H90.0098Z" fill="black"/>
<path d="M79.039 32.8305L83.3463 24.1909C83.3928 24.0977 83.4878 24.0391 83.5921 24.0391H88.6845L89.3373 32.8305H86.0601L85.9465 31.2352H83.3677C83.2625 31.2352 83.1665 31.2948 83.1209 31.3898L82.4923 32.6769C82.4466 32.7709 82.3507 32.8315 82.2455 32.8315H79.0381L79.039 32.8305ZM85.4305 26.6011C85.3774 26.6011 85.329 26.6318 85.3067 26.6793L84.163 29.0876H85.9334L85.8356 26.6672C85.8347 26.6299 85.804 26.6011 85.7667 26.6011H85.4296H85.4305Z" fill="black"/>
<path d="M67.3545 32.8305L69.1798 24.256C69.2069 24.1294 69.3186 24.0381 69.449 24.0381H72.5688C72.688 24.0381 72.7933 24.1145 72.8305 24.2271L73.8736 27.4159L76.2279 24.1517C76.2791 24.08 76.363 24.0381 76.4505 24.0381H80.1152L78.3029 32.6116C78.2758 32.7383 78.1641 32.8296 78.0337 32.8296H75.1662L76.0715 28.54C76.0864 28.4683 75.9942 28.4264 75.9504 28.4841L73.0568 32.2391H72.9311L71.4951 28.4403C71.4708 28.3761 71.3777 28.3835 71.3637 28.4506L70.4911 32.6116C70.4641 32.7392 70.3523 32.8296 70.222 32.8296H67.3554L67.3545 32.8305Z" fill="black"/>
<path d="M58.7953 32.4663C58.0503 31.9728 57.6777 31.2603 57.6777 30.3309C57.6777 29.9453 57.728 29.5141 57.8286 29.0373L58.8372 24.2569C58.8642 24.1303 58.976 24.039 59.1054 24.039H62.1107L61.0304 29.1509L61.0183 29.2515L61.0053 29.3642C60.9969 29.4145 60.9885 29.4601 60.9801 29.502V29.6026C60.9801 30.1213 61.3396 30.3812 62.0604 30.3812C62.8474 30.3812 63.3289 29.9835 63.5049 29.1882L64.5517 24.256C64.5787 24.1294 64.6904 24.0381 64.8199 24.0381H67.8252L66.6573 29.5141C66.3807 30.7788 65.8536 31.7083 65.075 32.3024C64.3132 32.8798 63.2329 33.1695 61.8351 33.1695C60.5294 33.1695 59.5161 32.9348 58.7962 32.4663H58.7953Z" fill="black"/>
<path d="M52.38 32.8306L53.0459 29.6912H50.631C50.5015 29.6912 50.3889 29.7815 50.3618 29.9091L49.7425 32.8315H46.5146L48.3866 24.04H51.6144L50.9616 27.0798H53.599L54.2519 24.04H57.4798L55.6544 32.6145C55.6274 32.7412 55.5157 32.8324 55.3862 32.8324H52.3809L52.38 32.8306Z" fill="black"/>
<path d="M35.5439 32.8305L39.8512 24.1909C39.8978 24.0977 39.9928 24.0391 40.0971 24.0391H45.1894L45.8423 32.8305H42.5641L42.4514 31.2352H39.7013L38.9981 32.6759C38.9525 32.77 38.8566 32.8305 38.7513 32.8305H35.5439ZM41.9355 26.6011C41.8824 26.6011 41.8339 26.6318 41.8116 26.6793L40.668 29.0876H42.4384L42.3434 26.7324C42.3406 26.6588 42.28 26.6001 42.2065 26.6001H41.9355V26.6011Z" fill="black"/>
<path d="M35.5072 32.8309H32.2384C32.1396 32.8309 32.0484 32.7778 31.999 32.6912L30.9764 30.8854C30.928 30.7998 30.8367 30.7458 30.7371 30.7458H30.1029C29.9734 30.7458 29.8607 30.837 29.8337 30.9637L29.4864 32.6121C29.4594 32.7387 29.3476 32.83 29.2172 32.83H26.2119L28.0373 24.2555C28.0643 24.1289 28.176 24.0376 28.3055 24.0376H32.4665C34.9782 24.0376 36.2346 25.0257 36.2346 27.0019C36.2346 28.7351 35.4728 29.8489 33.9482 30.3425L35.5054 32.8291L35.5072 32.8309ZM31.9031 28.4222C32.2719 28.4222 32.5606 28.3095 32.7701 28.0832C32.9713 27.882 33.0719 27.6184 33.0719 27.2916C33.0719 26.7309 32.7366 26.4497 32.067 26.4497H31.009C30.8796 26.4497 30.7669 26.5409 30.7399 26.6676L30.3711 28.4212H31.9031V28.4222Z" fill="black"/>
<path d="M26.611 26.6765H24.0453C23.9158 26.6765 23.8031 26.7669 23.777 26.8945L22.5636 32.6136C22.5366 32.7402 22.4248 32.8315 22.2953 32.8315H19.29L20.5967 26.6775H17.6826L18.4267 24.2347C18.4621 24.1192 18.5683 24.04 18.6894 24.04H26.8634L26.6119 26.6775L26.611 26.6765Z" fill="black"/>
<path d="M10.0966 32.8305L11.922 24.256C11.949 24.1294 12.0607 24.0381 12.1902 24.0381H15.0986C15.1424 24.0381 15.175 24.0781 15.1657 24.121L13.8768 30.167H17.9708L17.2015 32.6368C17.1661 32.7513 17.06 32.8296 16.9389 32.8296H10.0957L10.0966 32.8305Z" fill="black"/>
<path d="M1.53651 32.4669C0.791465 31.9733 0.418945 31.2608 0.418945 30.3314C0.418945 29.9459 0.469235 29.5147 0.569816 29.0378L1.57841 24.2575C1.60542 24.1308 1.71718 24.0396 1.84756 24.0396H4.85286L3.77256 29.1515L3.76045 29.252L3.74834 29.3647C3.73996 29.415 3.73158 29.4606 3.7232 29.5026V29.6031C3.7232 30.1219 4.08361 30.3817 4.8035 30.3817C5.59045 30.3817 6.07193 29.984 6.24795 29.1887L7.34037 24.0396H10.5683L9.4004 29.5156C9.1238 30.7803 8.59669 31.7097 7.81812 32.3039C7.05632 32.8813 5.97601 33.1709 4.57813 33.1709C3.27152 33.1709 2.25919 32.9363 1.53837 32.4678L1.53651 32.4669Z" fill="black"/>
</g>
<defs>
<clipPath id="clip0_1709_140">
<rect width="100.58" height="33.1701" fill="white" transform="translate(0.419922)"/>
</clipPath>
</defs>
</svg>
