<svg width="551" height="161" viewBox="0 0 551 161" fill="none" xmlns="http://www.w3.org/2000/svg">
<ellipse opacity="0.5" cx="17.436" cy="17.436" rx="17.436" ry="17.436" transform="matrix(-1 0 0 1 158.699 42.7056)" fill="#A7E5E5"/>
<ellipse cx="17.436" cy="17.436" rx="17.436" ry="17.436" transform="matrix(-1 0 0 1 158.699 126.125)" fill="#3B47C2"/>
<ellipse cx="16.7522" cy="17.436" rx="16.7522" ry="17.436" transform="matrix(-1 0 0 1 75.9639 42.7056)" fill="#3B47C2"/>
<ellipse opacity="0.5" cx="16.7522" cy="17.436" rx="16.7522" ry="17.436" transform="matrix(-1 0 0 1 75.9639 126.125)" fill="#A7E5E5"/>
<ellipse opacity="0.5" cx="17.436" cy="17.436" rx="17.436" ry="17.436" transform="matrix(-1 0 0 1 158.699 0.996582)" fill="#A7E5E5"/>
<ellipse cx="17.436" cy="17.436" rx="17.436" ry="17.436" transform="matrix(-1 0 0 1 158.699 84.415)" fill="#3B47C2"/>
<ellipse cx="16.7522" cy="17.436" rx="16.7522" ry="17.436" transform="matrix(-1 0 0 1 75.9639 0.996582)" fill="#3B47C2"/>
<ellipse opacity="0.5" cx="16.7522" cy="17.436" rx="16.7522" ry="17.436" transform="matrix(-1 0 0 1 75.9639 84.415)" fill="#A7E5E5"/>
<ellipse opacity="0.5" cx="17.0941" cy="17.436" rx="17.0941" ry="17.436" transform="matrix(-1 0 0 1 116.989 0.996582)" fill="#A7E5E5"/>
<ellipse cx="17.0941" cy="17.436" rx="17.0941" ry="17.436" transform="matrix(-1 0 0 1 116.989 84.415)" fill="#3B47C2"/>
<ellipse cx="17.436" cy="17.436" rx="17.436" ry="17.436" transform="matrix(-1 0 0 1 35.6221 0.996582)" fill="#3B47C2"/>
<ellipse opacity="0.5" cx="17.436" cy="17.436" rx="17.436" ry="17.436" transform="matrix(-1 0 0 1 35.6221 84.415)" fill="#A7E5E5"/>
<ellipse opacity="0.5" cx="17.0941" cy="17.436" rx="17.0941" ry="17.436" transform="matrix(-1 0 0 1 116.989 42.7056)" fill="#A7E5E5"/>
<ellipse cx="17.0941" cy="17.436" rx="17.0941" ry="17.436" transform="matrix(-1 0 0 1 116.989 126.125)" fill="#3B47C2"/>
<ellipse cx="17.436" cy="17.436" rx="17.436" ry="17.436" transform="matrix(-1 0 0 1 35.6221 42.7056)" fill="#3B47C2"/>
<ellipse opacity="0.5" cx="17.436" cy="17.436" rx="17.436" ry="17.436" transform="matrix(-1 0 0 1 35.6221 126.125)" fill="#A7E5E5"/>
<ellipse cx="36.5219" cy="36.5219" rx="36.5219" ry="36.5219" transform="matrix(-1 0 0 1 354.557 87.5518)" fill="#3B47C2"/>
<ellipse opacity="0.5" cx="36.5219" cy="36.834" rx="36.5219" ry="36.834" transform="matrix(-1 0 0 1 354.557 1.39746)" fill="#A7E5E5"/>
<ellipse cx="36.2097" cy="36.834" rx="36.2097" ry="36.834" transform="matrix(-1 0 0 1 269.026 1.39746)" fill="#3B47C2"/>
<ellipse opacity="0.5" cx="36.2097" cy="36.5219" rx="36.2097" ry="36.5219" transform="matrix(-1 0 0 1 269.026 87.5518)" fill="#A7E5E5"/>
<ellipse cx="78.9746" cy="78.9747" rx="78.9746" ry="78.9747" transform="matrix(-1 0 0 1 550.413 2.02197)" fill="#3B47C2"/>
</svg>
